<svg width="226" height="182" viewBox="0 0 226 182" fill="none" xmlns="http://www.w3.org/2000/svg">
<rect x="9" width="217" height="182" rx="10" fill="white"/>
<path d="M35.0234 65.5312C31.6797 65.5312 29.5859 67.7734 29.5859 71.3672C29.5859 74.9531 31.6797 77.1953 35.0234 77.1953C38.3594 77.1953 40.4609 74.9531 40.4609 71.3672C40.4609 67.7734 38.3594 65.5312 35.0234 65.5312ZM35.0234 67.5C36.8672 67.5 38.0469 69 38.0469 71.3672C38.0469 73.7266 36.8672 75.2188 35.0234 75.2188C33.1719 75.2188 31.9922 73.7266 31.9922 71.3672C31.9922 69 33.1797 67.5 35.0234 67.5ZM45.0625 75.4375C44.2344 75.4375 43.6953 75.0391 43.6953 74.4062C43.6953 73.7734 44.2031 73.3984 45.1562 73.3359L46.9609 73.2109V73.8438C46.9609 74.7812 46.1172 75.4375 45.0625 75.4375ZM44.3203 77.1016C45.4219 77.1016 46.4844 76.5703 46.9531 75.6719H47V77H49.2031V71.1016C49.2031 69.3828 47.7578 68.25 45.5469 68.25C43.3984 68.25 41.9141 69.3828 41.8516 71.0234H43.9375C44.0469 70.3984 44.625 69.9609 45.4531 69.9609C46.3906 69.9609 46.9609 70.4141 46.9609 71.2422V71.8125L44.8125 71.9453C42.6172 72.0781 41.4219 72.9609 41.4219 74.5234C41.4219 76.0625 42.6641 77.1016 44.3203 77.1016ZM53.1172 71.875H53.0859V65.1875H50.8047V77H53.0859V74.1328L53.7031 73.4688L56.2188 77H58.8438L55.375 72.0938L58.6875 68.3984H56.0938L53.1172 71.875ZM71.5312 68.3984H69.2812L67.9453 74.8203H67.8984L66.3359 68.3984H64.1484L62.5938 74.8203H62.5469L61.2188 68.3984H58.9219L61.2188 77H63.6172L65.1875 70.875H65.2344L66.8203 77H69.2422L71.5312 68.3984ZM76.2578 77.1484C78.8672 77.1484 80.5 75.4844 80.5 72.6953C80.5 69.9375 78.8516 68.25 76.2578 68.25C73.6719 68.25 72.0156 69.9453 72.0156 72.6953C72.0156 75.4766 73.6484 77.1484 76.2578 77.1484ZM76.2578 75.3906C75.0547 75.3906 74.3281 74.4062 74.3281 72.6953C74.3281 71.0078 75.0547 70 76.2578 70C77.4531 70 78.1797 71 78.1797 72.6953C78.1797 74.4062 77.4609 75.3906 76.2578 75.3906ZM85.6484 77.1484C88.2578 77.1484 89.8906 75.4844 89.8906 72.6953C89.8906 69.9375 88.2422 68.25 85.6484 68.25C83.0625 68.25 81.4062 69.9453 81.4062 72.6953C81.4062 75.4766 83.0391 77.1484 85.6484 77.1484ZM85.6484 75.3906C84.4453 75.3906 83.7188 74.4062 83.7188 72.6953C83.7188 71.0078 84.4453 70 85.6484 70C86.8438 70 87.5703 71 87.5703 72.6953C87.5703 74.4062 86.8516 75.3906 85.6484 75.3906ZM94.3203 77.1016C95.5859 77.1016 96.5781 76.4766 97 75.5312H97.0391V77H99.2891V65.1875H97.0078V69.8672H96.9609C96.5312 68.9141 95.5703 68.2969 94.3281 68.2969C92.1875 68.2969 90.7969 69.9922 90.7969 72.6875C90.7969 75.3984 92.1797 77.1016 94.3203 77.1016ZM95.0781 70.1406C96.2578 70.1406 97.0234 71.1484 97.0234 72.7031C97.0234 74.2578 96.2578 75.2578 95.0781 75.2578C93.8906 75.2578 93.1328 74.2734 93.1328 72.6953C93.1328 71.1328 93.8906 70.1406 95.0781 70.1406ZM114.281 77V65.7266H111.922V70.3047H106.844V65.7266H104.484V77H106.844V72.25H111.922V77H114.281ZM119.914 77.1484C122.523 77.1484 124.156 75.4844 124.156 72.6953C124.156 69.9375 122.508 68.25 119.914 68.25C117.328 68.25 115.672 69.9453 115.672 72.6953C115.672 75.4766 117.305 77.1484 119.914 77.1484ZM119.914 75.3906C118.711 75.3906 117.984 74.4062 117.984 72.6953C117.984 71.0078 118.711 70 119.914 70C121.109 70 121.836 71 121.836 72.6953C121.836 74.4062 121.117 75.3906 119.914 75.3906ZM125.992 66.4844V68.3984H124.828V70.125H125.992V74.6797C125.992 76.3594 126.773 77.0312 128.766 77.0312C129.227 77.0312 129.633 76.9844 129.867 76.9375V75.25C129.727 75.2734 129.5 75.2891 129.297 75.2891C128.602 75.2891 128.273 74.9688 128.273 74.3047V70.125H129.867V68.3984H128.273V66.4844H125.992ZM134.891 69.9531C135.945 69.9531 136.68 70.6875 136.719 71.8125H133.008C133.086 70.7109 133.852 69.9531 134.891 69.9531ZM136.75 74.375C136.531 75.0391 135.852 75.4453 134.992 75.4453C133.789 75.4453 132.984 74.6094 132.984 73.3672V73.2266H138.922V72.5234C138.922 69.9062 137.344 68.25 134.867 68.25C132.344 68.25 130.734 70 130.734 72.7344C130.734 75.4688 132.336 77.1484 134.953 77.1484C137.047 77.1484 138.602 76.0391 138.852 74.375H136.75ZM140.211 77H142.492V65.1875H140.211V77ZM155.586 77H158.141L156.039 74.8047C156.648 73.9609 156.992 72.7734 156.992 71.3984V70.6719H155.094V71.2656C155.094 72.2344 154.961 72.9141 154.688 73.3984L152.547 71.0859C154.109 70.2344 154.828 69.3125 154.828 68.1562C154.828 66.6406 153.531 65.5781 151.688 65.5781C149.852 65.5781 148.492 66.6875 148.492 68.1953C148.492 69.0234 148.875 69.7266 149.891 70.7734C149.859 70.7891 149.5 70.9844 149.383 71.0469C147.945 71.8359 147.297 72.7656 147.297 74.0469C147.297 75.9609 148.836 77.2031 151.227 77.2031C152.594 77.2031 153.883 76.7812 154.719 76.0625L155.586 77ZM150.625 72.1328C150.695 72.0938 150.852 72.0078 150.938 71.9688L153.523 74.7656C153.086 75.2422 152.273 75.5469 151.461 75.5469C150.25 75.5469 149.43 74.875 149.43 73.8672C149.43 73.1719 149.773 72.6719 150.625 72.1328ZM151.492 70.0234C150.727 69.2812 150.445 68.8359 150.445 68.3125C150.445 67.6094 150.969 67.0938 151.695 67.0938C152.43 67.0938 152.93 67.5938 152.93 68.3125C152.93 68.9922 152.516 69.4922 151.492 70.0234ZM161.953 73.7891C162.023 75.9062 163.75 77.1953 166.461 77.1953C169.258 77.1953 171.031 75.8125 171.031 73.625C171.031 71.9062 170.047 70.9375 167.789 70.4531L166.422 70.1641C165.125 69.8672 164.578 69.4766 164.578 68.7812C164.578 67.9453 165.359 67.3906 166.523 67.3906C167.703 67.3906 168.539 67.9688 168.617 68.9219H170.828C170.789 66.8828 169.141 65.5312 166.516 65.5312C164 65.5312 162.203 66.9062 162.203 68.9844C162.203 70.6328 163.227 71.6875 165.305 72.1328L166.773 72.4531C168.133 72.7578 168.672 73.1641 168.672 73.8984C168.672 74.7266 167.812 75.3281 166.555 75.3281C165.305 75.3281 164.336 74.7188 164.227 73.7891H161.953ZM180.203 68.3984H177.922V73.2969C177.922 74.4609 177.258 75.2266 176.195 75.2266C175.141 75.2266 174.562 74.6016 174.562 73.4375V68.3984H172.281V73.9141C172.281 75.9141 173.508 77.125 175.367 77.125C176.672 77.125 177.516 76.5234 177.953 75.4453H178V77H180.203V68.3984ZM181.797 77H184.078V68.3984H181.797V77ZM182.938 67.4609C183.617 67.4609 184.172 66.9453 184.172 66.2656C184.172 65.5859 183.617 65.0781 182.938 65.0781C182.266 65.0781 181.711 65.5859 181.711 66.2656C181.711 66.9453 182.266 67.4609 182.938 67.4609ZM186.273 66.4844V68.3984H185.109V70.125H186.273V74.6797C186.273 76.3594 187.055 77.0312 189.047 77.0312C189.508 77.0312 189.914 76.9844 190.148 76.9375V75.25C190.008 75.2734 189.781 75.2891 189.578 75.2891C188.883 75.2891 188.555 74.9688 188.555 74.3047V70.125H190.148V68.3984H188.555V66.4844H186.273ZM195.172 69.9531C196.227 69.9531 196.961 70.6875 197 71.8125H193.289C193.367 70.7109 194.133 69.9531 195.172 69.9531ZM197.031 74.375C196.812 75.0391 196.133 75.4453 195.273 75.4453C194.07 75.4453 193.266 74.6094 193.266 73.3672V73.2266H199.203V72.5234C199.203 69.9062 197.625 68.25 195.148 68.25C192.625 68.25 191.016 70 191.016 72.7344C191.016 75.4688 192.617 77.1484 195.234 77.1484C197.328 77.1484 198.883 76.0391 199.133 74.375H197.031ZM200.281 70.9297C200.281 72.1875 201.117 73.0234 202.734 73.3906L204.32 73.75C205.102 73.9375 205.398 74.1719 205.398 74.6172C205.398 75.1797 204.844 75.5312 203.938 75.5312C202.992 75.5312 202.406 75.125 202.297 74.3984H200.07C200.188 76.0547 201.609 77.1484 203.875 77.1484C206.125 77.1484 207.664 76.0469 207.664 74.375C207.664 73.0938 206.977 72.4297 205.25 72.0391L203.633 71.6875C202.859 71.5078 202.484 71.2188 202.484 70.7891C202.484 70.2344 203.031 69.8672 203.852 69.8672C204.727 69.8672 205.297 70.2969 205.344 70.9766H207.453C207.422 69.3359 206.008 68.25 203.883 68.25C201.703 68.25 200.281 69.3125 200.281 70.9297Z" fill="#243256"/>
<path d="M33.1953 126V118.617H33.2656L38.5391 126H40.4922V114.727H38.2344V122.07H38.1719L32.9062 114.727H30.9375V126H33.1953ZM45.1016 126H47.4375V114.727H45.0938L42.1797 116.75V118.875L45.0547 116.891H45.1016V126ZM55.3438 126H57.5859V123.992H59.0547V122.102H57.5859V114.727H54.2578C51.9453 118.133 50.7188 120.109 49.7344 121.984V123.992H55.3438V126ZM51.8047 122.109C52.7188 120.344 53.7031 118.805 55.3438 116.398H55.3906V122.172H51.8047V122.109ZM64.6797 126.25C67.2656 126.25 69.0312 124.625 69.0312 122.234C69.0312 120.039 67.4844 118.453 65.3281 118.453C64.1797 118.453 63.2812 118.93 62.8203 119.688H62.7734L63.0312 116.602H68.3516V114.727H61.1797L60.625 121.211H62.7344C63.125 120.562 63.8594 120.172 64.7109 120.172C65.9297 120.172 66.7812 121.047 66.7812 122.297C66.7812 123.523 65.9297 124.383 64.6953 124.383C63.6016 124.383 62.7578 123.727 62.625 122.773H60.4453C60.5156 124.812 62.2578 126.25 64.6797 126.25ZM71.875 128.117L72.9453 123.891H70.7969L70.1484 128.117H71.875ZM78.8984 126.25C81.7344 126.25 83.4531 123.977 83.4531 120.336C83.4531 116.695 81.7188 114.469 78.8984 114.469C76.0781 114.469 74.3359 116.703 74.3359 120.344C74.3359 123.992 76.0625 126.25 78.8984 126.25ZM78.8984 124.359C77.5547 124.359 76.7344 122.906 76.7344 120.344C76.7344 117.805 77.5703 116.359 78.8984 116.359C80.2344 116.359 81.0547 117.797 81.0547 120.344C81.0547 122.914 80.2422 124.359 78.8984 124.359ZM89.3203 126.25C92.1562 126.25 93.875 123.977 93.875 120.336C93.875 116.695 92.1406 114.469 89.3203 114.469C86.5 114.469 84.7578 116.703 84.7578 120.344C84.7578 123.992 86.4844 126.25 89.3203 126.25ZM89.3203 124.359C87.9766 124.359 87.1562 122.906 87.1562 120.344C87.1562 117.805 87.9922 116.359 89.3203 116.359C90.6562 116.359 91.4766 117.797 91.4766 120.344C91.4766 122.914 90.6641 124.359 89.3203 124.359ZM99.7422 126.25C102.578 126.25 104.297 123.977 104.297 120.336C104.297 116.695 102.562 114.469 99.7422 114.469C96.9219 114.469 95.1797 116.703 95.1797 120.344C95.1797 123.992 96.9062 126.25 99.7422 126.25ZM99.7422 124.359C98.3984 124.359 97.5781 122.906 97.5781 120.344C97.5781 117.805 98.4141 116.359 99.7422 116.359C101.078 116.359 101.898 117.797 101.898 120.344C101.898 122.914 101.086 124.359 99.7422 124.359Z" fill="#97CAAF"/>
<line x1="30" y1="89.75" x2="205" y2="89.75" stroke="#DADADA" stroke-width="0.5"/>
<path d="M30.5195 102.363V108H32.5391C34.2188 108 35.207 106.953 35.207 105.172C35.207 103.395 34.2188 102.363 32.5391 102.363H30.5195ZM31.3945 103.117H32.457C33.6523 103.117 34.3164 103.852 34.3164 105.18C34.3164 106.512 33.6523 107.242 32.457 107.242H31.3945V103.117ZM35.9883 108H36.8359V103.758H35.9883V108ZM36.4141 103.152C36.6875 103.152 36.9102 102.934 36.9102 102.664C36.9102 102.387 36.6875 102.176 36.4141 102.176C36.1406 102.176 35.918 102.387 35.918 102.664C35.918 102.934 36.1406 103.152 36.4141 103.152ZM37.668 104.965C37.668 105.551 38.0469 105.941 38.8125 106.129L39.5703 106.316C40.0156 106.43 40.1836 106.57 40.1836 106.84C40.1836 107.184 39.8516 107.402 39.3242 107.402C38.7852 107.402 38.457 107.18 38.3906 106.773H37.5547C37.6172 107.539 38.293 108.051 39.2812 108.051C40.3086 108.051 41.0273 107.527 41.0273 106.77C41.0273 106.145 40.7109 105.836 39.8555 105.629L39.1523 105.461C38.7031 105.352 38.4922 105.176 38.4922 104.918C38.4922 104.582 38.8125 104.359 39.293 104.359C39.7773 104.359 40.1016 104.594 40.1367 104.969H40.9336C40.9141 104.23 40.2422 103.707 39.3125 103.707C38.3359 103.707 37.668 104.219 37.668 104.965ZM45.3398 105.207C45.2656 104.391 44.5938 103.703 43.5117 103.703C42.3125 103.703 41.5234 104.559 41.5234 105.879C41.5234 107.223 42.3164 108.051 43.5195 108.051C44.5391 108.051 45.25 107.461 45.3477 106.574H44.5391C44.4375 107.07 44.0742 107.34 43.5234 107.34C42.8438 107.34 42.3828 106.793 42.3828 105.879C42.3828 104.988 42.8359 104.418 43.5195 104.418C44.1016 104.418 44.4531 104.758 44.5312 105.207H45.3398ZM47.7891 108.051C49.0156 108.051 49.793 107.215 49.793 105.879C49.793 104.543 49.0117 103.703 47.7891 103.703C46.5664 103.703 45.7812 104.547 45.7812 105.879C45.7812 107.215 46.5625 108.051 47.7891 108.051ZM47.7891 107.348C47.0703 107.348 46.6406 106.805 46.6406 105.879C46.6406 104.957 47.0703 104.406 47.7891 104.406C48.5078 104.406 48.9336 104.953 48.9336 105.879C48.9336 106.805 48.5078 107.348 47.7891 107.348ZM54.0898 103.758H53.2422V106.203C53.2422 106.875 52.8555 107.316 52.2227 107.316C51.6094 107.316 51.3008 106.969 51.3008 106.316V103.758H50.4531V106.477C50.4531 107.449 51.0156 108.047 51.9414 108.047C52.5898 108.047 53.0195 107.777 53.2656 107.273H53.2812V108H54.0898V103.758ZM54.957 108H55.8047V105.551C55.8047 104.883 56.1875 104.438 56.8281 104.438C57.4492 104.438 57.7461 104.797 57.7461 105.441V108H58.5938V105.281C58.5938 104.305 58.0586 103.711 57.1211 103.711C56.4648 103.711 56.0391 103.973 55.7812 104.473H55.7656V103.758H54.957V108ZM59.6953 102.805V103.758H59.1094V104.426H59.6953V106.883C59.6953 107.703 60.0234 108.027 60.8711 108.027C61.0547 108.027 61.2539 108.008 61.3477 107.984V107.316C61.293 107.324 61.1484 107.336 61.0586 107.336C60.7031 107.336 60.5391 107.164 60.5391 106.797V104.426H61.3516V103.758H60.5391V102.805H59.6953ZM63.7305 104.395C64.3477 104.395 64.7656 104.832 64.7852 105.492H62.6328C62.6797 104.84 63.1211 104.395 63.7305 104.395ZM64.7812 106.758C64.6641 107.129 64.2773 107.363 63.7852 107.363C63.0898 107.363 62.6289 106.879 62.6289 106.145V106.094H65.6328V105.797C65.6328 104.512 64.8984 103.703 63.7344 103.703C62.5469 103.703 61.7734 104.566 61.7734 105.895C61.7734 107.223 62.5391 108.051 63.7695 108.051C64.7227 108.051 65.4688 107.52 65.5898 106.758H64.7812ZM67.9141 108.043C68.5352 108.043 69.0195 107.762 69.2695 107.281H69.2852V108H70.1055V102.109H69.2617V104.461H69.2422C69 103.992 68.5156 103.715 67.9062 103.715C66.8516 103.715 66.125 104.57 66.125 105.875C66.125 107.188 66.8516 108.043 67.9141 108.043ZM68.1289 104.434C68.8086 104.434 69.2656 105.016 69.2656 105.879C69.2656 106.746 68.8086 107.324 68.1289 107.324C67.4414 107.324 66.9922 106.758 66.9922 105.879C66.9922 105.004 67.4453 104.434 68.1289 104.434Z" fill="#DADADA"/>
<path d="M31.3975 136H32.0391V131.772H31.3916L30.2783 132.563V133.208L31.3828 132.423H31.3975V136ZM37.2686 136H37.9629L36.4365 131.772H35.7275L34.2012 136H34.8838L35.2705 134.857H36.8818L37.2686 136ZM36.0674 132.476H36.085L36.7148 134.33H35.4375L36.0674 132.476ZM38.4287 131.772V136H39.9434C41.2031 136 41.9443 135.215 41.9443 133.879C41.9443 132.546 41.2031 131.772 39.9434 131.772H38.4287ZM39.085 132.338H39.8818C40.7783 132.338 41.2764 132.889 41.2764 133.885C41.2764 134.884 40.7783 135.432 39.8818 135.432H39.085V132.338ZM43.2275 131.772H42.5713V134.515C42.5713 135.426 43.2217 136.07 44.2822 136.07C45.3428 136.07 45.9932 135.426 45.9932 134.515V131.772H45.3398V134.459C45.3398 135.062 44.9561 135.487 44.2822 135.487C43.6084 135.487 43.2275 135.062 43.2275 134.459V131.772ZM49.3975 135.432H47.4287V131.772H46.7725V136H49.3975V135.432ZM51.0791 136V132.338H52.3945V131.772H49.1045V132.338H50.4229V136H51.0791ZM54.4775 136.926L55.7549 131.77H55.1865L53.9238 136.926H54.4775ZM57.4336 133.012V133.018H58.0547V133.009C58.0547 132.569 58.4033 132.235 58.8662 132.235C59.3057 132.235 59.6455 132.534 59.6455 132.909C59.6455 133.24 59.5107 133.463 58.9951 133.999L57.4688 135.555V136H60.3604V135.446H58.3535V135.432L59.4111 134.368C60.0293 133.735 60.293 133.369 60.293 132.877C60.293 132.206 59.6924 131.693 58.8867 131.693C58.0459 131.693 57.4336 132.25 57.4336 133.012ZM63.0264 136V132.886H63.0527L65.2441 136H65.8359V131.772H65.1973V134.89H65.1738L62.9824 131.772H62.3877V136H63.0264ZM67.2744 136V131.772H66.6182V136H67.2744ZM71.6953 134.242V133.812H69.9551V134.342H71.0479V134.415C71.0391 135.057 70.5645 135.496 69.8789 135.496C69.0732 135.496 68.5723 134.872 68.5723 133.861C68.5723 132.868 69.0586 132.276 69.8672 132.276C70.418 132.276 70.8311 132.578 70.9893 133.103H71.6631C71.5166 132.259 70.8047 131.702 69.8643 131.702C68.6602 131.702 67.9014 132.534 67.9014 133.867C67.9014 135.224 68.6631 136.07 69.873 136.07C71.0186 136.07 71.6953 135.388 71.6953 134.242ZM75.8203 136V131.772H75.1641V133.56H72.9932V131.772H72.3369V136H72.9932V134.128H75.1641V136H75.8203ZM78.3252 136V132.338H79.6406V131.772H76.3506V132.338H77.6689V136H78.3252ZM79.9893 134.822C80.0303 135.587 80.6631 136.07 81.6006 136.07C82.6025 136.07 83.2324 135.575 83.2324 134.784C83.2324 134.166 82.8721 133.817 82.0049 133.612L81.5391 133.498C80.9941 133.363 80.7715 133.188 80.7715 132.889C80.7715 132.514 81.1201 132.256 81.6299 132.256C82.1396 132.256 82.4883 132.511 82.5264 132.933H83.165C83.1445 132.203 82.5322 131.702 81.6387 131.702C80.7363 131.702 80.1006 132.203 80.1006 132.933C80.1006 133.521 80.4609 133.885 81.2373 134.072L81.7852 134.204C82.333 134.339 82.5645 134.535 82.5645 134.863C82.5645 135.241 82.1807 135.517 81.6475 135.517C81.0908 135.517 80.6836 135.241 80.6367 134.822H79.9893Z" fill="#243256"/>
<rect x="106" y="151" width="103" height="19" rx="4" fill="#243256"/>
<path d="M121.27 161.43C121.324 162.449 122.168 163.094 123.418 163.094C124.754 163.094 125.594 162.434 125.594 161.379C125.594 160.555 125.113 160.09 123.957 159.816L123.336 159.664C122.609 159.484 122.312 159.25 122.312 158.852C122.312 158.352 122.777 158.008 123.457 158.008C124.137 158.008 124.602 158.348 124.652 158.91H125.504C125.477 157.938 124.66 157.27 123.469 157.27C122.266 157.27 121.418 157.938 121.418 158.91C121.418 159.695 121.898 160.18 122.934 160.43L123.664 160.605C124.395 160.785 124.703 161.047 124.703 161.484C124.703 161.988 124.191 162.355 123.48 162.355C122.738 162.355 122.195 161.988 122.133 161.43H121.27ZM128.059 159.395C128.676 159.395 129.094 159.832 129.113 160.492H126.961C127.008 159.84 127.449 159.395 128.059 159.395ZM129.109 161.758C128.992 162.129 128.605 162.363 128.113 162.363C127.418 162.363 126.957 161.879 126.957 161.145V161.094H129.961V160.797C129.961 159.512 129.227 158.703 128.062 158.703C126.875 158.703 126.102 159.566 126.102 160.895C126.102 162.223 126.867 163.051 128.098 163.051C129.051 163.051 129.797 162.52 129.918 161.758H129.109ZM132.41 159.395C133.027 159.395 133.445 159.832 133.465 160.492H131.312C131.359 159.84 131.801 159.395 132.41 159.395ZM133.461 161.758C133.344 162.129 132.957 162.363 132.465 162.363C131.77 162.363 131.309 161.879 131.309 161.145V161.094H134.312V160.797C134.312 159.512 133.578 158.703 132.414 158.703C131.227 158.703 130.453 159.566 130.453 160.895C130.453 162.223 131.219 163.051 132.449 163.051C133.402 163.051 134.148 162.52 134.27 161.758H133.461ZM138.312 162.367C137.824 162.367 137.508 162.133 137.508 161.77C137.508 161.395 137.809 161.18 138.387 161.145L139.418 161.074V161.406C139.418 161.965 138.941 162.367 138.312 162.367ZM138.086 163.043C138.664 163.043 139.191 162.754 139.426 162.293H139.445V163H140.254V160.09C140.254 159.25 139.586 158.703 138.551 158.703C137.598 158.703 136.887 159.258 136.863 160.008H137.656C137.73 159.641 138.066 159.402 138.527 159.402C139.094 159.402 139.418 159.668 139.418 160.152V160.48L138.273 160.547C137.227 160.613 136.652 161.043 136.652 161.785C136.652 162.543 137.238 163.043 138.086 163.043ZM144.707 158.758H143.828L142.742 162.164H142.723L141.641 158.758H140.746L142.277 163H143.18L144.707 158.758ZM146.602 162.367C146.113 162.367 145.797 162.133 145.797 161.77C145.797 161.395 146.098 161.18 146.676 161.145L147.707 161.074V161.406C147.707 161.965 147.23 162.367 146.602 162.367ZM146.375 163.043C146.953 163.043 147.48 162.754 147.715 162.293H147.734V163H148.543V160.09C148.543 159.25 147.875 158.703 146.84 158.703C145.887 158.703 145.176 159.258 145.152 160.008H145.945C146.02 159.641 146.355 159.402 146.816 159.402C147.383 159.402 147.707 159.668 147.707 160.152V160.48L146.562 160.547C145.516 160.613 144.941 161.043 144.941 161.785C144.941 162.543 145.527 163.043 146.375 163.043ZM149.426 163H150.273V158.758H149.426V163ZM149.852 158.152C150.125 158.152 150.348 157.934 150.348 157.664C150.348 157.387 150.125 157.176 149.852 157.176C149.578 157.176 149.355 157.387 149.355 157.664C149.355 157.934 149.578 158.152 149.852 158.152ZM151.211 163H152.059V157.109H151.211V163ZM154.438 162.367C153.949 162.367 153.633 162.133 153.633 161.77C153.633 161.395 153.934 161.18 154.512 161.145L155.543 161.074V161.406C155.543 161.965 155.066 162.367 154.438 162.367ZM154.211 163.043C154.789 163.043 155.316 162.754 155.551 162.293H155.57V163H156.379V160.09C156.379 159.25 155.711 158.703 154.676 158.703C153.723 158.703 153.012 159.258 152.988 160.008H153.781C153.855 159.641 154.191 159.402 154.652 159.402C155.219 159.402 155.543 159.668 155.543 160.152V160.48L154.398 160.547C153.352 160.613 152.777 161.043 152.777 161.785C152.777 162.543 153.363 163.043 154.211 163.043ZM159.465 163.043C160.543 163.043 161.246 162.195 161.246 160.879C161.246 159.562 160.543 158.715 159.473 158.715C158.871 158.715 158.387 158.984 158.129 159.461H158.113V157.109H157.266V163H158.082V162.281H158.102C158.363 162.77 158.848 163.043 159.465 163.043ZM159.25 159.434C159.934 159.434 160.379 160 160.379 160.879C160.379 161.758 159.934 162.324 159.25 162.324C158.566 162.324 158.109 161.742 158.109 160.879C158.109 160.02 158.566 159.434 159.25 159.434ZM161.961 163H162.809V157.109H161.961V163ZM165.48 159.395C166.098 159.395 166.516 159.832 166.535 160.492H164.383C164.43 159.84 164.871 159.395 165.48 159.395ZM166.531 161.758C166.414 162.129 166.027 162.363 165.535 162.363C164.84 162.363 164.379 161.879 164.379 161.145V161.094H167.383V160.797C167.383 159.512 166.648 158.703 165.484 158.703C164.297 158.703 163.523 159.566 163.523 160.895C163.523 162.223 164.289 163.051 165.52 163.051C166.473 163.051 167.219 162.52 167.34 161.758H166.531ZM169.84 159.965C169.84 160.551 170.219 160.941 170.984 161.129L171.742 161.316C172.188 161.43 172.355 161.57 172.355 161.84C172.355 162.184 172.023 162.402 171.496 162.402C170.957 162.402 170.629 162.18 170.562 161.773H169.727C169.789 162.539 170.465 163.051 171.453 163.051C172.48 163.051 173.199 162.527 173.199 161.77C173.199 161.145 172.883 160.836 172.027 160.629L171.324 160.461C170.875 160.352 170.664 160.176 170.664 159.918C170.664 159.582 170.984 159.359 171.465 159.359C171.949 159.359 172.273 159.594 172.309 159.969H173.105C173.086 159.23 172.414 158.707 171.484 158.707C170.508 158.707 169.84 159.219 169.84 159.965ZM176.074 158.715C175.484 158.715 174.961 159.004 174.723 159.461H174.703V158.758H173.887V164.406H174.734V162.305H174.75C175.004 162.773 175.484 163.043 176.094 163.043C177.16 163.043 177.867 162.191 177.867 160.879C177.867 159.562 177.156 158.715 176.074 158.715ZM175.859 162.324C175.184 162.324 174.73 161.746 174.727 160.879C174.73 160.016 175.188 159.434 175.859 159.434C176.547 159.434 177 160.004 177 160.879C177 161.758 176.547 162.324 175.859 162.324ZM180.016 162.367C179.527 162.367 179.211 162.133 179.211 161.77C179.211 161.395 179.512 161.18 180.09 161.145L181.121 161.074V161.406C181.121 161.965 180.645 162.367 180.016 162.367ZM179.789 163.043C180.367 163.043 180.895 162.754 181.129 162.293H181.148V163H181.957V160.09C181.957 159.25 181.289 158.703 180.254 158.703C179.301 158.703 178.59 159.258 178.566 160.008H179.359C179.434 159.641 179.77 159.402 180.23 159.402C180.797 159.402 181.121 159.668 181.121 160.152V160.48L179.977 160.547C178.93 160.613 178.355 161.043 178.355 161.785C178.355 162.543 178.941 163.043 179.789 163.043ZM186.434 160.207C186.359 159.391 185.688 158.703 184.605 158.703C183.406 158.703 182.617 159.559 182.617 160.879C182.617 162.223 183.41 163.051 184.613 163.051C185.633 163.051 186.344 162.461 186.441 161.574H185.633C185.531 162.07 185.168 162.34 184.617 162.34C183.938 162.34 183.477 161.793 183.477 160.879C183.477 159.988 183.93 159.418 184.613 159.418C185.195 159.418 185.547 159.758 185.625 160.207H186.434ZM188.832 159.395C189.449 159.395 189.867 159.832 189.887 160.492H187.734C187.781 159.84 188.223 159.395 188.832 159.395ZM189.883 161.758C189.766 162.129 189.379 162.363 188.887 162.363C188.191 162.363 187.73 161.879 187.73 161.145V161.094H190.734V160.797C190.734 159.512 190 158.703 188.836 158.703C187.648 158.703 186.875 159.566 186.875 160.895C186.875 162.223 187.641 163.051 188.871 163.051C189.824 163.051 190.57 162.52 190.691 161.758H189.883ZM191.348 159.965C191.348 160.551 191.727 160.941 192.492 161.129L193.25 161.316C193.695 161.43 193.863 161.57 193.863 161.84C193.863 162.184 193.531 162.402 193.004 162.402C192.465 162.402 192.137 162.18 192.07 161.773H191.234C191.297 162.539 191.973 163.051 192.961 163.051C193.988 163.051 194.707 162.527 194.707 161.77C194.707 161.145 194.391 160.836 193.535 160.629L192.832 160.461C192.383 160.352 192.172 160.176 192.172 159.918C192.172 159.582 192.492 159.359 192.973 159.359C193.457 159.359 193.781 159.594 193.816 159.969H194.613C194.594 159.23 193.922 158.707 192.992 158.707C192.016 158.707 191.348 159.219 191.348 159.965Z" fill="white"/>
<path d="M41.6119 59H42.3326V58.2002H42.9009V57.582H42.3326V54.7725H41.2574C40.3404 56.1055 39.8687 56.8584 39.5025 57.5498V58.2002H41.6119V59ZM40.188 57.5791C40.525 56.9463 40.9293 56.3223 41.6119 55.332H41.6236V57.5996H40.188V57.5791ZM43.8912 59.0322C44.1255 59.0322 44.3101 58.8477 44.3101 58.6104C44.3101 58.373 44.1255 58.1885 43.8912 58.1885C43.6539 58.1885 43.4693 58.373 43.4693 58.6104C43.4693 58.8477 43.6539 59.0322 43.8912 59.0322ZM46.4898 59.085C47.5738 59.085 48.2154 58.2471 48.2154 56.8379C48.2154 56.3105 48.1129 55.8682 47.9136 55.5225C47.6324 54.9834 47.1285 54.6846 46.5074 54.6846C45.5933 54.6846 44.9283 55.3027 44.9283 56.1582C44.9283 56.9609 45.5289 57.5557 46.3316 57.5557C46.8795 57.5557 47.313 57.2773 47.4771 56.8643H47.48H47.483C47.4859 56.8643 47.4888 56.8643 47.4888 56.8643C47.5005 57.8867 47.1255 58.4727 46.5015 58.4727C46.1324 58.4727 45.8306 58.2617 45.7369 57.9424H44.9869C45.107 58.6221 45.7134 59.085 46.4898 59.085ZM46.5103 56.9639C46.0298 56.9639 45.6724 56.6123 45.6724 56.1348C45.6724 55.6719 46.0445 55.3057 46.5162 55.3057C46.9908 55.3057 47.3599 55.6748 47.3599 56.1465C47.3599 56.6123 46.9937 56.9639 46.5103 56.9639Z" fill="#97CAAF"/>
<path d="M33 53L33.8981 55.7639H36.8042L34.4531 57.4721L35.3511 60.2361L33 58.5279L30.6489 60.2361L31.5469 57.4721L29.1958 55.7639H32.1019L33 53Z" fill="#FFB800"/>
<path d="M0 20C0 17.7909 1.79086 16 4 16H140C142.209 16 144 17.7909 144 20V34C144 36.2091 142.209 38 140 38H0V20Z" fill="#FFB800"/>
<path d="M9 47L0 38H9V47Z" fill="#C68F03"/>
<path fill-rule="evenodd" clip-rule="evenodd" d="M22.4991 22.0312L22.5027 22.0313L22.5034 22.0313C22.5152 22.0314 22.5269 22.0322 22.5384 22.0335L25.2445 22.3196C25.2568 22.3208 25.2689 22.3227 25.2809 22.3252C25.2973 22.3285 25.3133 22.3331 25.3288 22.3388C25.3905 22.3613 25.4458 22.4014 25.4868 22.4564L27.5838 25.2715C27.5966 25.2882 27.608 25.3063 27.6176 25.3255C27.6195 25.3292 27.6213 25.333 27.6231 25.3368C27.6476 25.3902 27.6576 25.4477 27.6537 25.504C27.6516 25.5334 27.6458 25.5625 27.6363 25.5906C27.627 25.6181 27.6141 25.6446 27.5978 25.6694C27.5928 25.677 27.5875 25.6844 27.5818 25.6917C27.5779 25.6966 27.5739 25.7015 27.5698 25.7062L22.7635 31.303C22.752 31.317 22.7392 31.3301 22.7252 31.3423C22.6963 31.3675 22.6639 31.3873 22.6295 31.4014C22.5872 31.4188 22.5425 31.4272 22.4982 31.4271C22.4544 31.427 22.4105 31.4186 22.3687 31.4014C22.3342 31.3873 22.3017 31.3675 22.2728 31.3421C22.259 31.33 22.2462 31.3169 22.2347 31.303L17.4288 25.7067C17.4175 25.6937 17.4071 25.6799 17.3977 25.6651C17.3621 25.6094 17.3438 25.5451 17.3438 25.4803C17.3437 25.4474 17.3484 25.4144 17.358 25.3823C17.366 25.3553 17.3774 25.3291 17.3922 25.3044C17.3987 25.2933 17.4059 25.2827 17.4136 25.2726L19.5103 22.458C19.5133 22.4539 19.5163 22.4499 19.5195 22.446C19.5533 22.4041 19.5962 22.3711 19.6443 22.3491C19.6641 22.34 19.6848 22.3328 19.7062 22.3277C19.7218 22.3239 19.7378 22.3212 19.754 22.3196L22.4598 22.0335C22.4714 22.0322 22.4831 22.0314 22.4949 22.0313L22.4955 22.0313L22.4991 22.0312ZM26.626 25.1365L25.4579 23.5685L25.2868 25.1365H26.626ZM23.2641 22.8016L24.6541 24.5967L24.8319 22.9673L23.2641 22.8016ZM20.1663 22.9673L21.7341 22.8016L20.3441 24.5967L20.1663 22.9673ZM22.4991 22.9365L24.2025 25.1365H20.7957L22.4991 22.9365ZM18.4358 25.824H19.8682L21.2989 29.1581L18.4358 25.824ZM19.5403 23.5685L18.3722 25.1365H19.7114L19.5403 23.5685ZM26.5624 25.824L23.6993 29.1581L25.13 25.824H26.5624ZM20.6163 25.824H24.3819L22.4991 30.2116L20.6163 25.824Z" fill="white"/>
<path d="M37.1221 29.0527H33.7432V26.8652H36.9414V25.957H33.7432V23.8965H37.1221V22.9541H32.6494V30H37.1221V29.0527ZM40.1104 28.0322L41.2969 30H42.4639L40.7354 27.3145L42.4834 24.6973H41.3213L40.1543 26.626H40.1299L38.9531 24.6973H37.7666L39.5098 27.3535L37.7471 30H38.8945L40.0859 28.0322H40.1104ZM45.2666 25.4932C46.0381 25.4932 46.5605 26.04 46.585 26.8652H43.8945C43.9531 26.0498 44.5049 25.4932 45.2666 25.4932ZM46.5801 28.4473C46.4336 28.9111 45.9502 29.2041 45.335 29.2041C44.4658 29.2041 43.8896 28.5986 43.8896 27.6807V27.6172H47.6445V27.2461C47.6445 25.6396 46.7266 24.6289 45.2715 24.6289C43.7871 24.6289 42.8203 25.708 42.8203 27.3682C42.8203 29.0283 43.7773 30.0635 45.3154 30.0635C46.5068 30.0635 47.4395 29.3994 47.5908 28.4473H46.5801ZM53.0303 26.5088C52.9375 25.4883 52.0977 24.6289 50.7451 24.6289C49.2461 24.6289 48.2598 25.6982 48.2598 27.3486C48.2598 29.0283 49.251 30.0635 50.7549 30.0635C52.0293 30.0635 52.918 29.3262 53.04 28.2178H52.0293C51.9023 28.8379 51.4482 29.1748 50.7598 29.1748C49.9102 29.1748 49.334 28.4912 49.334 27.3486C49.334 26.2354 49.9004 25.5225 50.7549 25.5225C51.4824 25.5225 51.9219 25.9473 52.0195 26.5088H53.0303ZM58.3428 24.6973H57.2832V27.7539C57.2832 28.5938 56.7998 29.1455 56.0088 29.1455C55.2422 29.1455 54.8564 28.7109 54.8564 27.8955V24.6973H53.7969V28.0957C53.7969 29.3115 54.5 30.0586 55.6572 30.0586C56.4678 30.0586 57.0049 29.7217 57.3125 29.0918H57.332V30H58.3428V24.6973ZM59.7441 23.5059V24.6973H59.0117V25.5322H59.7441V28.6035C59.7441 29.6289 60.1543 30.0342 61.2139 30.0342C61.4434 30.0342 61.6924 30.0098 61.8096 29.9805V29.1455C61.7412 29.1553 61.5605 29.1699 61.4482 29.1699C61.0039 29.1699 60.7988 28.9551 60.7988 28.4961V25.5322H61.8145V24.6973H60.7988V23.5059H59.7441ZM62.7471 30H63.8066V24.6973H62.7471V30ZM63.2793 23.9404C63.6211 23.9404 63.8994 23.667 63.8994 23.3301C63.8994 22.9834 63.6211 22.7197 63.2793 22.7197C62.9375 22.7197 62.6592 22.9834 62.6592 23.3301C62.6592 23.667 62.9375 23.9404 63.2793 23.9404ZM69.4365 24.6973H68.3379L66.9805 28.9551H66.9561L65.6035 24.6973H64.4854L66.3994 30H67.5273L69.4365 24.6973ZM72.1318 25.4932C72.9033 25.4932 73.4258 26.04 73.4502 26.8652H70.7598C70.8184 26.0498 71.3701 25.4932 72.1318 25.4932ZM73.4453 28.4473C73.2988 28.9111 72.8154 29.2041 72.2002 29.2041C71.3311 29.2041 70.7549 28.5986 70.7549 27.6807V27.6172H74.5098V27.2461C74.5098 25.6396 73.5918 24.6289 72.1367 24.6289C70.6523 24.6289 69.6855 25.708 69.6855 27.3682C69.6855 29.0283 70.6426 30.0635 72.1807 30.0635C73.3721 30.0635 74.3047 29.3994 74.4561 28.4473H73.4453ZM82.249 29.0527H78.8701V26.8652H82.0684V25.957H78.8701V23.8965H82.249V22.9541H77.7764V30H82.249V29.0527ZM85.2373 28.0322L86.4238 30H87.5908L85.8623 27.3145L87.6104 24.6973H86.4482L85.2812 26.626H85.2568L84.0801 24.6973H82.8936L84.6367 27.3535L82.874 30H84.0215L85.2129 28.0322H85.2373ZM91.0381 24.6436C90.3008 24.6436 89.6465 25.0049 89.3486 25.5762H89.3242V24.6973H88.3037V31.7578H89.3633V29.1309H89.3828C89.7002 29.7168 90.3008 30.0537 91.0625 30.0537C92.3955 30.0537 93.2793 28.9893 93.2793 27.3486C93.2793 25.7031 92.3906 24.6436 91.0381 24.6436ZM90.7695 29.1553C89.9248 29.1553 89.3584 28.4326 89.3535 27.3486C89.3584 26.2695 89.9297 25.542 90.7695 25.542C91.6289 25.542 92.1953 26.2549 92.1953 27.3486C92.1953 28.4473 91.6289 29.1553 90.7695 29.1553ZM96.3311 25.4932C97.1025 25.4932 97.625 26.04 97.6494 26.8652H94.959C95.0176 26.0498 95.5693 25.4932 96.3311 25.4932ZM97.6445 28.4473C97.498 28.9111 97.0146 29.2041 96.3994 29.2041C95.5303 29.2041 94.9541 28.5986 94.9541 27.6807V27.6172H98.709V27.2461C98.709 25.6396 97.791 24.6289 96.3359 24.6289C94.8516 24.6289 93.8848 25.708 93.8848 27.3682C93.8848 29.0283 94.8418 30.0635 96.3799 30.0635C97.5713 30.0635 98.5039 29.3994 98.6553 28.4473H97.6445ZM99.5635 30H100.623V26.8359C100.623 26.0889 101.062 25.6055 101.761 25.6055C101.971 25.6055 102.156 25.6348 102.244 25.6689V24.6777C102.161 24.6582 102.029 24.6436 101.873 24.6436C101.248 24.6436 100.76 25 100.594 25.5908H100.574V24.6973H99.5635V30ZM102.962 30H104.021V24.6973H102.962V30ZM103.494 23.9404C103.836 23.9404 104.114 23.667 104.114 23.3301C104.114 22.9834 103.836 22.7197 103.494 22.7197C103.152 22.7197 102.874 22.9834 102.874 23.3301C102.874 23.667 103.152 23.9404 103.494 23.9404ZM107.356 25.4932C108.128 25.4932 108.65 26.04 108.675 26.8652H105.984C106.043 26.0498 106.595 25.4932 107.356 25.4932ZM108.67 28.4473C108.523 28.9111 108.04 29.2041 107.425 29.2041C106.556 29.2041 105.979 28.5986 105.979 27.6807V27.6172H109.734V27.2461C109.734 25.6396 108.816 24.6289 107.361 24.6289C105.877 24.6289 104.91 25.708 104.91 27.3682C104.91 29.0283 105.867 30.0635 107.405 30.0635C108.597 30.0635 109.529 29.3994 109.681 28.4473H108.67ZM110.589 30H111.648V26.9385C111.648 26.1035 112.127 25.5469 112.928 25.5469C113.704 25.5469 114.075 25.9961 114.075 26.8018V30H115.135V26.6016C115.135 25.3809 114.466 24.6387 113.294 24.6387C112.474 24.6387 111.941 24.9658 111.619 25.5908H111.6V24.6973H110.589V30ZM120.726 26.5088C120.633 25.4883 119.793 24.6289 118.44 24.6289C116.941 24.6289 115.955 25.6982 115.955 27.3486C115.955 29.0283 116.946 30.0635 118.45 30.0635C119.725 30.0635 120.613 29.3262 120.735 28.2178H119.725C119.598 28.8379 119.144 29.1748 118.455 29.1748C117.605 29.1748 117.029 28.4912 117.029 27.3486C117.029 26.2354 117.596 25.5225 118.45 25.5225C119.178 25.5225 119.617 25.9473 119.715 26.5088H120.726ZM123.724 25.4932C124.495 25.4932 125.018 26.04 125.042 26.8652H122.352C122.41 26.0498 122.962 25.4932 123.724 25.4932ZM125.037 28.4473C124.891 28.9111 124.407 29.2041 123.792 29.2041C122.923 29.2041 122.347 28.5986 122.347 27.6807V27.6172H126.102V27.2461C126.102 25.6396 125.184 24.6289 123.729 24.6289C122.244 24.6289 121.277 25.708 121.277 27.3682C121.277 29.0283 122.234 30.0635 123.772 30.0635C124.964 30.0635 125.896 29.3994 126.048 28.4473H125.037Z" fill="white"/>
</svg>
