<svg width="217" height="182" viewBox="0 0 217 182" fill="none" xmlns="http://www.w3.org/2000/svg">
<rect width="217" height="182" rx="10" fill="white"/>
<path d="M26.0312 27V17.6719H29.3359V15.7266H20.375V17.6719H23.6719V27H26.0312ZM29.8047 27H32.0859V22.1875C32.0859 20.9844 32.7656 20.2656 33.9219 20.2656C34.2578 20.2656 34.5703 20.3203 34.7656 20.3984V18.3828C34.6016 18.3281 34.3672 18.2969 34.1016 18.2969C33.0859 18.2969 32.3438 18.875 32.0547 19.9375H32.0078V18.3984H29.8047V27ZM38.8281 25.4375C38 25.4375 37.4609 25.0391 37.4609 24.4062C37.4609 23.7734 37.9688 23.3984 38.9219 23.3359L40.7266 23.2109V23.8438C40.7266 24.7812 39.8828 25.4375 38.8281 25.4375ZM38.0859 27.1016C39.1875 27.1016 40.25 26.5703 40.7188 25.6719H40.7656V27H42.9688V21.1016C42.9688 19.3828 41.5234 18.25 39.3125 18.25C37.1641 18.25 35.6797 19.3828 35.6172 21.0234H37.7031C37.8125 20.3984 38.3906 19.9609 39.2188 19.9609C40.1562 19.9609 40.7266 20.4141 40.7266 21.2422V21.8125L38.5781 21.9453C36.3828 22.0781 35.1875 22.9609 35.1875 24.5234C35.1875 26.0625 36.4297 27.1016 38.0859 27.1016ZM52.2656 18.3984H49.8828L48.0625 24.9609H48.0156L46.1875 18.3984H43.75L46.7344 27H49.2969L52.2656 18.3984ZM56.7031 19.9531C57.7578 19.9531 58.4922 20.6875 58.5312 21.8125H54.8203C54.8984 20.7109 55.6641 19.9531 56.7031 19.9531ZM58.5625 24.375C58.3438 25.0391 57.6641 25.4453 56.8047 25.4453C55.6016 25.4453 54.7969 24.6094 54.7969 23.3672V23.2266H60.7344V22.5234C60.7344 19.9062 59.1562 18.25 56.6797 18.25C54.1562 18.25 52.5469 20 52.5469 22.7344C52.5469 25.4688 54.1484 27.1484 56.7656 27.1484C58.8594 27.1484 60.4141 26.0391 60.6641 24.375H58.5625ZM62.0234 27H64.3047V15.1875H62.0234V27ZM74.6016 15.5312C71.2578 15.5312 69.1641 17.7734 69.1641 21.3672C69.1641 24.9531 71.2578 27.1953 74.6016 27.1953C77.9375 27.1953 80.0391 24.9531 80.0391 21.3672C80.0391 17.7734 77.9375 15.5312 74.6016 15.5312ZM74.6016 17.5C76.4453 17.5 77.625 19 77.625 21.3672C77.625 23.7266 76.4453 25.2188 74.6016 25.2188C72.75 25.2188 71.5703 23.7266 71.5703 21.3672C71.5703 19 72.7578 17.5 74.6016 17.5ZM89.2031 18.3984H86.8203L85 24.9609H84.9531L83.125 18.3984H80.6875L83.6719 27H86.2344L89.2031 18.3984ZM93.6406 19.9531C94.6953 19.9531 95.4297 20.6875 95.4688 21.8125H91.7578C91.8359 20.7109 92.6016 19.9531 93.6406 19.9531ZM95.5 24.375C95.2812 25.0391 94.6016 25.4453 93.7422 25.4453C92.5391 25.4453 91.7344 24.6094 91.7344 23.3672V23.2266H97.6719V22.5234C97.6719 19.9062 96.0938 18.25 93.6172 18.25C91.0938 18.25 89.4844 20 89.4844 22.7344C89.4844 25.4688 91.0859 27.1484 93.7031 27.1484C95.7969 27.1484 97.3516 26.0391 97.6016 24.375H95.5ZM98.8984 27H101.18V22.1875C101.18 20.9844 101.859 20.2656 103.016 20.2656C103.352 20.2656 103.664 20.3203 103.859 20.3984V18.3828C103.695 18.3281 103.461 18.2969 103.195 18.2969C102.18 18.2969 101.438 18.875 101.148 19.9375H101.102V18.3984H98.8984V27ZM112.641 18.3984H110.258L108.438 24.9609H108.391L106.562 18.3984H104.125L107.109 27H109.672L112.641 18.3984ZM113.516 27H115.797V18.3984H113.516V27ZM114.656 17.4609C115.336 17.4609 115.891 16.9453 115.891 16.2656C115.891 15.5859 115.336 15.0781 114.656 15.0781C113.984 15.0781 113.43 15.5859 113.43 16.2656C113.43 16.9453 113.984 17.4609 114.656 17.4609ZM121.219 19.9531C122.273 19.9531 123.008 20.6875 123.047 21.8125H119.336C119.414 20.7109 120.18 19.9531 121.219 19.9531ZM123.078 24.375C122.859 25.0391 122.18 25.4453 121.32 25.4453C120.117 25.4453 119.312 24.6094 119.312 23.3672V23.2266H125.25V22.5234C125.25 19.9062 123.672 18.25 121.195 18.25C118.672 18.25 117.062 20 117.062 22.7344C117.062 25.4688 118.664 27.1484 121.281 27.1484C123.375 27.1484 124.93 26.0391 125.18 24.375H123.078ZM138.422 18.3984H136.172L134.836 24.8203H134.789L133.227 18.3984H131.039L129.484 24.8203H129.438L128.109 18.3984H125.812L128.109 27H130.508L132.078 20.875H132.125L133.711 27H136.133L138.422 18.3984Z" fill="#243256"/>
<path d="M24.1953 153V145.617H24.2656L29.5391 153H31.4922V141.727H29.2344V149.07H29.1719L23.9062 141.727H21.9375V153H24.1953ZM35.9766 148.078H37.3672C38.6406 148.078 39.4141 148.703 39.4141 149.734C39.4141 150.688 38.5859 151.352 37.4062 151.352C36.1641 151.352 35.3828 150.727 35.3125 149.773H33.0547C33.1641 151.852 34.8281 153.25 37.375 153.25C39.9766 153.25 41.8125 151.906 41.8125 149.883C41.8125 148.32 40.7266 147.305 39.0469 147.164V147.117C40.4297 146.867 41.375 145.867 41.375 144.484C41.375 142.68 39.7734 141.477 37.4297 141.477C34.9844 141.477 33.3594 142.836 33.2734 144.922H35.4453C35.5078 143.938 36.2344 143.289 37.3281 143.289C38.5 143.289 39.1484 143.891 39.1484 144.805C39.1484 145.734 38.4219 146.375 37.3438 146.375H35.9766V148.078ZM47.6484 153.25C50.2344 153.25 52 151.625 52 149.234C52 147.039 50.4531 145.453 48.2969 145.453C47.1484 145.453 46.25 145.93 45.7891 146.688H45.7422L46 143.602H51.3203V141.727H44.1484L43.5938 148.211H45.7031C46.0938 147.562 46.8281 147.172 47.6797 147.172C48.8984 147.172 49.75 148.047 49.75 149.297C49.75 150.523 48.8984 151.383 47.6641 151.383C46.5703 151.383 45.7266 150.727 45.5938 149.773H43.4141C43.4844 151.812 45.2266 153.25 47.6484 153.25ZM57.7266 153.25C60.5625 153.25 62.2812 150.977 62.2812 147.336C62.2812 143.695 60.5469 141.469 57.7266 141.469C54.9062 141.469 53.1641 143.703 53.1641 147.344C53.1641 150.992 54.8906 153.25 57.7266 153.25ZM57.7266 151.359C56.3828 151.359 55.5625 149.906 55.5625 147.344C55.5625 144.805 56.3984 143.359 57.7266 143.359C59.0625 143.359 59.8828 144.797 59.8828 147.344C59.8828 149.914 59.0703 151.359 57.7266 151.359ZM64.9531 155.117L66.0234 150.891H63.875L63.2266 155.117H64.9531ZM71.9766 153.25C74.8125 153.25 76.5312 150.977 76.5312 147.336C76.5312 143.695 74.7969 141.469 71.9766 141.469C69.1562 141.469 67.4141 143.703 67.4141 147.344C67.4141 150.992 69.1406 153.25 71.9766 153.25ZM71.9766 151.359C70.6328 151.359 69.8125 149.906 69.8125 147.344C69.8125 144.805 70.6484 143.359 71.9766 143.359C73.3125 143.359 74.1328 144.797 74.1328 147.344C74.1328 149.914 73.3203 151.359 71.9766 151.359ZM82.3984 153.25C85.2344 153.25 86.9531 150.977 86.9531 147.336C86.9531 143.695 85.2188 141.469 82.3984 141.469C79.5781 141.469 77.8359 143.703 77.8359 147.344C77.8359 150.992 79.5625 153.25 82.3984 153.25ZM82.3984 151.359C81.0547 151.359 80.2344 149.906 80.2344 147.344C80.2344 144.805 81.0703 143.359 82.3984 143.359C83.7344 143.359 84.5547 144.797 84.5547 147.344C84.5547 149.914 83.7422 151.359 82.3984 151.359ZM92.8203 153.25C95.6562 153.25 97.375 150.977 97.375 147.336C97.375 143.695 95.6406 141.469 92.8203 141.469C90 141.469 88.2578 143.703 88.2578 147.344C88.2578 150.992 89.9844 153.25 92.8203 153.25ZM92.8203 151.359C91.4766 151.359 90.6562 149.906 90.6562 147.344C90.6562 144.805 91.4922 143.359 92.8203 143.359C94.1562 143.359 94.9766 144.797 94.9766 147.344C94.9766 149.914 94.1641 151.359 92.8203 151.359Z" fill="#243256"/>
<path d="M55.7432 69V66.0508H58.7705V65.1279H55.7432V62.8965H59.0488V61.9541H54.6494V69H55.7432ZM59.9375 69H60.9971V61.6367H59.9375V69ZM62.1689 69H63.2285V63.6973H62.1689V69ZM62.7012 62.9404C63.043 62.9404 63.3213 62.667 63.3213 62.3301C63.3213 61.9834 63.043 61.7197 62.7012 61.7197C62.3594 61.7197 62.0811 61.9834 62.0811 62.3301C62.0811 62.667 62.3594 62.9404 62.7012 62.9404ZM66.6074 68.1064C65.7529 68.1064 65.2012 67.418 65.2012 66.334C65.2012 65.2451 65.7529 64.542 66.6074 64.542C67.4668 64.542 68.0381 65.2598 68.0381 66.334C68.0381 67.4033 67.4668 68.1064 66.6074 68.1064ZM66.6123 70.9092C68.1406 70.9092 69.0928 70.1279 69.0928 68.8633V63.6973H68.0674V64.5762H68.0479C67.7207 63.9902 67.1055 63.6436 66.3535 63.6436C64.9961 63.6436 64.1172 64.6934 64.1172 66.3291C64.1172 67.9453 65.0059 68.9854 66.3291 68.9854C67.0811 68.9854 67.7061 68.6436 68.0137 68.0723H68.0381V68.9463C68.0381 69.6396 67.4961 70.0791 66.6562 70.0791C66.0068 70.0791 65.5137 69.8203 65.3965 69.4102H64.3271C64.4297 70.3184 65.3379 70.9092 66.6123 70.9092ZM70.2207 69H71.2803V65.9629C71.2803 65.1133 71.7783 64.5469 72.6035 64.5469C73.3799 64.5469 73.7754 65.0254 73.7754 65.8164V69H74.835V65.6113C74.835 64.415 74.1367 63.6387 72.9697 63.6387C72.1592 63.6387 71.6123 63.9658 71.2949 64.5908H71.2705V61.6367H70.2207V69ZM76.2168 62.5059V63.6973H75.4844V64.5322H76.2168V67.6035C76.2168 68.6289 76.627 69.0342 77.6865 69.0342C77.916 69.0342 78.165 69.0098 78.2822 68.9805V68.1455C78.2139 68.1553 78.0332 68.1699 77.9209 68.1699C77.4766 68.1699 77.2715 67.9551 77.2715 67.4961V64.5322H78.2871V63.6973H77.2715V62.5059H76.2168ZM79.0928 65.2061C79.0928 65.9385 79.5664 66.4268 80.5234 66.6611L81.4707 66.8955C82.0273 67.0371 82.2373 67.2129 82.2373 67.5498C82.2373 67.9795 81.8223 68.2529 81.1631 68.2529C80.4893 68.2529 80.0791 67.9746 79.9961 67.4668H78.9512C79.0293 68.4238 79.874 69.0635 81.1094 69.0635C82.3936 69.0635 83.292 68.4092 83.292 67.4619C83.292 66.6807 82.8965 66.2949 81.8271 66.0361L80.9482 65.8262C80.3867 65.6895 80.123 65.4697 80.123 65.1475C80.123 64.7275 80.5234 64.4492 81.124 64.4492C81.7295 64.4492 82.1348 64.7422 82.1787 65.2109H83.1748C83.1504 64.2881 82.3105 63.6338 81.1484 63.6338C79.9277 63.6338 79.0928 64.2734 79.0928 65.2061Z" fill="#0E51FF"/>
<path d="M60.4551 103V95.9541H59.3613V98.9326H55.7432V95.9541H54.6494V103H55.7432V99.8799H59.3613V103H60.4551ZM63.9121 103.063C65.4453 103.063 66.417 102.019 66.417 100.349C66.417 98.6787 65.4404 97.6289 63.9121 97.6289C62.3838 97.6289 61.4023 98.6836 61.4023 100.349C61.4023 102.019 62.3789 103.063 63.9121 103.063ZM63.9121 102.185C63.0137 102.185 62.4766 101.506 62.4766 100.349C62.4766 99.1963 63.0137 98.5078 63.9121 98.5078C64.8105 98.5078 65.3428 99.1914 65.3428 100.349C65.3428 101.506 64.8105 102.185 63.9121 102.185ZM67.584 96.5059V97.6973H66.8516V98.5322H67.584V101.604C67.584 102.629 67.9941 103.034 69.0537 103.034C69.2832 103.034 69.5322 103.01 69.6494 102.98V102.146C69.5811 102.155 69.4004 102.17 69.2881 102.17C68.8438 102.17 68.6387 101.955 68.6387 101.496V98.5322H69.6543V97.6973H68.6387V96.5059H67.584ZM72.6279 98.4932C73.3994 98.4932 73.9219 99.04 73.9463 99.8652H71.2559C71.3145 99.0498 71.8662 98.4932 72.6279 98.4932ZM73.9414 101.447C73.7949 101.911 73.3115 102.204 72.6963 102.204C71.8271 102.204 71.251 101.599 71.251 100.681V100.617H75.0059V100.246C75.0059 98.6396 74.0879 97.6289 72.6328 97.6289C71.1484 97.6289 70.1816 98.708 70.1816 100.368C70.1816 102.028 71.1387 103.063 72.6768 103.063C73.8682 103.063 74.8008 102.399 74.9521 101.447H73.9414ZM75.9043 103H76.9639V95.6367H75.9043V103ZM78.4775 104.543L80.6064 95.9492H79.6592L77.5547 104.543H78.4775ZM85.4111 103H86.5684L84.0244 95.9541H82.8428L80.2988 103H81.4365L82.0811 101.096H84.7666L85.4111 103ZM83.4092 97.126H83.4385L84.4883 100.217H82.3594L83.4092 97.126ZM91.6318 99.5088C91.5391 98.4883 90.6992 97.6289 89.3467 97.6289C87.8477 97.6289 86.8613 98.6982 86.8613 100.349C86.8613 102.028 87.8525 103.063 89.3564 103.063C90.6309 103.063 91.5195 102.326 91.6416 101.218H90.6309C90.5039 101.838 90.0498 102.175 89.3613 102.175C88.5117 102.175 87.9355 101.491 87.9355 100.349C87.9355 99.2354 88.502 98.5225 89.3564 98.5225C90.084 98.5225 90.5234 98.9473 90.6211 99.5088H91.6318ZM96.9541 99.5088C96.8613 98.4883 96.0215 97.6289 94.6689 97.6289C93.1699 97.6289 92.1836 98.6982 92.1836 100.349C92.1836 102.028 93.1748 103.063 94.6787 103.063C95.9531 103.063 96.8418 102.326 96.9639 101.218H95.9531C95.8262 101.838 95.3721 102.175 94.6836 102.175C93.834 102.175 93.2578 101.491 93.2578 100.349C93.2578 99.2354 93.8242 98.5225 94.6787 98.5225C95.4062 98.5225 95.8457 98.9473 95.9434 99.5088H96.9541ZM100.016 103.063C101.549 103.063 102.521 102.019 102.521 100.349C102.521 98.6787 101.544 97.6289 100.016 97.6289C98.4873 97.6289 97.5059 98.6836 97.5059 100.349C97.5059 102.019 98.4824 103.063 100.016 103.063ZM100.016 102.185C99.1172 102.185 98.5801 101.506 98.5801 100.349C98.5801 99.1963 99.1172 98.5078 100.016 98.5078C100.914 98.5078 101.446 99.1914 101.446 100.349C101.446 101.506 100.914 102.185 100.016 102.185ZM103.37 103H104.43V99.748C104.43 99.0547 104.898 98.5469 105.553 98.5469C106.173 98.5469 106.568 98.9375 106.568 99.5527V103H107.608V99.709C107.608 99.0303 108.067 98.5469 108.717 98.5469C109.376 98.5469 109.752 98.9473 109.752 99.6406V103H110.807V99.3867C110.807 98.3271 110.123 97.6387 109.078 97.6387C108.321 97.6387 107.696 98.0293 107.418 98.6689H107.394C107.179 98.0098 106.646 97.6387 105.909 97.6387C105.216 97.6387 104.645 98 104.4 98.5957H104.381V97.6973H103.37V103ZM111.866 103H112.926V99.748C112.926 99.0547 113.395 98.5469 114.049 98.5469C114.669 98.5469 115.064 98.9375 115.064 99.5527V103H116.104V99.709C116.104 99.0303 116.563 98.5469 117.213 98.5469C117.872 98.5469 118.248 98.9473 118.248 99.6406V103H119.303V99.3867C119.303 98.3271 118.619 97.6387 117.574 97.6387C116.817 97.6387 116.192 98.0293 115.914 98.6689H115.89C115.675 98.0098 115.143 97.6387 114.405 97.6387C113.712 97.6387 113.141 98 112.896 98.5957H112.877V97.6973H111.866V103ZM122.633 103.063C124.166 103.063 125.138 102.019 125.138 100.349C125.138 98.6787 124.161 97.6289 122.633 97.6289C121.104 97.6289 120.123 98.6836 120.123 100.349C120.123 102.019 121.1 103.063 122.633 103.063ZM122.633 102.185C121.734 102.185 121.197 101.506 121.197 100.349C121.197 99.1963 121.734 98.5078 122.633 98.5078C123.531 98.5078 124.063 99.1914 124.063 100.349C124.063 101.506 123.531 102.185 122.633 102.185ZM127.984 103.054C128.761 103.054 129.366 102.702 129.679 102.102H129.698V103H130.724V95.6367H129.669V98.5762H129.645C129.342 97.9902 128.736 97.6436 127.975 97.6436C126.656 97.6436 125.748 98.7129 125.748 100.344C125.748 101.984 126.656 103.054 127.984 103.054ZM128.253 98.542C129.103 98.542 129.674 99.2695 129.674 100.349C129.674 101.433 129.103 102.155 128.253 102.155C127.394 102.155 126.832 101.447 126.832 100.349C126.832 99.2549 127.398 98.542 128.253 98.542ZM133.688 102.209C133.077 102.209 132.682 101.916 132.682 101.462C132.682 100.993 133.058 100.725 133.78 100.681L135.069 100.593V101.008C135.069 101.706 134.474 102.209 133.688 102.209ZM133.404 103.054C134.127 103.054 134.786 102.692 135.079 102.116H135.104V103H136.114V99.3623C136.114 98.3125 135.279 97.6289 133.985 97.6289C132.794 97.6289 131.905 98.3223 131.876 99.2598H132.867C132.96 98.8008 133.38 98.5029 133.956 98.5029C134.664 98.5029 135.069 98.835 135.069 99.4404V99.8506L133.639 99.9336C132.33 100.017 131.612 100.554 131.612 101.481C131.612 102.429 132.345 103.054 133.404 103.054ZM137.496 96.5059V97.6973H136.764V98.5322H137.496V101.604C137.496 102.629 137.906 103.034 138.966 103.034C139.195 103.034 139.444 103.01 139.562 102.98V102.146C139.493 102.155 139.312 102.17 139.2 102.17C138.756 102.17 138.551 101.955 138.551 101.496V98.5322H139.566V97.6973H138.551V96.5059H137.496ZM140.499 103H141.559V97.6973H140.499V103ZM141.031 96.9404C141.373 96.9404 141.651 96.667 141.651 96.3301C141.651 95.9834 141.373 95.7197 141.031 95.7197C140.689 95.7197 140.411 95.9834 140.411 96.3301C140.411 96.667 140.689 96.9404 141.031 96.9404ZM144.957 103.063C146.49 103.063 147.462 102.019 147.462 100.349C147.462 98.6787 146.485 97.6289 144.957 97.6289C143.429 97.6289 142.447 98.6836 142.447 100.349C142.447 102.019 143.424 103.063 144.957 103.063ZM144.957 102.185C144.059 102.185 143.521 101.506 143.521 100.349C143.521 99.1963 144.059 98.5078 144.957 98.5078C145.855 98.5078 146.388 99.1914 146.388 100.349C146.388 101.506 145.855 102.185 144.957 102.185ZM148.312 103H149.371V99.9385C149.371 99.1035 149.85 98.5469 150.65 98.5469C151.427 98.5469 151.798 98.9961 151.798 99.8018V103H152.857V99.6016C152.857 98.3809 152.188 97.6387 151.017 97.6387C150.196 97.6387 149.664 97.9658 149.342 98.5908H149.322V97.6973H148.312V103Z" fill="#0E51FF"/>
<line x1="21" y1="39.75" x2="196" y2="39.75" stroke="#DADADA" stroke-width="0.5"/>
<path d="M23.8242 137V132.117H25.5781V131.363H21.1914V132.117H22.9492V137H23.8242ZM27.2188 137.051C28.4453 137.051 29.2227 136.215 29.2227 134.879C29.2227 133.543 28.4414 132.703 27.2188 132.703C25.9961 132.703 25.2109 133.547 25.2109 134.879C25.2109 136.215 25.9922 137.051 27.2188 137.051ZM27.2188 136.348C26.5 136.348 26.0703 135.805 26.0703 134.879C26.0703 133.957 26.5 133.406 27.2188 133.406C27.9375 133.406 28.3633 133.953 28.3633 134.879C28.3633 135.805 27.9375 136.348 27.2188 136.348ZM30.1562 131.805V132.758H29.5703V133.426H30.1562V135.883C30.1562 136.703 30.4844 137.027 31.332 137.027C31.5156 137.027 31.7148 137.008 31.8086 136.984V136.316C31.7539 136.324 31.6094 136.336 31.5195 136.336C31.1641 136.336 31 136.164 31 135.797V133.426H31.8125V132.758H31V131.805H30.1562ZM33.9688 136.367C33.4805 136.367 33.1641 136.133 33.1641 135.77C33.1641 135.395 33.4648 135.18 34.043 135.145L35.0742 135.074V135.406C35.0742 135.965 34.5977 136.367 33.9688 136.367ZM33.7422 137.043C34.3203 137.043 34.8477 136.754 35.082 136.293H35.1016V137H35.9102V134.09C35.9102 133.25 35.2422 132.703 34.207 132.703C33.2539 132.703 32.543 133.258 32.5195 134.008H33.3125C33.3867 133.641 33.7227 133.402 34.1836 133.402C34.75 133.402 35.0742 133.668 35.0742 134.152V134.48L33.9297 134.547C32.8828 134.613 32.3086 135.043 32.3086 135.785C32.3086 136.543 32.8945 137.043 33.7422 137.043ZM36.7969 137H37.6445V131.109H36.7969V137ZM40.3242 133.965C40.3242 134.551 40.7031 134.941 41.4688 135.129L42.2266 135.316C42.6719 135.43 42.8398 135.57 42.8398 135.84C42.8398 136.184 42.5078 136.402 41.9805 136.402C41.4414 136.402 41.1133 136.18 41.0469 135.773H40.2109C40.2734 136.539 40.9492 137.051 41.9375 137.051C42.9648 137.051 43.6836 136.527 43.6836 135.77C43.6836 135.145 43.3672 134.836 42.5117 134.629L41.8086 134.461C41.3594 134.352 41.1484 134.176 41.1484 133.918C41.1484 133.582 41.4688 133.359 41.9492 133.359C42.4336 133.359 42.7578 133.594 42.793 133.969H43.5898C43.5703 133.23 42.8984 132.707 41.9688 132.707C40.9922 132.707 40.3242 133.219 40.3242 133.965ZM46.5586 132.715C45.9688 132.715 45.4453 133.004 45.207 133.461H45.1875V132.758H44.3711V138.406H45.2188V136.305H45.2344C45.4883 136.773 45.9688 137.043 46.5781 137.043C47.6445 137.043 48.3516 136.191 48.3516 134.879C48.3516 133.562 47.6406 132.715 46.5586 132.715ZM46.3438 136.324C45.668 136.324 45.2148 135.746 45.2109 134.879C45.2148 134.016 45.6719 133.434 46.3438 133.434C47.0312 133.434 47.4844 134.004 47.4844 134.879C47.4844 135.758 47.0312 136.324 46.3438 136.324ZM50.793 133.395C51.4102 133.395 51.8281 133.832 51.8477 134.492H49.6953C49.7422 133.84 50.1836 133.395 50.793 133.395ZM51.8438 135.758C51.7266 136.129 51.3398 136.363 50.8477 136.363C50.1523 136.363 49.6914 135.879 49.6914 135.145V135.094H52.6953V134.797C52.6953 133.512 51.9609 132.703 50.7969 132.703C49.6094 132.703 48.8359 133.566 48.8359 134.895C48.8359 136.223 49.6016 137.051 50.832 137.051C51.7852 137.051 52.5312 136.52 52.6523 135.758H51.8438ZM53.3789 137H54.2266V134.551C54.2266 133.883 54.6094 133.438 55.25 133.438C55.8711 133.438 56.168 133.797 56.168 134.441V137H57.0156V134.281C57.0156 133.305 56.4805 132.711 55.543 132.711C54.8867 132.711 54.4609 132.973 54.2031 133.473H54.1875V132.758H53.3789V137ZM59.4609 137.043C60.082 137.043 60.5664 136.762 60.8164 136.281H60.832V137H61.6523V131.109H60.8086V133.461H60.7891C60.5469 132.992 60.0625 132.715 59.4531 132.715C58.3984 132.715 57.6719 133.57 57.6719 134.875C57.6719 136.188 58.3984 137.043 59.4609 137.043ZM59.6758 133.434C60.3555 133.434 60.8125 134.016 60.8125 134.879C60.8125 135.746 60.3555 136.324 59.6758 136.324C58.9883 136.324 58.5391 135.758 58.5391 134.879C58.5391 134.004 58.9922 133.434 59.6758 133.434ZM63.168 137.043C63.457 137.043 63.6797 136.816 63.6797 136.531C63.6797 136.242 63.457 136.02 63.168 136.02C62.8828 136.02 62.6562 136.242 62.6562 136.531C62.6562 136.816 62.8828 137.043 63.168 137.043ZM63.168 134.195C63.457 134.195 63.6797 133.973 63.6797 133.684C63.6797 133.395 63.457 133.172 63.168 133.172C62.8828 133.172 62.6562 133.395 62.6562 133.684C62.6562 133.973 62.8828 134.195 63.168 134.195Z" fill="#D8D8D8"/>
<path d="M21.3896 157.772V162H22.9043C24.1641 162 24.9053 161.215 24.9053 159.879C24.9053 158.546 24.1641 157.772 22.9043 157.772H21.3896ZM22.0459 158.338H22.8428C23.7393 158.338 24.2373 158.889 24.2373 159.885C24.2373 160.884 23.7393 161.432 22.8428 161.432H22.0459V158.338ZM25.4912 162H26.127V158.818H25.4912V162ZM25.8105 158.364C26.0156 158.364 26.1826 158.2 26.1826 157.998C26.1826 157.79 26.0156 157.632 25.8105 157.632C25.6055 157.632 25.4385 157.79 25.4385 157.998C25.4385 158.2 25.6055 158.364 25.8105 158.364ZM26.751 159.724C26.751 160.163 27.0352 160.456 27.6094 160.597L28.1777 160.737C28.5117 160.822 28.6377 160.928 28.6377 161.13C28.6377 161.388 28.3887 161.552 27.9932 161.552C27.5889 161.552 27.3428 161.385 27.293 161.08H26.666C26.7129 161.654 27.2197 162.038 27.9609 162.038C28.7314 162.038 29.2705 161.646 29.2705 161.077C29.2705 160.608 29.0332 160.377 28.3916 160.222L27.8643 160.096C27.5273 160.014 27.3691 159.882 27.3691 159.688C27.3691 159.437 27.6094 159.27 27.9697 159.27C28.333 159.27 28.5762 159.445 28.6025 159.727H29.2002C29.1855 159.173 28.6816 158.78 27.9844 158.78C27.252 158.78 26.751 159.164 26.751 159.724ZM32.5049 159.905C32.4492 159.293 31.9453 158.777 31.1338 158.777C30.2344 158.777 29.6426 159.419 29.6426 160.409C29.6426 161.417 30.2373 162.038 31.1396 162.038C31.9043 162.038 32.4375 161.596 32.5107 160.931H31.9043C31.8281 161.303 31.5557 161.505 31.1426 161.505C30.6328 161.505 30.2871 161.095 30.2871 160.409C30.2871 159.741 30.627 159.313 31.1396 159.313C31.5762 159.313 31.8398 159.568 31.8984 159.905H32.5049ZM34.3418 162.038C35.2617 162.038 35.8447 161.411 35.8447 160.409C35.8447 159.407 35.2588 158.777 34.3418 158.777C33.4248 158.777 32.8359 159.41 32.8359 160.409C32.8359 161.411 33.4219 162.038 34.3418 162.038ZM34.3418 161.511C33.8027 161.511 33.4805 161.104 33.4805 160.409C33.4805 159.718 33.8027 159.305 34.3418 159.305C34.8809 159.305 35.2002 159.715 35.2002 160.409C35.2002 161.104 34.8809 161.511 34.3418 161.511ZM39.0674 158.818H38.4316V160.652C38.4316 161.156 38.1416 161.487 37.667 161.487C37.207 161.487 36.9756 161.227 36.9756 160.737V158.818H36.3398V160.857C36.3398 161.587 36.7617 162.035 37.4561 162.035C37.9424 162.035 38.2646 161.833 38.4492 161.455H38.4609V162H39.0674V158.818ZM39.7178 162H40.3535V160.163C40.3535 159.662 40.6406 159.328 41.1211 159.328C41.5869 159.328 41.8096 159.598 41.8096 160.081V162H42.4453V159.961C42.4453 159.229 42.0439 158.783 41.3408 158.783C40.8486 158.783 40.5293 158.979 40.3359 159.354H40.3242V158.818H39.7178V162ZM43.2715 158.104V158.818H42.832V159.319H43.2715V161.162C43.2715 161.777 43.5176 162.021 44.1533 162.021C44.291 162.021 44.4404 162.006 44.5107 161.988V161.487C44.4697 161.493 44.3613 161.502 44.2939 161.502C44.0273 161.502 43.9043 161.373 43.9043 161.098V159.319H44.5137V158.818H43.9043V158.104H43.2715ZM46.2979 159.296C46.7607 159.296 47.0742 159.624 47.0889 160.119H45.4746C45.5098 159.63 45.8408 159.296 46.2979 159.296ZM47.0859 161.068C46.998 161.347 46.708 161.522 46.3389 161.522C45.8174 161.522 45.4717 161.159 45.4717 160.608V160.57H47.7246V160.348C47.7246 159.384 47.1738 158.777 46.3008 158.777C45.4102 158.777 44.8301 159.425 44.8301 160.421C44.8301 161.417 45.4043 162.038 46.3271 162.038C47.042 162.038 47.6016 161.64 47.6924 161.068H47.0859ZM49.4355 162.032C49.9014 162.032 50.2646 161.821 50.4521 161.461H50.4639V162H51.0791V157.582H50.4463V159.346H50.4316C50.25 158.994 49.8867 158.786 49.4297 158.786C48.6387 158.786 48.0938 159.428 48.0938 160.406C48.0938 161.391 48.6387 162.032 49.4355 162.032ZM49.5967 159.325C50.1064 159.325 50.4492 159.762 50.4492 160.409C50.4492 161.06 50.1064 161.493 49.5967 161.493C49.0811 161.493 48.7441 161.068 48.7441 160.409C48.7441 159.753 49.084 159.325 49.5967 159.325ZM54.6475 162.812C54.3369 162.275 53.9268 161.505 53.9268 160.239C53.9268 158.965 54.3779 158.101 54.6562 157.775H54.0996C53.6865 158.297 53.2793 158.95 53.2793 160.245C53.2793 161.537 53.71 162.363 54.0703 162.812H54.6475ZM56.5986 162.079C57.5098 162.079 58.1484 161.479 58.1484 160.611C58.1484 159.791 57.5654 159.196 56.7539 159.196C56.3408 159.196 55.9951 159.357 55.8105 159.624H55.7959L55.9131 158.326H57.9023V157.772H55.3857L55.1631 160.163H55.7637C55.9277 159.885 56.2441 159.718 56.6104 159.718C57.1377 159.718 57.5068 160.099 57.5068 160.629C57.5068 161.159 57.1377 161.531 56.6045 161.531C56.1328 161.531 55.7725 161.244 55.7256 160.825H55.0986C55.1367 161.563 55.7549 162.079 56.5986 162.079ZM62.748 160.983C62.748 160.333 62.3936 159.917 61.8369 159.917C61.2803 159.917 60.9199 160.336 60.9199 160.983C60.9199 161.634 61.2803 162.053 61.8369 162.053C62.3906 162.053 62.748 161.634 62.748 160.983ZM61.8369 161.64C61.6025 161.64 61.4561 161.385 61.4561 160.983C61.4561 160.582 61.6025 160.333 61.8369 160.333C62.0742 160.333 62.2119 160.573 62.2119 160.983C62.2119 161.388 62.0684 161.64 61.8369 161.64ZM60.3223 158.763C60.3223 158.112 59.9678 157.696 59.4111 157.696C58.8545 157.696 58.4941 158.115 58.4941 158.763C58.4941 159.413 58.8545 159.832 59.4111 159.832C59.9648 159.832 60.3223 159.413 60.3223 158.763ZM59.4111 159.419C59.1768 159.419 59.0303 159.164 59.0303 158.763C59.0303 158.361 59.1768 158.112 59.4111 158.112C59.6484 158.112 59.7861 158.353 59.7861 158.763C59.7861 159.167 59.6426 159.419 59.4111 159.419ZM59.3643 162L62.4492 157.772H61.8574L58.7666 162H59.3643ZM62.9971 162.812H63.5742C63.9346 162.363 64.3682 161.537 64.3682 160.245C64.3682 158.95 63.958 158.3 63.5479 157.775H62.9912C63.2725 158.101 63.7148 158.968 63.7148 160.239C63.7148 161.505 63.3076 162.275 62.9971 162.812Z" fill="#C8E3D5"/>
<path d="M187 62H178L182.5 67L187 62Z" fill="#243256"/>
<path d="M187 99H178L182.5 104L187 99Z" fill="#243256"/>
<circle cx="31.5" cy="64.5" r="10.5" fill="#F0F6FF"/>
<g clip-path="url(#clip0_10_44)">
<path d="M34.3537 68.6809C34.4214 68.5938 34.4678 68.4922 34.4894 68.3841C34.5109 68.276 34.5071 68.1643 34.478 68.058L34.3123 67.0791C34.4093 67.0169 34.4994 66.9444 34.5808 66.8628C34.7265 66.725 34.8383 66.5554 34.9076 66.3672C34.8464 66.3331 34.7901 66.2908 34.7404 66.2414C34.6906 66.192 34.6482 66.1357 34.6146 66.0742C34.4551 66.1307 34.3093 66.2201 34.1865 66.3365L34.0239 65.3822C34.1451 65.313 34.2561 65.2273 34.3537 65.1275C34.4998 64.9897 34.6121 64.8202 34.6821 64.6319C34.6208 64.5978 34.5646 64.5555 34.5148 64.5061C34.4646 64.4572 34.4221 64.4008 34.389 64.3389C34.2042 64.4059 34.0372 64.5146 33.9011 64.6565L33.6986 63.4582C34.7618 62.3045 35.5796 61.3103 35.5796 61.3103C36.2731 60.5109 35.9003 60.1013 35.9003 60.1013C35.9003 60.1013 35.4906 59.7284 34.6913 60.4219C34.6913 60.4219 33.6955 61.2397 32.5433 62.3029L31.345 62.1004C31.4869 61.9643 31.5956 61.7974 31.6626 61.6125C31.6008 61.5794 31.5444 61.537 31.4954 61.4867C31.446 61.437 31.4037 61.3807 31.3696 61.3195C31.1814 61.3894 31.0118 61.5017 30.874 61.6478C30.7742 61.7454 30.6885 61.8564 30.6193 61.9777L29.665 61.815C29.781 61.6919 29.8704 61.5462 29.9274 61.387C29.8655 61.3539 29.8091 61.3114 29.7602 61.2612C29.7108 61.2114 29.6684 61.1552 29.6343 61.0939C29.4462 61.1632 29.2766 61.2751 29.1388 61.4207C29.0572 61.5022 28.9846 61.5922 28.9224 61.6892L27.9436 61.5235C27.8372 61.4945 27.7256 61.4906 27.6175 61.5122C27.5093 61.5337 27.4077 61.5802 27.3207 61.6478C27.0552 61.8779 26.9126 62.0206 27.2317 62.3045L30.7451 64.0689C29.996 64.8685 29.2917 65.7091 28.6355 66.5866L27.1013 66.4823L26.9985 66.8351L28.2949 67.7051L29.1649 69.0015L29.5177 68.8987L29.4149 67.3645C30.2918 66.708 31.1318 66.0037 31.9311 65.2549L33.6955 68.7668C33.9809 69.089 34.1236 68.9463 34.3537 68.6809Z" fill="#FF0000"/>
</g>
<circle cx="31.5" cy="99.5" r="10.5" fill="#F0F6FF"/>
<g clip-path="url(#clip1_10_44)">
<path d="M36.7885 103.662L36.4326 99.9055H36.7253V98.492H36.2559V98.8718H35.8845V98.492H35.4756V98.8927H35.1622V98.492H34.7509V98.8718H34.3794V98.492H33.91V99.4993H33.5231V99.1445H33.1723L33.0433 96.4246H33.1375V96.4135H33.4315V95H32.9621V95.3798H32.5907V95H32.1793V95.4007H31.8646V95H31.4532V95.3798H31.0818V95H30.6123V96.4135H30.9051V96.4246H31.0263L30.887 99.3212V99.1445H30.5182V99.4993H30.0991V98.492H29.6296V98.8718H29.2582V98.492H28.8468V98.8927H28.5334V98.492H28.1233V98.8718H27.7519V98.492H27.2824V99.9055H27.5752L27.2192 103.662H27.0078V103.996H37.0078V103.662H36.7885ZM28.5115 100.868C28.5115 100.818 28.5298 100.771 28.5625 100.735C28.5951 100.7 28.6394 100.68 28.6856 100.68C28.7318 100.68 28.776 100.7 28.8087 100.735C28.8413 100.771 28.8597 100.818 28.8597 100.868V101.359H28.5115V100.868ZM28.9371 103.578H28.4277V102.861C28.4373 102.795 28.4683 102.736 28.515 102.693C28.5617 102.65 28.621 102.626 28.6824 102.626C28.7437 102.626 28.8031 102.65 28.8498 102.693C28.8964 102.736 28.9274 102.795 28.9371 102.861V103.578ZM32.2012 98.0399H31.853V97.5488C31.853 97.4989 31.8713 97.4512 31.904 97.416C31.9366 97.3807 31.9809 97.3609 32.0271 97.3609C32.0733 97.3609 32.1176 97.3807 32.1502 97.416C32.1829 97.4512 32.2012 97.4989 32.2012 97.5488V98.0399ZM32.6784 103.562H31.359V101.8H32.6784V103.562ZM34.1873 100.063V99.9055H34.2027L34.1873 100.063ZM35.1429 100.868C35.1429 100.818 35.1613 100.771 35.1939 100.735C35.2266 100.7 35.2708 100.68 35.317 100.68C35.3632 100.68 35.4075 100.7 35.4401 100.735C35.4728 100.771 35.4911 100.818 35.4911 100.868V101.359H35.1429V100.868ZM35.5724 103.578H35.0565V102.861C35.0565 102.787 35.0837 102.716 35.1321 102.664C35.1804 102.612 35.246 102.582 35.3144 102.582C35.3828 102.582 35.4484 102.612 35.4968 102.664C35.5452 102.716 35.5724 102.787 35.5724 102.861V103.578Z" fill="#FF0000"/>
</g>
<defs>
<clipPath id="clip0_10_44">
<rect width="9" height="9" fill="white" transform="translate(27 60)"/>
</clipPath>
<clipPath id="clip1_10_44">
<rect width="10" height="9" fill="white" transform="translate(27 95)"/>
</clipPath>
</defs>
</svg>
