<svg width="322" height="442" viewBox="0 0 322 442" fill="none" xmlns="http://www.w3.org/2000/svg">
<rect width="322" height="442" rx="10" fill="white"/>
<rect width="322" height="40" fill="#C8E3D5"/>
<path d="M23.2969 17.5703H25.3438C26.5156 17.5703 27.25 18.2734 27.25 19.3672C27.25 20.4844 26.5547 21.1641 25.3672 21.1641H23.2969V17.5703ZM23.2969 22.875H25.2266L27.3281 27H30L27.625 22.5234C28.9219 22.0156 29.6719 20.7656 29.6719 19.3203C29.6719 17.0938 28.1875 15.7266 25.5938 15.7266H20.9375V27H23.2969V22.875ZM34.8125 19.9531C35.8672 19.9531 36.6016 20.6875 36.6406 21.8125H32.9297C33.0078 20.7109 33.7734 19.9531 34.8125 19.9531ZM36.6719 24.375C36.4531 25.0391 35.7734 25.4453 34.9141 25.4453C33.7109 25.4453 32.9062 24.6094 32.9062 23.3672V23.2266H38.8438V22.5234C38.8438 19.9062 37.2656 18.25 34.7891 18.25C32.2656 18.25 30.6562 20 30.6562 22.7344C30.6562 25.4688 32.2578 27.1484 34.875 27.1484C36.9688 27.1484 38.5234 26.0391 38.7734 24.375H36.6719ZM45.0391 18.2969C43.8281 18.2969 42.8203 18.8984 42.3672 19.8672H42.3203V18.3984H40.0703V29.8125H42.3516V25.5547H42.3984C42.8672 26.5312 43.8281 27.1016 45.0703 27.1016C47.2266 27.1016 48.5703 25.4297 48.5703 22.6953C48.5703 19.9609 47.2188 18.2969 45.0391 18.2969ZM44.2812 25.2578C43.1172 25.2578 42.3438 24.25 42.3438 22.7031C42.3438 21.1641 43.1172 20.1406 44.2812 20.1406C45.4609 20.1406 46.2344 21.1484 46.2344 22.6953C46.2344 24.2578 45.4609 25.2578 44.2812 25.2578ZM53.7109 27.1484C56.3203 27.1484 57.9531 25.4844 57.9531 22.6953C57.9531 19.9375 56.3047 18.25 53.7109 18.25C51.125 18.25 49.4688 19.9453 49.4688 22.6953C49.4688 25.4766 51.1016 27.1484 53.7109 27.1484ZM53.7109 25.3906C52.5078 25.3906 51.7812 24.4062 51.7812 22.6953C51.7812 21.0078 52.5078 20 53.7109 20C54.9062 20 55.6328 21 55.6328 22.6953C55.6328 24.4062 54.9141 25.3906 53.7109 25.3906ZM59.1797 27H61.4609V22.1875C61.4609 20.9844 62.1406 20.2656 63.2969 20.2656C63.6328 20.2656 63.9453 20.3203 64.1406 20.3984V18.3828C63.9766 18.3281 63.7422 18.2969 63.4766 18.2969C62.4609 18.2969 61.7188 18.875 61.4297 19.9375H61.3828V18.3984H59.1797V27ZM65.7266 16.4844V18.3984H64.5625V20.125H65.7266V24.6797C65.7266 26.3594 66.5078 27.0312 68.5 27.0312C68.9609 27.0312 69.3672 26.9844 69.6016 26.9375V25.25C69.4609 25.2734 69.2344 25.2891 69.0312 25.2891C68.3359 25.2891 68.0078 24.9688 68.0078 24.3047V20.125H69.6016V18.3984H68.0078V16.4844H65.7266ZM70.9531 27H73.2344V18.3984H70.9531V27ZM72.0938 17.4609C72.7734 17.4609 73.3281 16.9453 73.3281 16.2656C73.3281 15.5859 72.7734 15.0781 72.0938 15.0781C71.4219 15.0781 70.8672 15.5859 70.8672 16.2656C70.8672 16.9453 71.4219 17.4609 72.0938 17.4609ZM74.8203 27H77.1016V22.0938C77.1016 20.9531 77.7578 20.1719 78.8516 20.1719C79.9297 20.1719 80.4609 20.8203 80.4609 21.9609V27H82.7422V21.4844C82.7422 19.4766 81.6641 18.2734 79.7578 18.2734C78.4375 18.2734 77.5625 18.8516 77.0703 19.9375H77.0234V18.3984H74.8203V27ZM88.2031 25.1797C87.0156 25.1797 86.2734 24.2422 86.2734 22.6797C86.2734 21.125 87.0234 20.1406 88.2031 20.1406C89.3906 20.1406 90.1562 21.1406 90.1562 22.6875C90.1562 24.2266 89.3906 25.1797 88.2031 25.1797ZM88.1797 30.1484C90.7656 30.1484 92.4297 28.8516 92.4297 26.8047V18.3984H90.1797V19.8672H90.1406C89.6875 18.9141 88.7109 18.2969 87.4766 18.2969C85.2969 18.2969 83.9375 19.9766 83.9375 22.6719C83.9375 25.3203 85.3438 26.9453 87.4375 26.9453C88.6797 26.9453 89.6875 26.3594 90.1016 25.4375H90.1484V26.9766C90.1484 27.9453 89.3906 28.5391 88.2344 28.5391C87.3359 28.5391 86.6172 28.1797 86.4688 27.6094H84.2188C84.3359 29.1562 85.9219 30.1484 88.1797 30.1484Z" fill="#243256"/>
<rect x="71" y="158" width="26" height="63" fill="#C8E3D5"/>
<rect x="96" y="82" width="26" height="139" fill="#97CAAF"/>
<rect x="122" y="138" width="26" height="83" fill="#C8E3D5"/>
<rect x="148" y="113" width="26" height="108" fill="#97CAAF"/>
<rect x="174" y="93" width="26" height="128" fill="#C8E3D5"/>
<rect x="200" y="171" width="26" height="50" fill="#97CAAF"/>
<rect x="226" y="113" width="26" height="108" fill="#C8E3D5"/>
<g clip-path="url(#clip0_15_69)">
<path d="M47.5598 259.285C47.6477 259.172 47.7081 259.04 47.7361 258.899C47.7642 258.759 47.7591 258.614 47.7214 258.475L47.506 257.203C47.6321 257.122 47.7492 257.028 47.855 256.922C48.0444 256.742 48.1898 256.522 48.2798 256.277C48.2002 256.233 48.1271 256.178 48.0624 256.114C47.9977 256.05 47.9426 255.976 47.8989 255.896C47.6916 255.97 47.502 256.086 47.3424 256.237L47.131 254.997C47.2886 254.907 47.4329 254.796 47.5598 254.666C47.7497 254.487 47.8957 254.266 47.9867 254.022C47.9071 253.977 47.8339 253.922 47.7693 253.858C47.7039 253.794 47.6487 253.721 47.6057 253.641C47.3654 253.728 47.1484 253.869 46.9714 254.053L46.7081 252.496C48.0904 250.996 49.1535 249.703 49.1535 249.703C50.055 248.664 49.5703 248.132 49.5703 248.132C49.5703 248.132 49.0378 247.647 47.9986 248.548C47.9986 248.548 46.7042 249.612 45.2063 250.994L43.6485 250.731C43.833 250.554 43.9743 250.337 44.0614 250.096C43.981 250.053 43.9076 249.998 43.844 249.933C43.7798 249.868 43.7248 249.795 43.6804 249.715C43.4358 249.806 43.2153 249.952 43.0362 250.142C42.9065 250.269 42.795 250.413 42.7051 250.571L41.4645 250.36C41.6153 250.2 41.7314 250.01 41.8056 249.803C41.7251 249.76 41.6518 249.705 41.5882 249.64C41.524 249.575 41.4689 249.502 41.4246 249.422C41.18 249.512 40.9595 249.658 40.7804 249.847C40.6743 249.953 40.58 250.07 40.4991 250.196L39.2266 249.981C39.0884 249.943 38.9432 249.938 38.8027 249.966C38.6621 249.994 38.53 250.054 38.4168 250.142C38.0718 250.441 37.8863 250.627 38.3012 250.996L42.8686 253.29C41.8948 254.329 40.9792 255.422 40.1261 256.563L38.1316 256.427L37.998 256.886L39.6834 258.017L40.8143 259.702L41.273 259.568L41.1394 257.574C42.2793 256.72 43.3713 255.805 44.4105 254.831L46.7042 259.397C47.0752 259.816 47.2606 259.63 47.5598 259.285Z" fill="#243256"/>
</g>
<g clip-path="url(#clip1_15_69)">
<path d="M238.591 258.395H236.9V248.868C236.9 248.641 236.989 248.423 237.148 248.263C237.306 248.103 237.521 248.013 237.745 248.013C237.97 248.013 238.185 248.103 238.343 248.263C238.502 248.423 238.591 248.641 238.591 248.868V258.395Z" fill="#243256"/>
<path d="M255.098 258.395H253.407V252.821C253.407 252.595 253.496 252.377 253.654 252.217C253.813 252.057 254.028 251.966 254.252 251.966C254.476 251.966 254.691 252.057 254.85 252.217C255.009 252.377 255.098 252.595 255.098 252.821V258.395Z" fill="#243256"/>
<path d="M253.95 255.116H237.745V256.69H253.95V255.116Z" fill="#243256"/>
<path d="M240.619 251.969H241.695C242.028 251.969 242.347 252.103 242.582 252.341C242.817 252.578 242.949 252.901 242.949 253.238V254.566H239.359V253.238C239.359 253.071 239.392 252.905 239.455 252.751C239.519 252.597 239.612 252.457 239.729 252.339C239.846 252.221 239.985 252.128 240.137 252.064C240.29 252.001 240.454 251.968 240.619 251.969Z" fill="#243256"/>
<path d="M244.834 252.857H251.349C251.66 252.858 251.958 252.985 252.178 253.209C252.397 253.433 252.52 253.735 252.519 254.05V254.569H243.643V254.05C243.643 253.892 243.674 253.736 243.734 253.591C243.793 253.445 243.881 253.313 243.992 253.202C244.103 253.091 244.234 253.003 244.378 252.944C244.523 252.885 244.678 252.855 244.834 252.857Z" fill="#243256"/>
</g>
<g clip-path="url(#clip2_15_69)">
<path d="M184.296 256.688H181.98V253.255C181.976 251.86 181.438 250.524 180.483 249.538C179.528 248.552 178.234 247.996 176.883 247.992H167.938C167.608 247.992 167.292 248.127 167.059 248.368C166.826 248.609 166.695 248.935 166.695 249.275V256.636C166.695 256.977 166.826 257.303 167.059 257.544C167.292 257.784 167.608 257.919 167.938 257.919H172.14C172.159 257.345 172.393 256.8 172.793 256.401C173.194 256.001 173.729 255.778 174.285 255.778C174.842 255.778 175.377 256.001 175.778 256.401C176.178 256.8 176.412 257.345 176.431 257.919H184.291C184.373 257.925 184.456 257.913 184.533 257.884C184.61 257.855 184.681 257.811 184.741 257.753C184.801 257.695 184.849 257.624 184.882 257.547C184.914 257.469 184.931 257.385 184.931 257.3C184.931 257.215 184.914 257.131 184.882 257.053C184.849 256.975 184.801 256.905 184.741 256.847C184.681 256.789 184.61 256.744 184.533 256.715C184.456 256.687 184.373 256.675 184.291 256.68L184.296 256.688ZM171.399 256.459C171.399 256.527 171.373 256.593 171.326 256.641C171.28 256.689 171.217 256.716 171.151 256.716H168.549C168.483 256.716 168.42 256.689 168.373 256.641C168.327 256.593 168.3 256.527 168.3 256.459V251.379C168.3 251.311 168.327 251.246 168.373 251.198C168.42 251.15 168.483 251.123 168.549 251.123H171.151C171.217 251.123 171.28 251.15 171.326 251.198C171.373 251.246 171.399 251.311 171.399 251.379V256.459ZM179.426 253.606C179.426 253.674 179.399 253.74 179.353 253.788C179.306 253.836 179.243 253.863 179.177 253.863H176.67C176.604 253.863 176.541 253.836 176.494 253.788C176.447 253.74 176.421 253.674 176.421 253.606V251.32C176.421 251.252 176.447 251.187 176.494 251.139C176.541 251.091 176.604 251.064 176.67 251.064H179.177C179.243 251.064 179.306 251.091 179.353 251.139C179.399 251.187 179.426 251.252 179.426 251.32V253.606Z" fill="#243256"/>
<path d="M174.289 257.18C174.432 257.18 174.572 257.224 174.691 257.306C174.81 257.388 174.902 257.505 174.957 257.641C175.012 257.778 175.026 257.928 174.998 258.073C174.97 258.218 174.902 258.351 174.8 258.455C174.699 258.559 174.57 258.631 174.43 258.659C174.29 258.688 174.145 258.673 174.012 258.617C173.88 258.56 173.767 258.465 173.688 258.342C173.608 258.219 173.566 258.075 173.566 257.927C173.566 257.829 173.585 257.732 173.621 257.641C173.657 257.551 173.711 257.468 173.778 257.399C173.845 257.33 173.925 257.275 174.012 257.237C174.1 257.2 174.194 257.18 174.289 257.18ZM174.289 256.154C173.95 256.154 173.618 256.258 173.335 256.453C173.053 256.648 172.833 256.925 172.703 257.249C172.573 257.573 172.539 257.929 172.605 258.273C172.671 258.617 172.835 258.933 173.075 259.181C173.315 259.429 173.621 259.598 173.954 259.666C174.287 259.734 174.633 259.699 174.946 259.565C175.26 259.431 175.528 259.204 175.717 258.912C175.906 258.62 176.006 258.278 176.006 257.927C176.006 257.457 175.824 257.006 175.503 256.674C175.181 256.342 174.744 256.155 174.289 256.154Z" fill="#243256"/>
<path d="M168.989 254.712C168.934 254.711 168.881 254.689 168.842 254.648C168.803 254.608 168.781 254.554 168.78 254.497V253.545C168.781 253.488 168.803 253.433 168.842 253.393C168.881 253.353 168.934 253.33 168.989 253.329C169.044 253.33 169.097 253.353 169.136 253.393C169.175 253.433 169.197 253.488 169.197 253.545V254.497C169.197 254.554 169.175 254.608 169.136 254.648C169.097 254.689 169.044 254.711 168.989 254.712Z" fill="#243256"/>
</g>
<g clip-path="url(#clip3_15_69)">
<path d="M111.547 250.407L110.852 248H105.558L104.855 250.407H104.554V251.337H111.846V250.407H111.547ZM108.2 250.794H105.179L105.904 248.468H110.498L111.221 250.794H108.2Z" fill="#243256"/>
<path d="M107.753 249.741H106.866V251.055H107.753V249.741Z" fill="#243256"/>
<path d="M108.643 248.427H107.757V249.741H108.643V248.427Z" fill="#243256"/>
<path d="M106.866 248.427H105.98V249.741H106.866V248.427Z" fill="#243256"/>
<path d="M105.978 249.741H105.091V251.055H105.978V249.741Z" fill="#243256"/>
<path d="M109.53 249.741H108.643V251.055H109.53V249.741Z" fill="#243256"/>
<path d="M110.418 248.427H109.532V249.741H110.418V248.427Z" fill="#243256"/>
<path d="M111.285 249.741H110.398V251.055H111.285V249.741Z" fill="#243256"/>
<path d="M114.672 254.306L114.579 254.069C114.551 253.996 114.504 253.933 114.444 253.889C114.383 253.845 114.312 253.821 114.239 253.821H112.766L112.319 252.333C112.27 252.17 112.176 252.029 112.049 251.928C111.922 251.827 111.768 251.773 111.611 251.772H104.791C104.633 251.773 104.48 251.827 104.352 251.928C104.225 252.028 104.13 252.17 104.081 252.333L103.636 253.821H102.163C102.09 253.821 102.018 253.845 101.958 253.889C101.897 253.933 101.849 253.996 101.821 254.069L101.73 254.306C101.71 254.357 101.7 254.411 101.701 254.466C101.702 254.521 101.712 254.575 101.733 254.625C101.754 254.675 101.784 254.72 101.821 254.757C101.859 254.794 101.903 254.823 101.95 254.84L102.922 255.205L102.155 255.941C102.071 256.023 102.003 256.122 101.956 256.233C101.909 256.345 101.884 256.465 101.883 256.588V260.991H104.113V259.783H112.289V260.991H114.519V256.596C114.518 256.474 114.493 256.353 114.446 256.242C114.399 256.131 114.331 256.031 114.247 255.95L113.48 255.213L114.452 254.849C114.5 254.831 114.545 254.802 114.583 254.765C114.621 254.727 114.651 254.681 114.672 254.63C114.693 254.579 114.703 254.524 114.703 254.468C114.703 254.412 114.693 254.357 114.672 254.306ZM104.835 257.667H103.119C103.014 257.667 102.913 257.622 102.838 257.541C102.764 257.46 102.722 257.35 102.722 257.236V256.835C102.723 256.772 102.736 256.71 102.762 256.653C102.787 256.597 102.824 256.547 102.869 256.507C102.915 256.467 102.968 256.439 103.024 256.424C103.081 256.409 103.14 256.407 103.197 256.42L104.912 256.82C105.001 256.849 105.078 256.911 105.129 256.995C105.181 257.078 105.203 257.179 105.193 257.279C105.184 257.379 105.142 257.472 105.075 257.542C105.008 257.612 104.921 257.655 104.829 257.663L104.835 257.667ZM104.127 254.774L104.787 252.574H111.615L112.273 254.774H104.123H104.127ZM113.668 256.84V257.24C113.668 257.355 113.626 257.464 113.552 257.545C113.477 257.626 113.376 257.671 113.271 257.671H111.557C111.465 257.664 111.378 257.621 111.311 257.551C111.244 257.481 111.203 257.388 111.193 257.288C111.183 257.188 111.205 257.087 111.257 257.003C111.308 256.92 111.385 256.858 111.474 256.829L113.189 256.428C113.247 256.414 113.306 256.414 113.364 256.428C113.422 256.442 113.475 256.47 113.522 256.509C113.568 256.549 113.606 256.599 113.632 256.656C113.659 256.713 113.673 256.776 113.674 256.84H113.668Z" fill="#243256"/>
</g>
<line x1="60.35" y1="254.25" x2="79.35" y2="254.25" stroke="#E5E5E5" stroke-width="0.5" stroke-linecap="round"/>
<line x1="60.35" y1="251.65" x2="72.85" y2="251.65" stroke="#E5E5E5" stroke-width="0.5" stroke-linecap="round"/>
<line x1="60.35" y1="256.85" x2="75.45" y2="256.85" stroke="#E5E5E5" stroke-width="0.5" stroke-linecap="round"/>
<line x1="125.35" y1="254.25" x2="144.35" y2="254.25" stroke="#E5E5E5" stroke-width="0.5" stroke-linecap="round"/>
<line x1="125.35" y1="251.65" x2="137.85" y2="251.65" stroke="#E5E5E5" stroke-width="0.5" stroke-linecap="round"/>
<line x1="125.35" y1="256.85" x2="140.45" y2="256.85" stroke="#E5E5E5" stroke-width="0.5" stroke-linecap="round"/>
<line x1="195.55" y1="254.25" x2="214.55" y2="254.25" stroke="#E5E5E5" stroke-width="0.5" stroke-linecap="round"/>
<line x1="195.55" y1="251.65" x2="208.05" y2="251.65" stroke="#E5E5E5" stroke-width="0.5" stroke-linecap="round"/>
<line x1="195.55" y1="256.85" x2="210.65" y2="256.85" stroke="#E5E5E5" stroke-width="0.5" stroke-linecap="round"/>
<line x1="265.75" y1="254.25" x2="284.75" y2="254.25" stroke="#E5E5E5" stroke-width="0.5" stroke-linecap="round"/>
<line x1="265.75" y1="251.65" x2="278.25" y2="251.65" stroke="#E5E5E5" stroke-width="0.5" stroke-linecap="round"/>
<line x1="265.75" y1="256.85" x2="280.85" y2="256.85" stroke="#E5E5E5" stroke-width="0.5" stroke-linecap="round"/>
<line x1="21" y1="280.75" x2="298" y2="280.75" stroke="#DADADA" stroke-width="0.5"/>
<path d="M26.0312 309V299.672H29.3359V297.727H20.375V299.672H23.6719V309H26.0312ZM29.8047 309H32.0859V304.188C32.0859 302.984 32.7656 302.266 33.9219 302.266C34.2578 302.266 34.5703 302.32 34.7656 302.398V300.383C34.6016 300.328 34.3672 300.297 34.1016 300.297C33.0859 300.297 32.3438 300.875 32.0547 301.938H32.0078V300.398H29.8047V309ZM38.8281 307.438C38 307.438 37.4609 307.039 37.4609 306.406C37.4609 305.773 37.9688 305.398 38.9219 305.336L40.7266 305.211V305.844C40.7266 306.781 39.8828 307.438 38.8281 307.438ZM38.0859 309.102C39.1875 309.102 40.25 308.57 40.7188 307.672H40.7656V309H42.9688V303.102C42.9688 301.383 41.5234 300.25 39.3125 300.25C37.1641 300.25 35.6797 301.383 35.6172 303.023H37.7031C37.8125 302.398 38.3906 301.961 39.2188 301.961C40.1562 301.961 40.7266 302.414 40.7266 303.242V303.812L38.5781 303.945C36.3828 304.078 35.1875 304.961 35.1875 306.523C35.1875 308.062 36.4297 309.102 38.0859 309.102ZM52.2656 300.398H49.8828L48.0625 306.961H48.0156L46.1875 300.398H43.75L46.7344 309H49.2969L52.2656 300.398ZM56.7031 301.953C57.7578 301.953 58.4922 302.688 58.5312 303.812H54.8203C54.8984 302.711 55.6641 301.953 56.7031 301.953ZM58.5625 306.375C58.3438 307.039 57.6641 307.445 56.8047 307.445C55.6016 307.445 54.7969 306.609 54.7969 305.367V305.227H60.7344V304.523C60.7344 301.906 59.1562 300.25 56.6797 300.25C54.1562 300.25 52.5469 302 52.5469 304.734C52.5469 307.469 54.1484 309.148 56.7656 309.148C58.8594 309.148 60.4141 308.039 60.6641 306.375H58.5625ZM62.0234 309H64.3047V297.188H62.0234V309ZM74.6016 297.531C71.2578 297.531 69.1641 299.773 69.1641 303.367C69.1641 306.953 71.2578 309.195 74.6016 309.195C77.9375 309.195 80.0391 306.953 80.0391 303.367C80.0391 299.773 77.9375 297.531 74.6016 297.531ZM74.6016 299.5C76.4453 299.5 77.625 301 77.625 303.367C77.625 305.727 76.4453 307.219 74.6016 307.219C72.75 307.219 71.5703 305.727 71.5703 303.367C71.5703 301 72.7578 299.5 74.6016 299.5ZM89.2031 300.398H86.8203L85 306.961H84.9531L83.125 300.398H80.6875L83.6719 309H86.2344L89.2031 300.398ZM93.6406 301.953C94.6953 301.953 95.4297 302.688 95.4688 303.812H91.7578C91.8359 302.711 92.6016 301.953 93.6406 301.953ZM95.5 306.375C95.2812 307.039 94.6016 307.445 93.7422 307.445C92.5391 307.445 91.7344 306.609 91.7344 305.367V305.227H97.6719V304.523C97.6719 301.906 96.0938 300.25 93.6172 300.25C91.0938 300.25 89.4844 302 89.4844 304.734C89.4844 307.469 91.0859 309.148 93.7031 309.148C95.7969 309.148 97.3516 308.039 97.6016 306.375H95.5ZM98.8984 309H101.18V304.188C101.18 302.984 101.859 302.266 103.016 302.266C103.352 302.266 103.664 302.32 103.859 302.398V300.383C103.695 300.328 103.461 300.297 103.195 300.297C102.18 300.297 101.438 300.875 101.148 301.938H101.102V300.398H98.8984V309ZM112.641 300.398H110.258L108.438 306.961H108.391L106.562 300.398H104.125L107.109 309H109.672L112.641 300.398ZM113.516 309H115.797V300.398H113.516V309ZM114.656 299.461C115.336 299.461 115.891 298.945 115.891 298.266C115.891 297.586 115.336 297.078 114.656 297.078C113.984 297.078 113.43 297.586 113.43 298.266C113.43 298.945 113.984 299.461 114.656 299.461ZM121.219 301.953C122.273 301.953 123.008 302.688 123.047 303.812H119.336C119.414 302.711 120.18 301.953 121.219 301.953ZM123.078 306.375C122.859 307.039 122.18 307.445 121.32 307.445C120.117 307.445 119.312 306.609 119.312 305.367V305.227H125.25V304.523C125.25 301.906 123.672 300.25 121.195 300.25C118.672 300.25 117.062 302 117.062 304.734C117.062 307.469 118.664 309.148 121.281 309.148C123.375 309.148 124.93 308.039 125.18 306.375H123.078ZM138.422 300.398H136.172L134.836 306.82H134.789L133.227 300.398H131.039L129.484 306.82H129.438L128.109 300.398H125.812L128.109 309H130.508L132.078 302.875H132.125L133.711 309H136.133L138.422 300.398Z" fill="#243256"/>
<path d="M55.7432 351V348.051H58.7705V347.128H55.7432V344.896H59.0488V343.954H54.6494V351H55.7432ZM59.9375 351H60.9971V343.637H59.9375V351ZM62.1689 351H63.2285V345.697H62.1689V351ZM62.7012 344.94C63.043 344.94 63.3213 344.667 63.3213 344.33C63.3213 343.983 63.043 343.72 62.7012 343.72C62.3594 343.72 62.0811 343.983 62.0811 344.33C62.0811 344.667 62.3594 344.94 62.7012 344.94ZM66.6074 350.106C65.7529 350.106 65.2012 349.418 65.2012 348.334C65.2012 347.245 65.7529 346.542 66.6074 346.542C67.4668 346.542 68.0381 347.26 68.0381 348.334C68.0381 349.403 67.4668 350.106 66.6074 350.106ZM66.6123 352.909C68.1406 352.909 69.0928 352.128 69.0928 350.863V345.697H68.0674V346.576H68.0479C67.7207 345.99 67.1055 345.644 66.3535 345.644C64.9961 345.644 64.1172 346.693 64.1172 348.329C64.1172 349.945 65.0059 350.985 66.3291 350.985C67.0811 350.985 67.7061 350.644 68.0137 350.072H68.0381V350.946C68.0381 351.64 67.4961 352.079 66.6562 352.079C66.0068 352.079 65.5137 351.82 65.3965 351.41H64.3271C64.4297 352.318 65.3379 352.909 66.6123 352.909ZM70.2207 351H71.2803V347.963C71.2803 347.113 71.7783 346.547 72.6035 346.547C73.3799 346.547 73.7754 347.025 73.7754 347.816V351H74.835V347.611C74.835 346.415 74.1367 345.639 72.9697 345.639C72.1592 345.639 71.6123 345.966 71.2949 346.591H71.2705V343.637H70.2207V351ZM76.2168 344.506V345.697H75.4844V346.532H76.2168V349.604C76.2168 350.629 76.627 351.034 77.6865 351.034C77.916 351.034 78.165 351.01 78.2822 350.98V350.146C78.2139 350.155 78.0332 350.17 77.9209 350.17C77.4766 350.17 77.2715 349.955 77.2715 349.496V346.532H78.2871V345.697H77.2715V344.506H76.2168ZM79.0928 347.206C79.0928 347.938 79.5664 348.427 80.5234 348.661L81.4707 348.896C82.0273 349.037 82.2373 349.213 82.2373 349.55C82.2373 349.979 81.8223 350.253 81.1631 350.253C80.4893 350.253 80.0791 349.975 79.9961 349.467H78.9512C79.0293 350.424 79.874 351.063 81.1094 351.063C82.3936 351.063 83.292 350.409 83.292 349.462C83.292 348.681 82.8965 348.295 81.8271 348.036L80.9482 347.826C80.3867 347.689 80.123 347.47 80.123 347.147C80.123 346.728 80.5234 346.449 81.124 346.449C81.7295 346.449 82.1348 346.742 82.1787 347.211H83.1748C83.1504 346.288 82.3105 345.634 81.1484 345.634C79.9277 345.634 79.0928 346.273 79.0928 347.206Z" fill="#243256"/>
<path d="M60.4551 385V377.954H59.3613V380.933H55.7432V377.954H54.6494V385H55.7432V381.88H59.3613V385H60.4551ZM63.9121 385.063C65.4453 385.063 66.417 384.019 66.417 382.349C66.417 380.679 65.4404 379.629 63.9121 379.629C62.3838 379.629 61.4023 380.684 61.4023 382.349C61.4023 384.019 62.3789 385.063 63.9121 385.063ZM63.9121 384.185C63.0137 384.185 62.4766 383.506 62.4766 382.349C62.4766 381.196 63.0137 380.508 63.9121 380.508C64.8105 380.508 65.3428 381.191 65.3428 382.349C65.3428 383.506 64.8105 384.185 63.9121 384.185ZM67.584 378.506V379.697H66.8516V380.532H67.584V383.604C67.584 384.629 67.9941 385.034 69.0537 385.034C69.2832 385.034 69.5322 385.01 69.6494 384.98V384.146C69.5811 384.155 69.4004 384.17 69.2881 384.17C68.8438 384.17 68.6387 383.955 68.6387 383.496V380.532H69.6543V379.697H68.6387V378.506H67.584ZM72.6279 380.493C73.3994 380.493 73.9219 381.04 73.9463 381.865H71.2559C71.3145 381.05 71.8662 380.493 72.6279 380.493ZM73.9414 383.447C73.7949 383.911 73.3115 384.204 72.6963 384.204C71.8271 384.204 71.251 383.599 71.251 382.681V382.617H75.0059V382.246C75.0059 380.64 74.0879 379.629 72.6328 379.629C71.1484 379.629 70.1816 380.708 70.1816 382.368C70.1816 384.028 71.1387 385.063 72.6768 385.063C73.8682 385.063 74.8008 384.399 74.9521 383.447H73.9414ZM75.9043 385H76.9639V377.637H75.9043V385ZM78.4775 386.543L80.6064 377.949H79.6592L77.5547 386.543H78.4775ZM85.4111 385H86.5684L84.0244 377.954H82.8428L80.2988 385H81.4365L82.0811 383.096H84.7666L85.4111 385ZM83.4092 379.126H83.4385L84.4883 382.217H82.3594L83.4092 379.126ZM91.6318 381.509C91.5391 380.488 90.6992 379.629 89.3467 379.629C87.8477 379.629 86.8613 380.698 86.8613 382.349C86.8613 384.028 87.8525 385.063 89.3564 385.063C90.6309 385.063 91.5195 384.326 91.6416 383.218H90.6309C90.5039 383.838 90.0498 384.175 89.3613 384.175C88.5117 384.175 87.9355 383.491 87.9355 382.349C87.9355 381.235 88.502 380.522 89.3564 380.522C90.084 380.522 90.5234 380.947 90.6211 381.509H91.6318ZM96.9541 381.509C96.8613 380.488 96.0215 379.629 94.6689 379.629C93.1699 379.629 92.1836 380.698 92.1836 382.349C92.1836 384.028 93.1748 385.063 94.6787 385.063C95.9531 385.063 96.8418 384.326 96.9639 383.218H95.9531C95.8262 383.838 95.3721 384.175 94.6836 384.175C93.834 384.175 93.2578 383.491 93.2578 382.349C93.2578 381.235 93.8242 380.522 94.6787 380.522C95.4062 380.522 95.8457 380.947 95.9434 381.509H96.9541ZM100.016 385.063C101.549 385.063 102.521 384.019 102.521 382.349C102.521 380.679 101.544 379.629 100.016 379.629C98.4873 379.629 97.5059 380.684 97.5059 382.349C97.5059 384.019 98.4824 385.063 100.016 385.063ZM100.016 384.185C99.1172 384.185 98.5801 383.506 98.5801 382.349C98.5801 381.196 99.1172 380.508 100.016 380.508C100.914 380.508 101.446 381.191 101.446 382.349C101.446 383.506 100.914 384.185 100.016 384.185ZM103.37 385H104.43V381.748C104.43 381.055 104.898 380.547 105.553 380.547C106.173 380.547 106.568 380.938 106.568 381.553V385H107.608V381.709C107.608 381.03 108.067 380.547 108.717 380.547C109.376 380.547 109.752 380.947 109.752 381.641V385H110.807V381.387C110.807 380.327 110.123 379.639 109.078 379.639C108.321 379.639 107.696 380.029 107.418 380.669H107.394C107.179 380.01 106.646 379.639 105.909 379.639C105.216 379.639 104.645 380 104.4 380.596H104.381V379.697H103.37V385ZM111.866 385H112.926V381.748C112.926 381.055 113.395 380.547 114.049 380.547C114.669 380.547 115.064 380.938 115.064 381.553V385H116.104V381.709C116.104 381.03 116.563 380.547 117.213 380.547C117.872 380.547 118.248 380.947 118.248 381.641V385H119.303V381.387C119.303 380.327 118.619 379.639 117.574 379.639C116.817 379.639 116.192 380.029 115.914 380.669H115.89C115.675 380.01 115.143 379.639 114.405 379.639C113.712 379.639 113.141 380 112.896 380.596H112.877V379.697H111.866V385ZM122.633 385.063C124.166 385.063 125.138 384.019 125.138 382.349C125.138 380.679 124.161 379.629 122.633 379.629C121.104 379.629 120.123 380.684 120.123 382.349C120.123 384.019 121.1 385.063 122.633 385.063ZM122.633 384.185C121.734 384.185 121.197 383.506 121.197 382.349C121.197 381.196 121.734 380.508 122.633 380.508C123.531 380.508 124.063 381.191 124.063 382.349C124.063 383.506 123.531 384.185 122.633 384.185ZM127.984 385.054C128.761 385.054 129.366 384.702 129.679 384.102H129.698V385H130.724V377.637H129.669V380.576H129.645C129.342 379.99 128.736 379.644 127.975 379.644C126.656 379.644 125.748 380.713 125.748 382.344C125.748 383.984 126.656 385.054 127.984 385.054ZM128.253 380.542C129.103 380.542 129.674 381.27 129.674 382.349C129.674 383.433 129.103 384.155 128.253 384.155C127.394 384.155 126.832 383.447 126.832 382.349C126.832 381.255 127.398 380.542 128.253 380.542ZM133.688 384.209C133.077 384.209 132.682 383.916 132.682 383.462C132.682 382.993 133.058 382.725 133.78 382.681L135.069 382.593V383.008C135.069 383.706 134.474 384.209 133.688 384.209ZM133.404 385.054C134.127 385.054 134.786 384.692 135.079 384.116H135.104V385H136.114V381.362C136.114 380.312 135.279 379.629 133.985 379.629C132.794 379.629 131.905 380.322 131.876 381.26H132.867C132.96 380.801 133.38 380.503 133.956 380.503C134.664 380.503 135.069 380.835 135.069 381.44V381.851L133.639 381.934C132.33 382.017 131.612 382.554 131.612 383.481C131.612 384.429 132.345 385.054 133.404 385.054ZM137.496 378.506V379.697H136.764V380.532H137.496V383.604C137.496 384.629 137.906 385.034 138.966 385.034C139.195 385.034 139.444 385.01 139.562 384.98V384.146C139.493 384.155 139.312 384.17 139.2 384.17C138.756 384.17 138.551 383.955 138.551 383.496V380.532H139.566V379.697H138.551V378.506H137.496ZM140.499 385H141.559V379.697H140.499V385ZM141.031 378.94C141.373 378.94 141.651 378.667 141.651 378.33C141.651 377.983 141.373 377.72 141.031 377.72C140.689 377.72 140.411 377.983 140.411 378.33C140.411 378.667 140.689 378.94 141.031 378.94ZM144.957 385.063C146.49 385.063 147.462 384.019 147.462 382.349C147.462 380.679 146.485 379.629 144.957 379.629C143.429 379.629 142.447 380.684 142.447 382.349C142.447 384.019 143.424 385.063 144.957 385.063ZM144.957 384.185C144.059 384.185 143.521 383.506 143.521 382.349C143.521 381.196 144.059 380.508 144.957 380.508C145.855 380.508 146.388 381.191 146.388 382.349C146.388 383.506 145.855 384.185 144.957 384.185ZM148.312 385H149.371V381.938C149.371 381.104 149.85 380.547 150.65 380.547C151.427 380.547 151.798 380.996 151.798 381.802V385H152.857V381.602C152.857 380.381 152.188 379.639 151.017 379.639C150.196 379.639 149.664 379.966 149.342 380.591H149.322V379.697H148.312V385Z" fill="#243256"/>
<path d="M57.623 420.117C59.2441 420.117 60.3477 419.263 60.6162 417.808H59.5273C59.3076 418.657 58.6094 419.16 57.6279 419.16C56.334 419.16 55.5137 418.12 55.5137 416.475C55.5137 414.844 56.3438 413.794 57.623 413.794C58.5801 413.794 59.332 414.385 59.5273 415.288H60.6113C60.4258 413.818 59.2197 412.837 57.623 412.837C55.6553 412.837 54.3955 414.243 54.3955 416.475C54.3955 418.721 55.6455 420.117 57.623 420.117ZM63.3359 419.209C62.7256 419.209 62.3301 418.916 62.3301 418.462C62.3301 417.993 62.7061 417.725 63.4287 417.681L64.7178 417.593V418.008C64.7178 418.706 64.1221 419.209 63.3359 419.209ZM63.0527 420.054C63.7754 420.054 64.4346 419.692 64.7275 419.116H64.752V420H65.7627V416.362C65.7627 415.312 64.9277 414.629 63.6338 414.629C62.4424 414.629 61.5537 415.322 61.5244 416.26H62.5156C62.6084 415.801 63.0283 415.503 63.6045 415.503C64.3125 415.503 64.7178 415.835 64.7178 416.44V416.851L63.2871 416.934C61.9785 417.017 61.2607 417.554 61.2607 418.481C61.2607 419.429 61.9932 420.054 63.0527 420.054ZM66.8271 420H67.8867V416.836C67.8867 416.089 68.3262 415.605 69.0244 415.605C69.2344 415.605 69.4199 415.635 69.5078 415.669V414.678C69.4248 414.658 69.293 414.644 69.1367 414.644C68.5117 414.644 68.0234 415 67.8574 415.591H67.8379V414.697H66.8271V420ZM72.4033 416.206C72.4033 416.938 72.877 417.427 73.834 417.661L74.7812 417.896C75.3379 418.037 75.5479 418.213 75.5479 418.55C75.5479 418.979 75.1328 419.253 74.4736 419.253C73.7998 419.253 73.3896 418.975 73.3066 418.467H72.2617C72.3398 419.424 73.1846 420.063 74.4199 420.063C75.7041 420.063 76.6025 419.409 76.6025 418.462C76.6025 417.681 76.207 417.295 75.1377 417.036L74.2588 416.826C73.6973 416.689 73.4336 416.47 73.4336 416.147C73.4336 415.728 73.834 415.449 74.4346 415.449C75.04 415.449 75.4453 415.742 75.4893 416.211H76.4854C76.4609 415.288 75.6211 414.634 74.459 414.634C73.2383 414.634 72.4033 415.273 72.4033 416.206ZM79.6689 415.493C80.4404 415.493 80.9629 416.04 80.9873 416.865H78.2969C78.3555 416.05 78.9072 415.493 79.6689 415.493ZM80.9824 418.447C80.8359 418.911 80.3525 419.204 79.7373 419.204C78.8682 419.204 78.292 418.599 78.292 417.681V417.617H82.0469V417.246C82.0469 415.64 81.1289 414.629 79.6738 414.629C78.1895 414.629 77.2227 415.708 77.2227 417.368C77.2227 419.028 78.1797 420.063 79.7178 420.063C80.9092 420.063 81.8418 419.399 81.9932 418.447H80.9824ZM82.9014 420H83.9609V416.836C83.9609 416.089 84.4004 415.605 85.0986 415.605C85.3086 415.605 85.4941 415.635 85.582 415.669V414.678C85.499 414.658 85.3672 414.644 85.2109 414.644C84.5859 414.644 84.0977 415 83.9316 415.591H83.9121V414.697H82.9014V420ZM90.7627 414.697H89.6641L88.3066 418.955H88.2822L86.9297 414.697H85.8115L87.7256 420H88.8535L90.7627 414.697ZM91.4365 420H92.4961V414.697H91.4365V420ZM91.9688 413.94C92.3105 413.94 92.5889 413.667 92.5889 413.33C92.5889 412.983 92.3105 412.72 91.9688 412.72C91.627 412.72 91.3486 412.983 91.3486 413.33C91.3486 413.667 91.627 413.94 91.9688 413.94ZM98.1553 416.509C98.0625 415.488 97.2227 414.629 95.8701 414.629C94.3711 414.629 93.3848 415.698 93.3848 417.349C93.3848 419.028 94.376 420.063 95.8799 420.063C97.1543 420.063 98.043 419.326 98.165 418.218H97.1543C97.0273 418.838 96.5732 419.175 95.8848 419.175C95.0352 419.175 94.459 418.491 94.459 417.349C94.459 416.235 95.0254 415.522 95.8799 415.522C96.6074 415.522 97.0469 415.947 97.1445 416.509H98.1553ZM101.153 415.493C101.925 415.493 102.447 416.04 102.472 416.865H99.7812C99.8398 416.05 100.392 415.493 101.153 415.493ZM102.467 418.447C102.32 418.911 101.837 419.204 101.222 419.204C100.353 419.204 99.7764 418.599 99.7764 417.681V417.617H103.531V417.246C103.531 415.64 102.613 414.629 101.158 414.629C99.6738 414.629 98.707 415.708 98.707 417.368C98.707 419.028 99.6641 420.063 101.202 420.063C102.394 420.063 103.326 419.399 103.478 418.447H102.467Z" fill="#243256"/>
<line x1="21" y1="321.75" x2="298" y2="321.75" stroke="#DADADA" stroke-width="0.5"/>
<path d="M288 342H279L283.5 347L288 342Z" fill="#243256"/>
<path d="M288 379H279L283.5 384L288 379Z" fill="#243256"/>
<path d="M288 416H279L283.5 421L288 416Z" fill="#243256"/>
<circle cx="31.5" cy="346.5" r="10.5" fill="#F0F6FF"/>
<g clip-path="url(#clip4_15_69)">
<path d="M34.3537 350.681C34.4214 350.594 34.4678 350.492 34.4894 350.384C34.5109 350.276 34.5071 350.164 34.478 350.058L34.3123 349.079C34.4093 349.017 34.4994 348.944 34.5808 348.863C34.7265 348.725 34.8383 348.555 34.9076 348.367C34.8464 348.333 34.7901 348.291 34.7404 348.241C34.6906 348.192 34.6482 348.136 34.6146 348.074C34.4551 348.131 34.3093 348.22 34.1865 348.337L34.0239 347.382C34.1451 347.313 34.2561 347.227 34.3537 347.128C34.4998 346.99 34.6121 346.82 34.6821 346.632C34.6208 346.598 34.5646 346.556 34.5148 346.506C34.4646 346.457 34.4221 346.401 34.389 346.339C34.2042 346.406 34.0372 346.515 33.9011 346.656L33.6986 345.458C34.7618 344.304 35.5796 343.31 35.5796 343.31C36.2731 342.511 35.9003 342.101 35.9003 342.101C35.9003 342.101 35.4906 341.728 34.6913 342.422C34.6913 342.422 33.6955 343.24 32.5433 344.303L31.345 344.1C31.4869 343.964 31.5956 343.797 31.6626 343.613C31.6008 343.579 31.5444 343.537 31.4954 343.487C31.446 343.437 31.4037 343.381 31.3696 343.319C31.1814 343.389 31.0118 343.502 30.874 343.648C30.7742 343.745 30.6885 343.856 30.6193 343.978L29.665 343.815C29.781 343.692 29.8704 343.546 29.9274 343.387C29.8655 343.354 29.8091 343.311 29.7602 343.261C29.7108 343.211 29.6684 343.155 29.6343 343.094C29.4462 343.163 29.2766 343.275 29.1388 343.421C29.0572 343.502 28.9846 343.592 28.9224 343.689L27.9436 343.524C27.8372 343.494 27.7256 343.491 27.6175 343.512C27.5093 343.534 27.4077 343.58 27.3207 343.648C27.0552 343.878 26.9126 344.021 27.2317 344.304L30.7451 346.069C29.996 346.869 29.2917 347.709 28.6355 348.587L27.1013 348.482L26.9985 348.835L28.2949 349.705L29.1649 351.002L29.5177 350.899L29.4149 349.364C30.2918 348.708 31.1318 348.004 31.9311 347.255L33.6955 350.767C33.9809 351.089 34.1236 350.946 34.3537 350.681Z" fill="#FF0000"/>
</g>
<circle cx="31.5" cy="416.5" r="10.5" fill="#F0F6FF"/>
<g clip-path="url(#clip5_15_69)">
<path d="M34.4007 414.592H33.9348V412.764C33.9348 412.56 33.8441 412.365 33.6828 412.22C33.5215 412.076 33.3027 411.995 33.0746 411.995H30.9168C30.6887 411.995 30.4699 412.076 30.3086 412.22C30.1473 412.365 30.0566 412.56 30.0566 412.764V414.592H29.5978C29.4394 414.592 29.2876 414.648 29.1755 414.749C29.0635 414.849 29.0004 414.985 29 415.126V416.249H34.9986V415.126C34.9982 414.985 34.9351 414.849 34.823 414.749C34.711 414.648 34.5592 414.592 34.4007 414.592ZM30.5756 412.764C30.576 412.683 30.6123 412.606 30.6765 412.548C30.7407 412.491 30.8277 412.459 30.9183 412.459H33.0803C33.1707 412.459 33.2572 412.492 33.3211 412.549C33.3851 412.606 33.4211 412.683 33.4215 412.764V414.592H30.5756V412.764Z" fill="#FF0000"/>
<path d="M29 420.906C29.0004 421.048 29.0635 421.184 29.1755 421.284C29.2876 421.384 29.4394 421.441 29.5978 421.441H30.0638V421.914C30.0638 421.937 30.0741 421.959 30.0924 421.976C30.1106 421.992 30.1354 422.001 30.1613 422.001H30.6487C30.6744 422.001 30.6988 421.992 30.7168 421.975C30.7347 421.959 30.7448 421.937 30.7448 421.914V421.441H33.2523V421.914C33.2527 421.937 33.2631 421.959 33.2813 421.975C33.2995 421.992 33.3241 422.001 33.3498 422.001H33.8373C33.863 422.001 33.8876 421.992 33.9058 421.975C33.924 421.959 33.9344 421.937 33.9348 421.914V421.441H34.4007C34.5592 421.441 34.711 421.384 34.823 421.284C34.9351 421.184 34.9982 421.048 34.9986 420.906V416.688H29V420.906Z" fill="#FF0000"/>
</g>
<circle cx="31.5" cy="381.5" r="10.5" fill="#F0F6FF"/>
<g clip-path="url(#clip6_15_69)">
<path d="M36.7885 385.662L36.4326 381.906H36.7253V380.492H36.2559V380.872H35.8845V380.492H35.4756V380.893H35.1622V380.492H34.7509V380.872H34.3794V380.492H33.91V381.499H33.5231V381.145H33.1723L33.0433 378.425H33.1375V378.414H33.4315V377H32.9621V377.38H32.5907V377H32.1793V377.401H31.8646V377H31.4532V377.38H31.0818V377H30.6123V378.414H30.9051V378.425H31.0263L30.887 381.321V381.145H30.5182V381.499H30.0991V380.492H29.6296V380.872H29.2582V380.492H28.8468V380.893H28.5334V380.492H28.1233V380.872H27.7519V380.492H27.2824V381.906H27.5752L27.2192 385.662H27.0078V385.996H37.0078V385.662H36.7885ZM28.5115 382.868C28.5115 382.818 28.5298 382.771 28.5625 382.735C28.5951 382.7 28.6394 382.68 28.6856 382.68C28.7318 382.68 28.776 382.7 28.8087 382.735C28.8413 382.771 28.8597 382.818 28.8597 382.868V383.359H28.5115V382.868ZM28.9371 385.578H28.4277V384.861C28.4373 384.795 28.4683 384.736 28.515 384.693C28.5617 384.65 28.621 384.626 28.6824 384.626C28.7437 384.626 28.8031 384.65 28.8498 384.693C28.8964 384.736 28.9274 384.795 28.9371 384.861V385.578ZM32.2012 380.04H31.853V379.549C31.853 379.499 31.8713 379.451 31.904 379.416C31.9366 379.381 31.9809 379.361 32.0271 379.361C32.0733 379.361 32.1176 379.381 32.1502 379.416C32.1829 379.451 32.2012 379.499 32.2012 379.549V380.04ZM32.6784 385.562H31.359V383.8H32.6784V385.562ZM34.1873 382.063V381.906H34.2027L34.1873 382.063ZM35.1429 382.868C35.1429 382.818 35.1613 382.771 35.1939 382.735C35.2266 382.7 35.2708 382.68 35.317 382.68C35.3632 382.68 35.4075 382.7 35.4401 382.735C35.4728 382.771 35.4911 382.818 35.4911 382.868V383.359H35.1429V382.868ZM35.5724 385.578H35.0565V384.861C35.0565 384.787 35.0837 384.716 35.1321 384.664C35.1804 384.612 35.246 384.582 35.3144 384.582C35.3828 384.582 35.4484 384.612 35.4968 384.664C35.5452 384.716 35.5724 384.787 35.5724 384.861V385.578Z" fill="#FF0000"/>
</g>
<defs>
<clipPath id="clip0_15_69">
<rect width="11.7" height="11.7" fill="white" transform="translate(38 248)"/>
</clipPath>
<clipPath id="clip1_15_69">
<rect width="18.2" height="10.4" fill="white" transform="translate(236.9 248)"/>
</clipPath>
<clipPath id="clip2_15_69">
<rect width="18.2" height="11.7" fill="white" transform="translate(166.7 248)"/>
</clipPath>
<clipPath id="clip3_15_69">
<rect width="13" height="13" fill="white" transform="translate(101.7 248)"/>
</clipPath>
<clipPath id="clip4_15_69">
<rect width="9" height="9" fill="white" transform="translate(27 342)"/>
</clipPath>
<clipPath id="clip5_15_69">
<rect width="6" height="10" fill="white" transform="translate(29 412)"/>
</clipPath>
<clipPath id="clip6_15_69">
<rect width="10" height="9" fill="white" transform="translate(27 377)"/>
</clipPath>
</defs>
</svg>
