<?xml version="1.0" encoding="UTF-8"?><svg xmlns="http://www.w3.org/2000/svg" xmlns:xlink="http://www.w3.org/1999/xlink" contentScriptType="text/ecmascript" width="187.5" zoomAndPan="magnify" contentStyleType="text/css" viewBox="0 0 187.5 187.499995" height="187.499995" preserveAspectRatio="xMidYMid meet" version="1.0"><defs><clipPath id="clip-0"><path d="M 2.507812 44 L 173 44 L 173 135 L 2.507812 135 Z M 2.507812 44 " clip-rule="nonzero"/></clipPath><clipPath id="clip-1"><path d="M 26 43.421875 L 184.757812 43.421875 L 184.757812 143.921875 L 26 143.921875 Z M 26 43.421875 " clip-rule="nonzero"/></clipPath></defs><path fill="rgb(70.199585%, 76.858521%, 85.099792%)" d="M 28.378906 44.132812 L 4.808594 44.132812 L 4.808594 51.804688 L 28.378906 51.804688 C 40.640625 51.804688 61.382812 62.625 70.222656 68.035156 L 53.722656 75.117188 L 4.808594 75.117188 L 4.808594 134.4375 L 101.460938 134.4375 C 96.507812 127.355469 96.449219 116.140625 97.039062 111.417969 C 97.726562 102.464844 105.230469 84.621094 129.746094 84.855469 C 154.265625 85.09375 161.570312 104.628906 162.160156 114.367188 C 162.261719 115.253906 162.398438 118.265625 162.160156 123.222656 C 161.925781 128.179688 158.527344 132.765625 156.859375 134.4375 L 178.957031 134.4375 C 182.964844 134.4375 183.96875 131.09375 183.96875 129.417969 L 183.96875 105.808594 C 177.601562 78.894531 148.507812 72.167969 135.347656 72.167969 L 118.253906 72.167969 C 109.121094 72.167969 87.609375 70.398438 74.644531 63.3125 C 54.605469 49.148438 35.453125 44.625 28.378906 44.132812 Z M 28.378906 44.132812 " fill-opacity="1" fill-rule="nonzero"/><g clip-path="url(#clip-0)"><path fill="rgb(0%, 8.628845%, 19.60907%)" d="M 16.59375 44.132812 L 2.566406 44.132812 L 2.566406 51.804688 L 16.59375 51.804688 C 28.851562 51.804688 49.597656 62.625 58.4375 68.035156 L 41.933594 75.117188 L 2.566406 75.117188 L 2.566406 134.4375 L 89.671875 134.4375 C 84.722656 127.355469 84.664062 116.140625 85.25 111.417969 C 85.9375 102.464844 93.445312 84.621094 117.960938 84.855469 C 142.476562 85.09375 149.785156 104.628906 150.375 114.367188 C 150.472656 115.253906 150.609375 118.265625 150.375 123.222656 C 150.136719 128.179688 146.738281 132.765625 145.070312 134.4375 L 167.171875 134.4375 C 171.179688 134.4375 172.179688 131.09375 172.179688 129.417969 L 172.179688 105.808594 C 165.816406 78.894531 136.722656 72.167969 123.558594 72.167969 L 106.46875 72.167969 C 97.332031 72.167969 75.824219 70.398438 62.855469 63.3125 C 42.820312 49.148438 23.664062 44.625 16.59375 44.132812 Z M 16.59375 44.132812 " fill-opacity="1" fill-rule="nonzero"/></g><path fill="rgb(70.199585%, 76.858521%, 85.099792%)" d="M 22.78125 97.84375 L 56.375 97.84375 C 57.011719 97.84375 57.644531 97.90625 58.269531 98.03125 C 58.898438 98.15625 59.503906 98.339844 60.09375 98.585938 C 60.683594 98.828125 61.246094 99.128906 61.777344 99.484375 C 62.308594 99.839844 62.796875 100.242188 63.25 100.695312 C 63.703125 101.148438 64.105469 101.640625 64.460938 102.171875 C 64.8125 102.703125 65.113281 103.265625 65.359375 103.855469 C 65.601562 104.445312 65.785156 105.054688 65.910156 105.683594 C 66.035156 106.308594 66.097656 106.941406 66.097656 107.582031 C 66.097656 108.222656 66.035156 108.855469 65.910156 109.484375 C 65.785156 110.109375 65.601562 110.71875 65.359375 111.308594 C 65.113281 111.902344 64.8125 112.460938 64.460938 112.992188 C 64.105469 113.523438 63.703125 114.015625 63.25 114.46875 C 62.796875 114.921875 62.308594 115.324219 61.777344 115.679688 C 61.246094 116.035156 60.683594 116.335938 60.09375 116.582031 C 59.503906 116.824219 58.898438 117.011719 58.269531 117.132812 C 57.644531 117.257812 57.011719 117.320312 56.375 117.320312 L 22.78125 117.320312 C 22.144531 117.320312 21.511719 117.257812 20.882812 117.132812 C 20.257812 117.011719 19.648438 116.824219 19.058594 116.582031 C 18.46875 116.335938 17.910156 116.035156 17.378906 115.679688 C 16.847656 115.324219 16.355469 114.921875 15.90625 114.46875 C 15.453125 114.015625 15.050781 113.523438 14.695312 112.992188 C 14.339844 112.460938 14.042969 111.902344 13.796875 111.308594 C 13.554688 110.71875 13.367188 110.109375 13.242188 109.484375 C 13.121094 108.855469 13.058594 108.222656 13.058594 107.582031 C 13.058594 106.941406 13.121094 106.308594 13.242188 105.683594 C 13.367188 105.054688 13.554688 104.445312 13.796875 103.855469 C 14.042969 103.265625 14.339844 102.703125 14.695312 102.171875 C 15.050781 101.640625 15.453125 101.148438 15.90625 100.695312 C 16.355469 100.242188 16.847656 99.839844 17.378906 99.484375 C 17.910156 99.128906 18.46875 98.828125 19.058594 98.585938 C 19.648438 98.339844 20.257812 98.15625 20.882812 98.03125 C 21.511719 97.90625 22.144531 97.84375 22.78125 97.84375 Z M 22.78125 97.84375 " fill-opacity="1" fill-rule="nonzero"/><g clip-path="url(#clip-1)"><path stroke-linecap="butt" transform="matrix(0.79917, 0, 0, 0.800373, 2.525792, 43.421648)" fill="none" stroke-linejoin="miter" d="M 168.042399 92.330275 C 168.042399 93.076997 168.003296 93.823719 167.929978 94.570441 C 167.85666 95.312283 167.749127 96.054124 167.60249 96.786205 C 167.455854 97.523166 167.275002 98.245485 167.055048 98.962924 C 166.839981 99.680363 166.585811 100.38316 166.297426 101.076196 C 166.013929 101.769233 165.691329 102.442747 165.339401 103.1065 C 164.987474 103.765372 164.601331 104.404722 164.185861 105.029431 C 163.770392 105.649259 163.325594 106.254446 162.85147 106.830349 C 162.377346 107.411133 161.873894 107.962634 161.346003 108.494612 C 160.813224 109.02171 160.260893 109.524405 159.684123 109.997817 C 159.102465 110.47611 158.501256 110.920239 157.880495 111.335084 C 157.259734 111.74993 156.614534 112.135492 155.95467 112.491772 C 155.294806 112.84317 154.620279 113.160405 153.926199 113.448357 C 153.237008 113.736308 152.533153 113.985216 151.814635 114.20484 C 151.101004 114.419584 150.37271 114.605044 149.639528 114.75146 C 148.906346 114.897876 148.163388 115.005248 147.42043 115.078456 C 146.672584 115.151664 145.929626 115.190708 145.176893 115.190708 C 144.429047 115.190708 143.681201 115.151664 142.938243 115.078456 C 142.195285 115.005248 141.452327 114.897876 140.719145 114.75146 C 139.985963 114.605044 139.257669 114.419584 138.544038 114.20484 C 137.82552 113.985216 137.121665 113.736308 136.432474 113.448357 C 135.738395 113.160405 135.063867 112.84317 134.404003 112.491772 C 133.744139 112.135492 133.098939 111.74993 132.478178 111.335084 C 131.857417 110.920239 131.256208 110.47611 130.67455 109.997817 C 130.09778 109.524405 129.54545 109.02171 129.012671 108.494612 C 128.484779 107.962634 127.981328 107.411133 127.507203 106.830349 C 127.033079 106.254446 126.588282 105.649259 126.172812 105.029431 C 125.752454 104.404722 125.371199 103.765372 125.019272 103.1065 C 124.662457 102.442747 124.344744 101.769233 124.056359 101.076196 C 123.772862 100.38316 123.518692 99.680363 123.303626 98.962924 C 123.083671 98.245485 122.902819 97.523166 122.756183 96.786205 C 122.609547 96.054124 122.502013 95.312283 122.428695 94.570441 C 122.355377 93.823719 122.316274 93.076997 122.316274 92.330275 C 122.316274 91.578672 122.355377 90.83195 122.428695 90.085228 C 122.502013 89.343386 122.609547 88.601545 122.756183 87.869464 C 122.902819 87.132503 123.083671 86.410184 123.303626 85.692745 C 123.518692 84.975306 123.772862 84.272509 124.056359 83.579473 C 124.344744 82.886436 124.662457 82.212922 125.019272 81.549169 C 125.371199 80.890297 125.752454 80.250947 126.172812 79.626238 C 126.588282 79.00641 127.033079 78.406104 127.507203 77.82532 C 127.981328 77.244536 128.484779 76.693036 129.012671 76.161057 C 129.54545 75.633959 130.09778 75.131264 130.67455 74.657852 C 131.256208 74.179559 131.857417 73.73543 132.478178 73.320585 C 133.098939 72.905739 133.744139 72.520177 134.404003 72.168778 C 135.063867 71.812499 135.738395 71.495264 136.432474 71.207312 C 137.121665 70.919361 137.82552 70.670453 138.544038 70.450829 C 139.257669 70.236086 139.985963 70.050625 140.719145 69.904209 C 141.452327 69.757793 142.195285 69.650421 142.938243 69.577213 C 143.681201 69.504005 144.429047 69.464961 145.176893 69.464961 C 145.929626 69.464961 146.672584 69.504005 147.42043 69.577213 C 148.163388 69.650421 148.906346 69.757793 149.639528 69.904209 C 150.37271 70.050625 151.101004 70.236086 151.814635 70.450829 C 152.533153 70.670453 153.237008 70.919361 153.926199 71.207312 C 154.620279 71.495264 155.294806 71.812499 155.95467 72.168778 C 156.614534 72.520177 157.259734 72.905739 157.880495 73.320585 C 158.501256 73.73543 159.102465 74.179559 159.684123 74.657852 C 160.260893 75.131264 160.813224 75.633959 161.346003 76.161057 C 161.873894 76.693036 162.377346 77.244536 162.85147 77.82532 C 163.325594 78.406104 163.770392 79.00641 164.185861 79.626238 C 164.601331 80.250947 164.987474 80.890297 165.339401 81.549169 C 165.691329 82.212922 166.013929 82.886436 166.297426 83.579473 C 166.585811 84.272509 166.839981 84.975306 167.055048 85.692745 C 167.275002 86.410184 167.455854 87.132503 167.60249 87.869464 C 167.749127 88.601545 167.85666 89.343386 167.929978 90.085228 C 168.003296 90.83195 168.042399 91.578672 168.042399 92.330275 Z M 168.042399 92.330275 " stroke="rgb(0%, 8.628845%, 19.60907%)" stroke-width="16.224001" stroke-opacity="1" stroke-miterlimit="4"/></g></svg>