<?xml version="1.0" encoding="UTF-8"?><svg xmlns="http://www.w3.org/2000/svg" xmlns:xlink="http://www.w3.org/1999/xlink" contentScriptType="text/ecmascript" width="187.5" zoomAndPan="magnify" contentStyleType="text/css" viewBox="0 0 187.5 187.499995" height="187.499995" preserveAspectRatio="xMidYMid meet" version="1.0"><defs><clipPath id="clip-0"><path d="M 12 6.773438 L 88 6.773438 L 88 83 L 12 83 Z M 12 6.773438 " clip-rule="nonzero"/></clipPath><clipPath id="clip-1"><path d="M 97 6.773438 L 174 6.773438 L 174 83 L 97 83 Z M 97 6.773438 " clip-rule="nonzero"/></clipPath></defs><g clip-path="url(#clip-0)"><path fill="rgb(0%, 8.628845%, 19.60907%)" d="M 12.011719 44.9375 C 12.011719 29.355469 12.011719 21.5625 15.875 16.035156 C 17.304688 13.992188 19.082031 12.214844 21.121094 10.785156 C 26.640625 6.917969 34.429688 6.917969 50 6.917969 C 65.570312 6.917969 73.359375 6.917969 78.878906 10.785156 C 80.917969 12.214844 82.695312 13.992188 84.125 16.035156 C 87.988281 21.5625 87.988281 29.355469 87.988281 44.9375 L 87.988281 63.949219 C 87.988281 72.914062 87.988281 77.394531 85.207031 80.175781 C 82.425781 82.960938 77.949219 82.960938 68.996094 82.960938 L 50 82.960938 C 34.429688 82.960938 26.640625 82.960938 21.121094 79.09375 C 19.082031 77.664062 17.304688 75.886719 15.875 73.839844 C 12.011719 68.316406 12.011719 60.523438 12.011719 44.9375 Z M 12.011719 44.9375 " fill-opacity="1" fill-rule="nonzero"/></g><path fill="rgb(0%, 8.628845%, 19.60907%)" d="M 12.011719 130.488281 C 12.011719 114.90625 12.011719 107.113281 15.875 101.589844 C 17.304688 99.542969 19.082031 97.765625 21.121094 96.335938 C 26.640625 92.46875 34.429688 92.46875 50 92.46875 L 68.996094 92.46875 C 77.949219 92.46875 82.425781 92.46875 85.207031 95.253906 C 87.988281 98.035156 87.988281 102.515625 87.988281 111.480469 L 87.988281 130.488281 C 87.988281 146.078125 87.988281 153.867188 84.125 159.390625 C 82.695312 161.4375 80.917969 163.214844 78.878906 164.644531 C 73.359375 168.511719 65.570312 168.511719 50 168.511719 C 34.429688 168.511719 26.640625 168.511719 21.121094 164.644531 C 19.082031 163.214844 17.304688 161.4375 15.875 159.390625 C 12.011719 153.867188 12.011719 146.078125 12.011719 130.488281 Z M 12.011719 130.488281 " fill-opacity="1" fill-rule="nonzero"/><g clip-path="url(#clip-1)"><path fill="rgb(0%, 8.628845%, 19.60907%)" d="M 97.488281 44.9375 C 97.488281 29.355469 97.488281 21.5625 101.351562 16.035156 C 102.78125 13.992188 104.558594 12.214844 106.597656 10.785156 C 112.117188 6.917969 119.90625 6.917969 135.476562 6.917969 C 151.046875 6.917969 158.835938 6.917969 164.355469 10.785156 C 166.394531 12.214844 168.171875 13.992188 169.601562 16.035156 C 173.464844 21.5625 173.464844 29.355469 173.464844 44.9375 C 173.464844 60.523438 173.464844 68.316406 169.601562 73.839844 C 168.171875 75.886719 166.394531 77.664062 164.355469 79.09375 C 158.835938 82.960938 151.046875 82.960938 135.476562 82.960938 L 116.480469 82.960938 C 107.527344 82.960938 103.050781 82.960938 100.269531 80.175781 C 97.488281 77.394531 97.488281 72.914062 97.488281 63.949219 Z M 97.488281 44.9375 " fill-opacity="1" fill-rule="nonzero"/></g><path fill="rgb(0%, 22.349548%, 50.19989%)" d="M 97.488281 111.480469 C 97.488281 102.515625 97.488281 98.035156 100.269531 95.253906 C 103.050781 92.46875 107.527344 92.46875 116.480469 92.46875 L 135.476562 92.46875 C 151.046875 92.46875 158.835938 92.46875 164.355469 96.335938 C 166.394531 97.765625 168.171875 99.542969 169.601562 101.589844 C 173.464844 107.113281 173.464844 114.90625 173.464844 130.488281 C 173.464844 146.078125 173.464844 153.867188 169.601562 159.390625 C 168.171875 161.4375 166.394531 163.214844 164.355469 164.644531 C 158.835938 168.511719 151.046875 168.511719 135.476562 168.511719 C 119.90625 168.511719 112.117188 168.511719 106.597656 164.644531 C 104.558594 163.214844 102.78125 161.4375 101.351562 159.390625 C 97.488281 153.867188 97.488281 146.078125 97.488281 130.488281 Z M 97.488281 111.480469 " fill-opacity="0.302" fill-rule="nonzero"/></svg>