<?xml version="1.0" encoding="UTF-8"?><svg xmlns="http://www.w3.org/2000/svg" xmlns:xlink="http://www.w3.org/1999/xlink" contentScriptType="text/ecmascript" width="187.5" zoomAndPan="magnify" contentStyleType="text/css" viewBox="0 0 187.5 187.499995" height="187.499995" preserveAspectRatio="xMidYMid meet" version="1.0"><path fill="rgb(0%, 8.628845%, 19.60907%)" d="M 11.007812 81.777344 L 176.179688 81.777344 L 176.179688 120.601562 C 176.179688 148.050781 176.179688 161.777344 167.640625 170.308594 C 159.105469 178.835938 145.363281 178.835938 117.882812 178.835938 L 69.300781 178.835938 C 41.820312 178.835938 28.082031 178.835938 19.542969 170.308594 C 11.007812 161.777344 11.007812 148.050781 11.007812 120.601562 Z M 11.007812 81.777344 " fill-opacity="1" fill-rule="nonzero"/><path fill="rgb(0%, 8.628845%, 19.60907%)" d="M 11.007812 67.222656 C 11.007812 58.195312 11.007812 53.683594 12 49.980469 C 14.695312 39.933594 22.550781 32.082031 32.609375 29.390625 C 36.316406 28.398438 40.835938 28.398438 49.871094 28.398438 L 137.316406 28.398438 C 146.347656 28.398438 150.867188 28.398438 154.574219 29.390625 C 164.632812 32.082031 172.488281 39.933594 175.183594 49.980469 C 176.179688 53.683594 176.179688 58.195312 176.179688 67.222656 Z M 11.007812 67.222656 " fill-opacity="1" fill-rule="nonzero"/><path fill="rgb(70.199585%, 76.858521%, 85.099792%)" d="M 62.015625 4.136719 C 62.496094 4.136719 62.96875 4.183594 63.4375 4.273438 C 63.90625 4.367188 64.363281 4.507812 64.804688 4.6875 C 65.246094 4.871094 65.667969 5.097656 66.066406 5.363281 C 66.460938 5.628906 66.832031 5.929688 67.167969 6.265625 C 67.507812 6.605469 67.808594 6.972656 68.074219 7.371094 C 68.339844 7.769531 68.566406 8.1875 68.75 8.628906 C 68.929688 9.070312 69.070312 9.527344 69.164062 9.996094 C 69.257812 10.464844 69.304688 10.9375 69.304688 11.414062 L 69.304688 30.824219 C 69.304688 31.304688 69.257812 31.777344 69.164062 32.246094 C 69.070312 32.714844 68.929688 33.167969 68.75 33.609375 C 68.566406 34.050781 68.339844 34.472656 68.074219 34.871094 C 67.808594 35.265625 67.507812 35.632812 67.167969 35.972656 C 66.832031 36.308594 66.460938 36.613281 66.066406 36.878906 C 65.667969 37.144531 65.246094 37.367188 64.804688 37.550781 C 64.363281 37.734375 63.90625 37.871094 63.4375 37.964844 C 62.96875 38.058594 62.496094 38.105469 62.015625 38.105469 C 61.539062 38.105469 61.0625 38.058594 60.59375 37.964844 C 60.125 37.871094 59.667969 37.734375 59.226562 37.550781 C 58.785156 37.367188 58.367188 37.144531 57.96875 36.878906 C 57.570312 36.613281 57.203125 36.308594 56.863281 35.972656 C 56.527344 35.632812 56.222656 35.265625 55.957031 34.871094 C 55.691406 34.472656 55.46875 34.050781 55.285156 33.609375 C 55.101562 33.167969 54.964844 32.714844 54.871094 32.246094 C 54.777344 31.777344 54.730469 31.304688 54.730469 30.824219 L 54.730469 11.414062 C 54.730469 10.9375 54.777344 10.464844 54.871094 9.996094 C 54.964844 9.527344 55.101562 9.070312 55.285156 8.628906 C 55.46875 8.1875 55.691406 7.769531 55.957031 7.371094 C 56.222656 6.972656 56.527344 6.605469 56.863281 6.265625 C 57.203125 5.929688 57.570312 5.628906 57.96875 5.363281 C 58.367188 5.097656 58.785156 4.871094 59.226562 4.6875 C 59.667969 4.507812 60.125 4.367188 60.59375 4.273438 C 61.0625 4.183594 61.539062 4.136719 62.015625 4.136719 Z M 62.015625 4.136719 " fill-opacity="1" fill-rule="nonzero"/><path fill="rgb(70.199585%, 76.858521%, 85.099792%)" d="M 130.027344 4.136719 C 130.503906 4.136719 130.980469 4.183594 131.449219 4.273438 C 131.917969 4.367188 132.375 4.507812 132.816406 4.6875 C 133.257812 4.871094 133.675781 5.097656 134.074219 5.363281 C 134.472656 5.628906 134.839844 5.929688 135.179688 6.265625 C 135.519531 6.605469 135.820312 6.972656 136.085938 7.371094 C 136.351562 7.769531 136.574219 8.1875 136.757812 8.628906 C 136.941406 9.070312 137.082031 9.527344 137.171875 9.996094 C 137.265625 10.464844 137.3125 10.9375 137.3125 11.414062 L 137.3125 30.824219 C 137.3125 31.304688 137.265625 31.777344 137.171875 32.246094 C 137.082031 32.714844 136.941406 33.167969 136.757812 33.609375 C 136.574219 34.050781 136.351562 34.472656 136.085938 34.871094 C 135.820312 35.265625 135.519531 35.632812 135.179688 35.972656 C 134.839844 36.308594 134.472656 36.613281 134.074219 36.878906 C 133.675781 37.144531 133.257812 37.367188 132.816406 37.550781 C 132.375 37.734375 131.917969 37.871094 131.449219 37.964844 C 130.980469 38.058594 130.503906 38.105469 130.027344 38.105469 C 129.546875 38.105469 129.074219 38.058594 128.605469 37.964844 C 128.136719 37.871094 127.679688 37.734375 127.238281 37.550781 C 126.796875 37.367188 126.375 37.144531 125.976562 36.878906 C 125.582031 36.613281 125.210938 36.308594 124.875 35.972656 C 124.535156 35.632812 124.234375 35.265625 123.96875 34.871094 C 123.703125 34.472656 123.476562 34.050781 123.292969 33.609375 C 123.113281 33.167969 122.972656 32.714844 122.878906 32.246094 C 122.785156 31.777344 122.738281 31.304688 122.738281 30.824219 L 122.738281 11.414062 C 122.738281 10.9375 122.785156 10.464844 122.878906 9.996094 C 122.972656 9.527344 123.113281 9.070312 123.292969 8.628906 C 123.476562 8.1875 123.703125 7.769531 123.96875 7.371094 C 124.234375 6.972656 124.535156 6.605469 124.875 6.265625 C 125.210938 5.929688 125.582031 5.628906 125.976562 5.363281 C 126.375 5.097656 126.796875 4.871094 127.238281 4.6875 C 127.679688 4.507812 128.136719 4.367188 128.605469 4.273438 C 129.074219 4.183594 129.546875 4.136719 130.027344 4.136719 Z M 130.027344 4.136719 " fill-opacity="1" fill-rule="nonzero"/><path fill="rgb(70.199585%, 76.858521%, 85.099792%)" d="M 59.585938 96.339844 L 64.445312 96.339844 C 65.082031 96.339844 65.714844 96.402344 66.339844 96.527344 C 66.964844 96.648438 67.574219 96.832031 68.164062 97.078125 C 68.753906 97.320312 69.3125 97.621094 69.84375 97.976562 C 70.375 98.328125 70.863281 98.730469 71.316406 99.183594 C 71.765625 99.632812 72.167969 100.121094 72.523438 100.652344 C 72.878906 101.183594 73.175781 101.742188 73.421875 102.332031 C 73.664062 102.917969 73.847656 103.527344 73.972656 104.152344 C 74.097656 104.777344 74.160156 105.40625 74.160156 106.042969 L 74.160156 110.898438 C 74.160156 111.535156 74.097656 112.164062 73.972656 112.789062 C 73.847656 113.414062 73.664062 114.023438 73.421875 114.609375 C 73.175781 115.199219 72.878906 115.757812 72.523438 116.289062 C 72.167969 116.820312 71.765625 117.308594 71.316406 117.761719 C 70.863281 118.210938 70.375 118.613281 69.84375 118.96875 C 69.3125 119.320312 68.753906 119.621094 68.164062 119.863281 C 67.574219 120.109375 66.964844 120.292969 66.339844 120.417969 C 65.714844 120.539062 65.082031 120.601562 64.445312 120.601562 L 59.585938 120.601562 C 58.949219 120.601562 58.316406 120.539062 57.691406 120.417969 C 57.066406 120.292969 56.457031 120.109375 55.867188 119.863281 C 55.28125 119.621094 54.71875 119.320312 54.1875 118.96875 C 53.660156 118.613281 53.167969 118.210938 52.71875 117.761719 C 52.265625 117.308594 51.863281 116.820312 51.507812 116.289062 C 51.152344 115.757812 50.855469 115.199219 50.609375 114.609375 C 50.367188 114.023438 50.183594 113.414062 50.058594 112.789062 C 49.933594 112.164062 49.871094 111.535156 49.871094 110.898438 L 49.871094 106.042969 C 49.871094 105.40625 49.933594 104.777344 50.058594 104.152344 C 50.183594 103.527344 50.367188 102.917969 50.609375 102.332031 C 50.855469 101.742188 51.152344 101.183594 51.507812 100.652344 C 51.863281 100.121094 52.265625 99.632812 52.71875 99.183594 C 53.167969 98.730469 53.660156 98.328125 54.1875 97.976562 C 54.71875 97.621094 55.28125 97.320312 55.867188 97.078125 C 56.457031 96.832031 57.066406 96.648438 57.691406 96.527344 C 58.316406 96.402344 58.949219 96.339844 59.585938 96.339844 Z M 59.585938 96.339844 " fill-opacity="0.302" fill-rule="nonzero"/><path fill="rgb(70.199585%, 76.858521%, 85.099792%)" d="M 59.585938 130.308594 L 64.445312 130.308594 C 65.082031 130.308594 65.714844 130.371094 66.339844 130.492188 C 66.964844 130.617188 67.574219 130.800781 68.164062 131.046875 C 68.753906 131.289062 69.3125 131.589844 69.84375 131.941406 C 70.375 132.296875 70.863281 132.699219 71.316406 133.148438 C 71.765625 133.601562 72.167969 134.089844 72.523438 134.621094 C 72.878906 135.152344 73.175781 135.710938 73.421875 136.296875 C 73.664062 136.886719 73.847656 137.496094 73.972656 138.121094 C 74.097656 138.746094 74.160156 139.375 74.160156 140.011719 L 74.160156 144.863281 C 74.160156 145.503906 74.097656 146.132812 73.972656 146.757812 C 73.847656 147.382812 73.664062 147.992188 73.421875 148.578125 C 73.175781 149.167969 72.878906 149.726562 72.523438 150.257812 C 72.167969 150.785156 71.765625 151.277344 71.316406 151.726562 C 70.863281 152.179688 70.375 152.582031 69.84375 152.933594 C 69.3125 153.289062 68.753906 153.589844 68.164062 153.832031 C 67.574219 154.074219 66.964844 154.261719 66.339844 154.382812 C 65.714844 154.507812 65.082031 154.570312 64.445312 154.570312 L 59.585938 154.570312 C 58.949219 154.570312 58.316406 154.507812 57.691406 154.382812 C 57.066406 154.261719 56.457031 154.074219 55.867188 153.832031 C 55.28125 153.589844 54.71875 153.289062 54.1875 152.933594 C 53.660156 152.582031 53.167969 152.179688 52.71875 151.726562 C 52.265625 151.277344 51.863281 150.789062 51.507812 150.257812 C 51.152344 149.726562 50.855469 149.167969 50.609375 148.578125 C 50.367188 147.992188 50.183594 147.382812 50.058594 146.757812 C 49.933594 146.132812 49.871094 145.503906 49.871094 144.863281 L 49.871094 140.011719 C 49.871094 139.375 49.933594 138.746094 50.058594 138.121094 C 50.183594 137.496094 50.367188 136.886719 50.609375 136.296875 C 50.855469 135.710938 51.152344 135.152344 51.507812 134.621094 C 51.863281 134.089844 52.265625 133.601562 52.71875 133.148438 C 53.167969 132.699219 53.660156 132.296875 54.1875 131.941406 C 54.71875 131.589844 55.28125 131.289062 55.867188 131.046875 C 56.457031 130.800781 57.066406 130.617188 57.691406 130.492188 C 58.316406 130.371094 58.949219 130.308594 59.585938 130.308594 Z M 59.585938 130.308594 " fill-opacity="0.6" fill-rule="nonzero"/><path fill="rgb(70.199585%, 76.858521%, 85.099792%)" d="M 93.59375 96.339844 L 132.457031 96.339844 C 133.09375 96.339844 133.726562 96.402344 134.351562 96.527344 C 134.976562 96.648438 135.585938 96.832031 136.175781 97.078125 C 136.765625 97.320312 137.324219 97.621094 137.855469 97.976562 C 138.386719 98.328125 138.875 98.730469 139.328125 99.183594 C 139.777344 99.632812 140.179688 100.121094 140.535156 100.652344 C 140.890625 101.183594 141.1875 101.742188 141.433594 102.332031 C 141.675781 102.917969 141.863281 103.527344 141.988281 104.152344 C 142.109375 104.777344 142.171875 105.40625 142.171875 106.042969 L 142.171875 144.867188 C 142.171875 145.503906 142.109375 146.136719 141.988281 146.761719 C 141.863281 147.386719 141.675781 147.992188 141.433594 148.582031 C 141.1875 149.171875 140.890625 149.730469 140.535156 150.257812 C 140.179688 150.789062 139.777344 151.28125 139.328125 151.730469 C 138.875 152.179688 138.386719 152.582031 137.855469 152.9375 C 137.324219 153.292969 136.765625 153.589844 136.175781 153.832031 C 135.585938 154.078125 134.976562 154.261719 134.351562 154.386719 C 133.726562 154.511719 133.09375 154.574219 132.457031 154.574219 L 93.59375 154.574219 C 92.953125 154.574219 92.324219 154.511719 91.699219 154.386719 C 91.070312 154.261719 90.464844 154.078125 89.875 153.832031 C 89.285156 153.589844 88.726562 153.292969 88.195312 152.9375 C 87.664062 152.582031 87.171875 152.179688 86.722656 151.730469 C 86.269531 151.28125 85.867188 150.789062 85.515625 150.257812 C 85.160156 149.730469 84.859375 149.171875 84.617188 148.582031 C 84.371094 147.992188 84.1875 147.386719 84.0625 146.761719 C 83.9375 146.136719 83.875 145.503906 83.875 144.867188 L 83.875 106.042969 C 83.875 105.40625 83.9375 104.777344 84.0625 104.152344 C 84.1875 103.527344 84.371094 102.917969 84.617188 102.332031 C 84.859375 101.742188 85.160156 101.183594 85.515625 100.652344 C 85.867188 100.121094 86.269531 99.632812 86.722656 99.183594 C 87.171875 98.730469 87.664062 98.328125 88.195312 97.976562 C 88.726562 97.621094 89.285156 97.320312 89.875 97.078125 C 90.464844 96.832031 91.070312 96.648438 91.699219 96.527344 C 92.324219 96.402344 92.953125 96.339844 93.59375 96.339844 Z M 93.59375 96.339844 " fill-opacity="1" fill-rule="nonzero"/></svg>