<?xml version="1.0" encoding="UTF-8"?><svg xmlns="http://www.w3.org/2000/svg" xmlns:xlink="http://www.w3.org/1999/xlink" contentScriptType="text/ecmascript" width="187.5" zoomAndPan="magnify" contentStyleType="text/css" viewBox="0 0 187.5 187.499995" height="187.499995" preserveAspectRatio="xMidYMid meet" version="1.0"><defs><clipPath id="clip-0"><path d="M 2.269531 53 L 185 53 L 185 147 L 2.269531 147 Z M 2.269531 53 " clip-rule="nonzero"/></clipPath><clipPath id="clip-1"><path d="M 69 33.710938 L 143 33.710938 L 143 74 L 69 74 Z M 69 33.710938 " clip-rule="nonzero"/></clipPath><clipPath id="clip-2"><path d="M 69 101 L 172 101 L 172 153.710938 L 69 153.710938 Z M 69 101 " clip-rule="nonzero"/></clipPath></defs><g clip-path="url(#clip-0)"><path fill="rgb(0%, 8.628845%, 19.60907%)" d="M 183.996094 76.742188 C 182.742188 72.972656 180.042969 69.855469 176.496094 68.074219 C 172.945312 66.296875 168.835938 66.003906 165.070312 67.257812 L 123.496094 81.144531 L 49.136719 53.222656 L 30.546875 62.527344 L 86.316406 99.761719 L 49.136719 118.375 L 11.957031 99.761719 L 2.664062 109.070312 L 39.84375 146.300781 L 175.054688 95.527344 C 178.683594 94.160156 181.640625 91.441406 183.308594 87.941406 C 184.976562 84.4375 185.222656 80.421875 183.996094 76.742188 Z M 183.996094 76.742188 " fill-opacity="1" fill-rule="nonzero"/></g><g clip-path="url(#clip-1)"><path stroke-linecap="butt" transform="matrix(0.785197, 0, 0, 0.785959, 2.294278, 33.712013)" fill="none" stroke-linejoin="miter" d="M 150.970619 2.617845 L 113.962584 22.353889 " stroke="rgb(70.199585%, 76.858521%, 85.099792%)" stroke-width="4.934" stroke-opacity="1" stroke-miterlimit="4"/></g><g clip-path="url(#clip-2)"><path stroke-linecap="butt" transform="matrix(0.785197, 0, 0, 0.785959, 2.294278, 33.712013)" fill="none" stroke-linejoin="miter" d="M 187.978655 113.638684 L 113.962584 148.180488 " stroke="rgb(70.199585%, 76.858521%, 85.099792%)" stroke-width="4.934" stroke-opacity="1" stroke-miterlimit="4"/></g></svg>