<?xml version="1.0" encoding="UTF-8"?><svg xmlns="http://www.w3.org/2000/svg" xmlns:xlink="http://www.w3.org/1999/xlink" contentScriptType="text/ecmascript" width="187.5" zoomAndPan="magnify" contentStyleType="text/css" viewBox="0 0 187.5 187.499995" height="187.499995" preserveAspectRatio="xMidYMid meet" version="1.0"><defs><clipPath id="clip-0"><path d="M 7 157 L 184.484375 157 L 184.484375 181 L 7 181 Z M 7 157 " clip-rule="nonzero"/></clipPath></defs><path fill="rgb(0%, 8.628845%, 19.60907%)" d="M 22.265625 24.765625 C 22.265625 13.316406 31.554688 4.035156 43.015625 4.035156 L 134.332031 4.035156 C 145.792969 4.035156 155.082031 13.316406 155.082031 24.765625 L 155.082031 157.441406 L 22.265625 157.441406 Z M 22.265625 24.765625 " fill-opacity="1" fill-rule="nonzero"/><path fill="rgb(70.199585%, 76.858521%, 85.099792%)" d="M 96.976562 72.445312 C 96.976562 65.578125 102.550781 60.007812 109.425781 60.007812 L 159.234375 60.007812 C 166.109375 60.007812 171.683594 65.578125 171.683594 72.445312 L 171.683594 157.441406 L 96.976562 157.441406 Z M 96.976562 72.445312 " fill-opacity="1" fill-rule="nonzero"/><path fill="rgb(70.199585%, 76.858521%, 85.099792%)" d="M 51.316406 33.054688 L 72.070312 33.054688 L 72.070312 53.785156 L 51.316406 53.785156 Z M 51.316406 33.054688 " fill-opacity="1" fill-rule="nonzero"/><path fill="rgb(0%, 8.628845%, 19.60907%)" d="M 123.953125 91.101562 L 144.707031 91.101562 L 144.707031 157.441406 L 123.953125 157.441406 Z M 123.953125 91.101562 " fill-opacity="1" fill-rule="nonzero"/><path fill="rgb(70.199585%, 76.858521%, 85.099792%)" d="M 51.316406 70.371094 L 72.070312 70.371094 L 72.070312 91.101562 L 51.316406 91.101562 Z M 51.316406 70.371094 " fill-opacity="1" fill-rule="nonzero"/><path fill="rgb(70.199585%, 76.858521%, 85.099792%)" d="M 51.316406 107.6875 L 72.070312 107.6875 L 72.070312 128.417969 L 51.316406 128.417969 Z M 51.316406 107.6875 " fill-opacity="1" fill-rule="nonzero"/><g clip-path="url(#clip-0)"><path fill="rgb(0%, 8.628845%, 19.60907%)" d="M 7.738281 157.441406 L 184.136719 157.441406 L 184.136719 180.246094 L 7.738281 180.246094 Z M 7.738281 157.441406 " fill-opacity="1" fill-rule="nonzero"/></g></svg>