<?xml version="1.0" encoding="UTF-8"?><svg xmlns="http://www.w3.org/2000/svg" xmlns:xlink="http://www.w3.org/1999/xlink" contentScriptType="text/ecmascript" width="187.5" zoomAndPan="magnify" contentStyleType="text/css" viewBox="0 0 187.5 187.499995" height="187.499995" preserveAspectRatio="xMidYMid meet" version="1.0"><defs><clipPath id="clip-0"><path d="M 9.605469 4.625 L 177 4.625 L 177 172 L 9.605469 172 Z M 9.605469 4.625 " clip-rule="nonzero"/></clipPath></defs><g clip-path="url(#clip-0)"><path fill="rgb(0%, 8.628845%, 19.60907%)" d="M 41.144531 4.925781 L 145.382812 4.925781 C 146.40625 4.925781 147.425781 4.976562 148.445312 5.074219 C 149.464844 5.175781 150.476562 5.324219 151.480469 5.527344 C 152.484375 5.726562 153.480469 5.976562 154.457031 6.273438 C 155.4375 6.570312 156.402344 6.914062 157.347656 7.308594 C 158.292969 7.699219 159.21875 8.140625 160.121094 8.621094 C 161.023438 9.105469 161.902344 9.632812 162.753906 10.203125 C 163.605469 10.773438 164.425781 11.382812 165.21875 12.03125 C 166.011719 12.683594 166.769531 13.371094 167.492188 14.097656 C 168.21875 14.820312 168.902344 15.582031 169.554688 16.375 C 170.203125 17.167969 170.8125 17.988281 171.382812 18.84375 C 171.949219 19.695312 172.476562 20.574219 172.960938 21.480469 C 173.441406 22.382812 173.878906 23.308594 174.273438 24.257812 C 174.664062 25.203125 175.007812 26.167969 175.304688 27.152344 C 175.601562 28.132812 175.851562 29.125 176.050781 30.132812 C 176.25 31.136719 176.402344 32.152344 176.5 33.171875 C 176.601562 34.191406 176.652344 35.214844 176.652344 36.242188 L 176.652344 140.632812 C 176.652344 141.65625 176.601562 142.679688 176.5 143.703125 C 176.402344 144.722656 176.25 145.734375 176.050781 146.742188 C 175.851562 147.746094 175.601562 148.742188 175.304688 149.722656 C 175.007812 150.703125 174.664062 151.667969 174.273438 152.617188 C 173.878906 153.5625 173.441406 154.492188 172.960938 155.394531 C 172.476562 156.300781 171.949219 157.179688 171.382812 158.03125 C 170.8125 158.882812 170.203125 159.707031 169.554688 160.5 C 168.902344 161.292969 168.21875 162.050781 167.492188 162.777344 C 166.769531 163.503906 166.011719 164.191406 165.21875 164.839844 C 164.425781 165.492188 163.605469 166.101562 162.753906 166.671875 C 161.902344 167.242188 161.023438 167.769531 160.121094 168.25 C 159.21875 168.734375 158.292969 169.171875 157.347656 169.566406 C 156.402344 169.957031 155.4375 170.304688 154.457031 170.601562 C 153.480469 170.898438 152.484375 171.148438 151.480469 171.347656 C 150.476562 171.546875 149.464844 171.699219 148.445312 171.796875 C 147.425781 171.898438 146.40625 171.949219 145.382812 171.949219 L 41.144531 171.949219 C 40.121094 171.949219 39.097656 171.898438 38.078125 171.796875 C 37.058594 171.699219 36.046875 171.546875 35.042969 171.347656 C 34.039062 171.148438 33.046875 170.898438 32.066406 170.601562 C 31.085938 170.304688 30.121094 169.957031 29.175781 169.566406 C 28.230469 169.171875 27.304688 168.734375 26.402344 168.25 C 25.5 167.769531 24.621094 167.242188 23.769531 166.671875 C 22.917969 166.101562 22.097656 165.492188 21.304688 164.839844 C 20.515625 164.191406 19.757812 163.503906 19.03125 162.777344 C 18.308594 162.050781 17.621094 161.292969 16.972656 160.5 C 16.320312 159.707031 15.710938 158.882812 15.144531 158.03125 C 14.574219 157.179688 14.046875 156.300781 13.566406 155.394531 C 13.082031 154.492188 12.644531 153.5625 12.253906 152.617188 C 11.859375 151.667969 11.515625 150.703125 11.21875 149.722656 C 10.921875 148.742188 10.671875 147.746094 10.472656 146.742188 C 10.273438 145.734375 10.125 144.722656 10.023438 143.703125 C 9.921875 142.679688 9.871094 141.65625 9.871094 140.632812 L 9.871094 36.242188 C 9.871094 35.214844 9.921875 34.191406 10.023438 33.171875 C 10.125 32.152344 10.273438 31.136719 10.472656 30.132812 C 10.671875 29.125 10.921875 28.132812 11.21875 27.152344 C 11.515625 26.167969 11.859375 25.203125 12.253906 24.257812 C 12.644531 23.308594 13.082031 22.382812 13.566406 21.480469 C 14.046875 20.574219 14.574219 19.695312 15.144531 18.84375 C 15.710938 17.988281 16.320312 17.167969 16.972656 16.375 C 17.621094 15.582031 18.308594 14.820312 19.03125 14.097656 C 19.757812 13.371094 20.515625 12.683594 21.304688 12.03125 C 22.097656 11.382812 22.917969 10.773438 23.769531 10.203125 C 24.621094 9.632812 25.5 9.105469 26.402344 8.621094 C 27.304688 8.140625 28.230469 7.699219 29.175781 7.308594 C 30.121094 6.914062 31.085938 6.570312 32.066406 6.273438 C 33.046875 5.976562 34.039062 5.726562 35.042969 5.527344 C 36.046875 5.324219 37.058594 5.175781 38.078125 5.074219 C 39.097656 4.976562 40.121094 4.925781 41.144531 4.925781 Z M 41.144531 4.925781 " fill-opacity="1" fill-rule="nonzero"/></g><path stroke-linecap="round" transform="matrix(0.994083, 0, 0, 0.995546, 9.606373, 4.777079)" fill="none" stroke-linejoin="round" d="M 42.213729 47.336079 L 130.816137 47.336079 " stroke="rgb(70.199585%, 76.858521%, 85.099792%)" stroke-width="10.224" stroke-opacity="1" stroke-miterlimit="4"/><path stroke-linecap="round" transform="matrix(0.994083, 0, 0, 0.995546, 9.606373, 4.777079)" fill="none" stroke-linejoin="round" d="M 42.213729 81.413626 L 88.216407 81.413626 " stroke="rgb(70.199585%, 76.858521%, 85.099792%)" stroke-width="10.224" stroke-opacity="1" stroke-miterlimit="4"/><path stroke-linecap="round" transform="matrix(0.994083, 0, 0, 0.995546, 9.606373, 4.777079)" fill="none" stroke-linejoin="round" d="M 106.960131 81.413626 L 130.816137 81.413626 " stroke="rgb(70.199585%, 76.858521%, 85.099792%)" stroke-width="10.224" stroke-opacity="1" stroke-miterlimit="4"/><path stroke-linecap="round" transform="matrix(0.994083, 0, 0, 0.995546, 9.606373, 4.777079)" fill="none" stroke-linejoin="round" d="M 42.213729 115.495098 L 88.216407 115.495098 " stroke="rgb(70.199585%, 76.858521%, 85.099792%)" stroke-width="10.224" stroke-opacity="1" stroke-miterlimit="4"/><path stroke-linecap="round" transform="matrix(0.994083, 0, 0, 0.995546, 9.606373, 4.777079)" fill="none" stroke-linejoin="round" d="M 106.960131 115.491174 L 130.816137 115.491174 " stroke="rgb(70.199585%, 76.858521%, 85.099792%)" stroke-width="10.224" stroke-opacity="1" stroke-miterlimit="4"/></svg>