<?xml version="1.0" encoding="UTF-8"?><svg xmlns="http://www.w3.org/2000/svg" xmlns:xlink="http://www.w3.org/1999/xlink" contentScriptType="text/ecmascript" width="187.5" zoomAndPan="magnify" contentStyleType="text/css" viewBox="0 0 187.5 187.499995" height="187.499995" preserveAspectRatio="xMidYMid meet" version="1.0"><path fill="rgb(0%, 8.628845%, 19.60907%)" d="M 7.210938 124.941406 L 7.210938 47.078125 L 96.269531 8.675781 L 182.175781 51.945312 L 182.175781 124.941406 L 94.695312 173.601562 Z M 7.210938 124.941406 " fill-opacity="1" fill-rule="nonzero"/><path fill="rgb(70.199585%, 76.858521%, 85.099792%)" d="M 7.277344 49.957031 L 93.515625 97.871094 L 95.875 93.613281 L 9.636719 45.699219 Z M 95.773438 97.921875 L 182.257812 55 L 180.101562 50.640625 L 93.617188 93.5625 Z M 92.265625 95.742188 L 92.265625 172.253906 L 97.125 172.253906 L 97.125 95.742188 Z M 92.265625 95.742188 " fill-opacity="1" fill-rule="nonzero"/><path fill="rgb(70.199585%, 76.858521%, 85.099792%)" d="M 182.179688 51.820312 L 179.933594 50.574219 L 182.179688 55.066406 Z M 182.179688 51.820312 " fill-opacity="1" fill-rule="nonzero"/><path fill="rgb(70.199585%, 76.858521%, 85.099792%)" d="M 7.210938 47.082031 L 9.703125 45.582031 L 7.210938 50.074219 Z M 7.210938 47.082031 " fill-opacity="1" fill-rule="nonzero"/><path fill="rgb(70.199585%, 76.858521%, 85.099792%)" d="M 94.695312 173.601562 L 92.003906 172.253906 L 97.386719 172.253906 Z M 94.695312 173.601562 " fill-opacity="1" fill-rule="nonzero"/><path fill="rgb(70.199585%, 76.858521%, 85.099792%)" d="M 144.347656 67.070312 L 62.378906 23.667969 L 49.769531 28.71875 L 134.890625 73.382812 L 134.890625 103.371094 L 144.347656 97.847656 Z M 144.347656 67.070312 " fill-opacity="1" fill-rule="nonzero"/></svg>