<?xml version="1.0" encoding="UTF-8"?><svg xmlns="http://www.w3.org/2000/svg" xmlns:xlink="http://www.w3.org/1999/xlink" contentScriptType="text/ecmascript" width="187.5" zoomAndPan="magnify" contentStyleType="text/css" viewBox="0 0 187.5 187.499995" height="187.499995" preserveAspectRatio="xMidYMid meet" version="1.0"><defs><clipPath id="clip-0"><path d="M 103 6.605469 L 184 6.605469 L 184 87 L 103 87 Z M 103 6.605469 " clip-rule="nonzero"/></clipPath></defs><path fill="rgb(0%, 8.628845%, 19.60907%)" d="M 173.667969 96.285156 C 173.667969 112.105469 168.980469 127.570312 160.195312 140.726562 C 151.410156 153.878906 138.925781 164.132812 124.316406 170.1875 C 109.710938 176.242188 93.636719 177.824219 78.128906 174.738281 C 62.625 171.652344 48.378906 164.035156 37.199219 152.847656 C 26.019531 141.660156 18.40625 127.40625 15.320312 111.890625 C 12.234375 96.371094 13.820312 80.289062 19.871094 65.671875 C 25.921875 51.054688 36.167969 38.5625 49.3125 29.773438 C 62.460938 20.984375 77.914062 16.292969 93.726562 16.292969 L 93.726562 96.285156 Z M 173.667969 96.285156 " fill-opacity="1" fill-rule="nonzero"/><g clip-path="url(#clip-0)"><path fill="rgb(70.199585%, 76.858521%, 85.099792%)" d="M 183.074219 86.871094 C 183.074219 76.367188 181.003906 65.964844 176.988281 56.261719 C 172.96875 46.554688 167.082031 37.738281 159.660156 30.308594 C 152.234375 22.882812 143.421875 16.988281 133.722656 12.96875 C 124.023438 8.949219 113.628906 6.878906 103.132812 6.878906 L 103.132812 86.871094 Z M 183.074219 86.871094 " fill-opacity="1" fill-rule="nonzero"/></g></svg>