<?xml version="1.0" encoding="UTF-8"?><svg xmlns="http://www.w3.org/2000/svg" xmlns:xlink="http://www.w3.org/1999/xlink" contentScriptType="text/ecmascript" width="187.5" zoomAndPan="magnify" contentStyleType="text/css" viewBox="0 0 187.5 187.499995" height="187.499995" preserveAspectRatio="xMidYMid meet" version="1.0"><defs><clipPath id="clip-0"><path d="M 31 2.175781 L 187 2.175781 L 187 146 L 31 146 Z M 31 2.175781 " clip-rule="nonzero"/></clipPath><clipPath id="clip-1"><path d="M 0 16 L 159 16 L 159 187 L 0 187 Z M 0 16 " clip-rule="nonzero"/></clipPath></defs><g clip-path="url(#clip-0)"><path stroke-linecap="butt" transform="matrix(1.03125, 0, 0, 1.03049, 0.00000265, 2.187716)" fill="none" stroke-linejoin="miter" d="M 161.22726 31.932407 C 161.22726 32.705704 161.189381 33.47521 161.113624 34.244716 C 161.037866 35.014222 160.92423 35.776147 160.772715 36.534282 C 160.6212 37.288625 160.435594 38.039178 160.212109 38.778359 C 159.984836 39.51754 159.72726 40.241558 159.431806 40.957995 C 159.136351 41.670642 158.806806 42.368125 158.443169 43.046655 C 158.079533 43.728976 157.681806 44.392344 157.253776 45.032967 C 156.821957 45.673591 156.363624 46.295261 155.874988 46.890396 C 155.382564 47.489322 154.867412 48.057923 154.31817 48.60757 C 153.772715 49.153427 153.200746 49.668958 152.606049 50.157955 C 152.007564 50.650742 151.39014 51.109413 150.7462 51.537759 C 150.106049 51.966105 149.44317 52.364126 148.761352 52.72803 C 148.079534 53.091935 147.382564 53.421723 146.670443 53.717395 C 145.958322 54.013068 145.231049 54.270833 144.492413 54.498274 C 143.753776 54.721923 143.003777 54.907666 142.246201 55.059293 C 141.488625 55.21092 140.727261 55.32464 139.958322 55.396663 C 139.189383 55.472476 138.420443 55.510383 137.647716 55.510383 C 136.874989 55.510383 136.10605 55.472476 135.33711 55.396663 C 134.568171 55.32464 133.803019 55.21092 133.045444 55.059293 C 132.287868 54.907666 131.541656 54.721923 130.80302 54.498274 C 130.064383 54.270833 129.337111 54.013068 128.62499 53.717395 C 127.90908 53.421723 127.212111 53.091935 126.530293 52.72803 C 125.852262 52.364126 125.189384 51.966105 124.545444 51.537759 C 123.905293 51.109413 123.284081 50.650742 122.689384 50.157955 C 122.090899 49.668958 121.518929 49.153427 120.973475 48.60757 C 120.42802 48.057923 119.909081 47.489322 119.420445 46.890396 C 118.931808 46.295261 118.469687 45.673591 118.041657 45.032967 C 117.613627 44.392344 117.215899 43.728976 116.852263 43.046655 C 116.488627 42.368125 116.159081 41.670642 115.863627 40.957995 C 115.568172 40.241558 115.306809 39.51754 115.083324 38.778359 C 114.859839 38.039178 114.670445 37.288625 114.522718 36.534282 C 114.371203 35.776147 114.257566 35.014222 114.181809 34.244716 C 114.106051 33.47521 114.068172 32.705704 114.068172 31.932407 C 114.068172 31.15911 114.106051 30.389603 114.181809 29.620097 C 114.257566 28.854381 114.371203 28.088666 114.522718 27.334322 C 114.670445 26.576188 114.859839 25.825635 115.083324 25.090245 C 115.306809 24.351064 115.568172 23.623255 115.863627 22.910609 C 116.159081 22.197962 116.488627 21.500479 116.852263 20.818158 C 117.215899 20.135837 117.613627 19.47626 118.041657 18.831846 C 118.469687 18.191223 118.931808 17.573343 119.420445 16.974417 C 119.909081 16.379282 120.42802 15.80689 120.973475 15.261034 C 121.518929 14.715177 122.090899 14.195855 122.689384 13.706858 C 123.284081 13.217862 123.905293 12.7554 124.545444 12.327054 C 125.189384 11.898708 125.852262 11.500687 126.530293 11.136783 C 127.212111 10.772879 127.90908 10.44309 128.62499 10.147418 C 129.337111 9.851745 130.064383 9.59398 130.80302 9.37033 C 131.541656 9.14668 132.287868 8.957147 133.045444 8.80552 C 133.803019 8.657684 134.568171 8.543964 135.33711 8.46815 C 136.10605 8.392337 136.874989 8.35443 137.647716 8.35443 C 138.420443 8.35443 139.189383 8.392337 139.958322 8.46815 C 140.727261 8.543964 141.488625 8.657684 142.246201 8.80552 C 143.003777 8.957147 143.753776 9.14668 144.492413 9.37033 C 145.231049 9.59398 145.958322 9.851745 146.670443 10.147418 C 147.382564 10.44309 148.079534 10.772879 148.761352 11.136783 C 149.44317 11.500687 150.106049 11.898708 150.7462 12.327054 C 151.39014 12.7554 152.007564 13.217862 152.606049 13.706858 C 153.200746 14.195855 153.772715 14.715177 154.31817 15.261034 C 154.867412 15.80689 155.382564 16.379282 155.874988 16.974417 C 156.363624 17.573343 156.821957 18.191223 157.253776 18.831846 C 157.681806 19.47626 158.079533 20.135837 158.443169 20.818158 C 158.806806 21.500479 159.136351 22.197962 159.431806 22.910609 C 159.72726 23.623255 159.984836 24.351064 160.212109 25.090245 C 160.435594 25.825635 160.6212 26.576188 160.772715 27.334322 C 160.92423 28.088666 161.037866 28.854381 161.113624 29.620097 C 161.189381 30.389603 161.22726 31.15911 161.22726 31.932407 Z M 161.22726 31.932407 " stroke="rgb(0%, 8.628845%, 19.60907%)" stroke-width="14.803001" stroke-opacity="1" stroke-miterlimit="4"/></g><path stroke-linecap="round" transform="matrix(1.03125, 0, 0, 1.03049, 0.00000265, 2.187716)" fill="none" stroke-linejoin="miter" d="M 22.435602 37.743506 L 92.143931 37.743506 " stroke="rgb(70.199585%, 76.858521%, 85.099792%)" stroke-width="12.336" stroke-opacity="1" stroke-miterlimit="4"/><path stroke-linecap="round" transform="matrix(1.03125, 0, 0, 1.03049, 0.00000265, 2.187716)" fill="none" stroke-linejoin="miter" d="M 94.212113 126.812913 L 163.916654 126.812913 " stroke="rgb(70.199585%, 76.858521%, 85.099792%)" stroke-width="12.336" stroke-opacity="1" stroke-miterlimit="4"/><g clip-path="url(#clip-1)"><path stroke-linecap="butt" transform="matrix(1.03125, 0, 0, 1.03049, 0.00000265, 2.187716)" fill="none" stroke-linejoin="miter" d="M 70.21969 121.001814 C 70.21969 121.775111 70.181811 122.544617 70.106054 123.314123 C 70.030296 124.079839 69.91666 124.845555 69.765145 125.603689 C 69.61363 126.358032 69.428023 127.108585 69.204539 127.847766 C 68.981054 128.586947 68.71969 129.310965 68.424236 130.023612 C 68.128781 130.740049 67.799236 131.437532 67.435599 132.116062 C 67.071963 132.798383 66.674236 133.45796 66.246205 134.102374 C 65.814387 134.742998 65.356054 135.364668 64.867418 135.959803 C 64.378781 136.558729 63.859842 137.12733 63.314387 137.673187 C 62.765145 138.219043 62.196963 138.738365 61.598478 139.227362 C 60.999994 139.720149 60.382569 140.178821 59.73863 140.607166 C 59.098479 141.035512 58.4356 141.433533 57.753782 141.797437 C 57.075751 142.161342 56.374994 142.49113 55.662873 142.786802 C 54.950752 143.082475 54.223479 143.340241 53.484843 143.56389 C 52.746206 143.79133 51.996206 143.977073 51.238631 144.1287 C 50.481055 144.280327 49.719691 144.390257 48.950752 144.46607 C 48.181813 144.541883 47.412873 144.57979 46.640146 144.57979 C 45.867419 144.57979 45.09848 144.541883 44.32954 144.46607 C 43.560601 144.390257 42.799237 144.280327 42.041662 144.1287 C 41.284086 143.977073 40.534086 143.79133 39.79545 143.56389 C 39.056813 143.340241 38.329541 143.082475 37.617419 142.786802 C 36.90151 142.49113 36.204541 142.161342 35.52651 141.797437 C 34.844692 141.433533 34.181814 141.035512 33.541662 140.607166 C 32.897723 140.178821 32.280298 139.720149 31.681814 139.227362 C 31.083329 138.738365 30.511359 138.219043 29.965905 137.673187 C 29.42045 137.12733 28.901511 136.558729 28.412874 135.959803 C 27.924238 135.364668 27.462117 134.742998 27.034087 134.102374 C 26.606056 133.45796 26.208329 132.798383 25.844693 132.116062 C 25.481056 131.437532 25.151511 130.740049 24.856057 130.023612 C 24.560602 129.310965 24.299238 128.586947 24.075754 127.847766 C 23.852269 127.108585 23.662875 126.358032 23.515147 125.603689 C 23.363632 124.845555 23.249996 124.079839 23.174238 123.314123 C 23.098481 122.544617 23.060602 121.775111 23.060602 121.001814 C 23.060602 120.228517 23.098481 119.45901 23.174238 118.689504 C 23.249996 117.923788 23.363632 117.158073 23.515147 116.403729 C 23.662875 115.645595 23.852269 114.895042 24.075754 114.155861 C 24.299238 113.41668 24.560602 112.692662 24.856057 111.980016 C 25.151511 111.263579 25.481056 110.566095 25.844693 109.887565 C 26.208329 109.205244 26.606056 108.545667 27.034087 107.901253 C 27.462117 107.26063 27.924238 106.63896 28.412874 106.043824 C 28.901511 105.444898 29.42045 104.876297 29.965905 104.330441 C 30.511359 103.784584 31.083329 103.265262 31.681814 102.776265 C 32.280298 102.283478 32.897723 101.824807 33.541662 101.396461 C 34.181814 100.968115 34.844692 100.570095 35.52651 100.20619 C 36.204541 99.842286 36.90151 99.512497 37.617419 99.216825 C 38.329541 98.921152 39.056813 98.663387 39.79545 98.439737 C 40.534086 98.212297 41.284086 98.026554 42.041662 97.874927 C 42.799237 97.727091 43.560601 97.613371 44.32954 97.537557 C 45.09848 97.461744 45.867419 97.423837 46.640146 97.423837 C 47.412873 97.423837 48.181813 97.461744 48.950752 97.537557 C 49.719691 97.613371 50.481055 97.727091 51.238631 97.874927 C 51.996206 98.026554 52.746206 98.212297 53.484843 98.439737 C 54.223479 98.663387 54.950752 98.921152 55.662873 99.216825 C 56.374994 99.512497 57.075751 99.842286 57.753782 100.20619 C 58.4356 100.570095 59.098479 100.968115 59.73863 101.396461 C 60.382569 101.824807 60.999994 102.283478 61.598478 102.776265 C 62.196963 103.265262 62.765145 103.784584 63.314387 104.330441 C 63.859842 104.876297 64.378781 105.444898 64.867418 106.043824 C 65.356054 106.63896 65.814387 107.26063 66.246205 107.901253 C 66.674236 108.545667 67.071963 109.205244 67.435599 109.887565 C 67.799236 110.566095 68.128781 111.263579 68.424236 111.980016 C 68.71969 112.692662 68.981054 113.41668 69.204539 114.155861 C 69.428023 114.895042 69.61363 115.645595 69.765145 116.403729 C 69.91666 117.158073 70.030296 117.923788 70.106054 118.689504 C 70.181811 119.45901 70.21969 120.228517 70.21969 121.001814 Z M 70.21969 121.001814 " stroke="rgb(0%, 8.628845%, 19.60907%)" stroke-width="14.803001" stroke-opacity="1" stroke-miterlimit="4"/></g></svg>