<?xml version="1.0" encoding="UTF-8"?><svg xmlns="http://www.w3.org/2000/svg" xmlns:xlink="http://www.w3.org/1999/xlink" contentScriptType="text/ecmascript" width="187.5" zoomAndPan="magnify" contentStyleType="text/css" viewBox="0 0 187.5 187.499995" height="187.499995" preserveAspectRatio="xMidYMid meet" version="1.0"><defs><clipPath id="clip-0"><path d="M 0 4.710938 L 178 4.710938 L 178 182.460938 L 0 182.460938 Z M 0 4.710938 " clip-rule="nonzero"/></clipPath><clipPath id="clip-1"><path d="M 36 99 L 72 99 L 72 135 L 36 135 Z M 36 99 " clip-rule="nonzero"/></clipPath><clipPath id="clip-2"><path d="M 56.523438 84.710938 L 87.175781 114.703125 L 58.382812 144.132812 L 27.730469 114.136719 Z M 56.523438 84.710938 " clip-rule="nonzero"/></clipPath></defs><path fill="rgb(70.199585%, 76.858521%, 85.099792%)" d="M 174.238281 46.070312 L 146.347656 20.273438 C 139.207031 13.667969 135.636719 10.367188 131.390625 10.578125 C 127.140625 10.792969 123.917969 14.433594 117.472656 21.71875 L 44.945312 103.710938 C 38.757812 110.707031 35.664062 114.207031 35.867188 118.324219 C 36.074219 122.441406 39.503906 125.609375 46.359375 131.953125 L 74.25 157.75 C 81.390625 164.355469 84.960938 167.660156 89.207031 167.445312 C 93.457031 167.234375 96.675781 163.589844 103.121094 156.304688 L 175.652344 74.3125 C 181.839844 67.316406 184.933594 63.820312 184.730469 59.703125 C 184.523438 55.585938 181.09375 52.414062 174.238281 46.070312 Z M 174.238281 46.070312 " fill-opacity="1" fill-rule="nonzero"/><path fill="rgb(0%, 8.628845%, 19.60907%)" d="M 145.09375 44.839844 L 115.253906 18.394531 C 108.113281 12.066406 104.542969 8.902344 100.359375 9.15625 C 96.175781 9.410156 93.019531 12.984375 86.699219 20.128906 L 14.160156 102.128906 C 7.851562 109.261719 4.695312 112.832031 4.949219 117.007812 C 5.203125 121.183594 8.769531 124.34375 15.894531 130.660156 L 45.738281 157.105469 C 52.878906 163.433594 56.449219 166.59375 60.632812 166.339844 C 64.8125 166.085938 67.972656 162.515625 74.292969 155.371094 L 146.832031 73.371094 C 153.140625 66.234375 156.296875 62.667969 156.042969 58.492188 C 155.789062 54.3125 152.222656 51.15625 145.09375 44.839844 Z M 145.09375 44.839844 " fill-opacity="1" fill-rule="nonzero"/><g clip-path="url(#clip-0)"><path stroke-linecap="butt" transform="matrix(0.940298, 0, 0, 0.940328, 0.00000265, 4.772514)" fill="none" stroke-linejoin="miter" d="M 154.306064 42.60997 L 122.571624 14.486459 C 114.977625 7.756757 111.180626 4.391905 106.731406 4.661924 C 102.282187 4.931943 98.92554 8.732979 92.203937 16.330896 L 15.059212 103.53455 C 8.350072 111.120005 4.993425 114.916887 5.263453 119.35766 C 5.53348 123.798433 9.326325 127.15913 16.903707 133.87637 L 48.642301 161.999881 C 56.2363 168.729584 60.033299 172.090281 64.482518 171.820262 C 68.927583 171.550243 72.288385 167.753362 79.009988 160.155444 L 156.154712 72.95179 C 162.863852 65.362181 166.2205 61.569454 165.950472 57.128681 C 165.680445 52.683753 161.8876 49.32721 154.306064 42.60997 Z M 154.306064 42.60997 " stroke="rgb(100%, 100%, 100%)" stroke-width="4.093" stroke-opacity="1" stroke-miterlimit="4"/></g><g clip-path="url(#clip-1)"><g clip-path="url(#clip-2)"><path fill="rgb(70.199585%, 76.858521%, 85.099792%)" d="M 67.101562 134.710938 L 70.054688 131.003906 L 63.714844 112.488281 C 63.714844 112.488281 65.917969 110.460938 68.886719 107.203125 C 70.699219 105.101562 71.738281 102.445312 71.835938 99.675781 L 71.835938 99.6875 L 71.613281 99.46875 C 68.859375 99.625 66.242188 100.714844 64.191406 102.558594 L 64.164062 102.582031 C 60.972656 105.621094 58.992188 107.867188 58.992188 107.867188 L 40.34375 101.933594 L 36.703125 104.964844 L 47.636719 110.6875 L 52.617188 114.160156 C 49.578125 116.960938 46.988281 120.210938 44.945312 123.800781 L 45.09375 123.558594 L 40.4375 121.628906 L 38.28125 123.832031 L 43.554688 127.074219 C 43.371094 127.644531 43.246094 128.128906 43.140625 128.617188 L 43.15625 128.550781 L 42.820312 128.894531 C 42.914062 128.875 43.007812 128.851562 43.105469 128.832031 C 43.089844 128.925781 43.0625 129.023438 43.046875 129.121094 L 43.386719 128.773438 C 43.804688 128.679688 44.285156 128.542969 44.761719 128.378906 L 44.851562 128.34375 L 48.207031 133.546875 L 50.363281 131.34375 L 48.332031 126.726562 C 50.980469 125.15625 53.691406 123.035156 56.152344 120.519531 C 56.664062 120 57.15625 119.46875 57.628906 118.925781 L 57.566406 119 L 61.148438 123.90625 L 67.105469 134.710938 Z M 67.101562 134.710938 " fill-opacity="1" fill-rule="nonzero"/></g></g></svg>