<?xml version="1.0" encoding="UTF-8"?><svg xmlns="http://www.w3.org/2000/svg" xmlns:xlink="http://www.w3.org/1999/xlink" contentScriptType="text/ecmascript" width="187.5" zoomAndPan="magnify" contentStyleType="text/css" viewBox="0 0 187.5 187.499995" height="187.499995" preserveAspectRatio="xMidYMid meet" version="1.0"><defs><clipPath id="clip-0"><path d="M 2 74 L 184.5 74 L 184.5 177 L 2 177 Z M 2 74 " clip-rule="nonzero"/></clipPath><clipPath id="clip-1"><path d="M 61 94 L 184.5 94 L 184.5 177 L 61 177 Z M 61 94 " clip-rule="nonzero"/></clipPath></defs><g clip-path="url(#clip-0)"><path fill="rgb(0%, 8.628845%, 19.60907%)" d="M 23.214844 136.050781 L 2.160156 115.039062 L 76.816406 74.648438 L 105.53125 94.023438 L 159.128906 94.023438 L 184.015625 113.128906 L 103.617188 176.164062 L 61.5 137.960938 Z M 23.214844 136.050781 " fill-opacity="1" fill-rule="nonzero"/></g><g clip-path="url(#clip-1)"><path fill="rgb(70.199585%, 76.858521%, 85.099792%)" d="M 159.128906 94.023438 L 61.5 137.960938 L 103.617188 176.164062 L 184.015625 113.125 Z M 159.128906 94.023438 " fill-opacity="1" fill-rule="nonzero"/></g><path fill="rgb(70.199585%, 76.858521%, 85.099792%)" d="M 59.042969 22.253906 C 67.671875 22.253906 75.949219 25.703125 82.054688 31.84375 C 88.15625 37.984375 91.585938 46.316406 91.585938 55 C 91.585938 68.558594 81.316406 82.761719 61.210938 97.933594 C 60.585938 98.40625 59.824219 98.664062 59.042969 98.664062 C 58.257812 98.664062 57.5 98.40625 56.871094 97.933594 C 36.769531 82.761719 26.5 68.558594 26.5 55 C 26.5 46.316406 29.925781 37.984375 36.03125 31.84375 C 42.132812 25.703125 50.410156 22.253906 59.042969 22.253906 Z M 59.042969 44.085938 C 56.164062 44.085938 53.40625 45.234375 51.371094 47.28125 C 49.335938 49.328125 48.195312 52.105469 48.195312 55 C 48.195312 57.894531 49.335938 60.671875 51.371094 62.71875 C 53.40625 64.765625 56.164062 65.914062 59.042969 65.914062 C 61.917969 65.914062 64.679688 64.765625 66.710938 62.71875 C 68.746094 60.671875 69.890625 57.894531 69.890625 55 C 69.890625 52.105469 68.746094 49.328125 66.710938 47.28125 C 64.679688 45.234375 61.917969 44.085938 59.042969 44.085938 Z M 59.042969 44.085938 " fill-opacity="1" fill-rule="nonzero"/><path fill="rgb(0%, 8.628845%, 19.60907%)" d="M 72.441406 54.726562 C 72.441406 55.605469 72.355469 56.472656 72.183594 57.335938 C 72.011719 58.195312 71.757812 59.03125 71.421875 59.84375 C 71.085938 60.65625 70.671875 61.425781 70.183594 62.15625 C 69.695312 62.886719 69.136719 63.5625 68.515625 64.183594 C 67.894531 64.804688 67.21875 65.355469 66.484375 65.84375 C 65.753906 66.332031 64.980469 66.746094 64.167969 67.082031 C 63.355469 67.417969 62.519531 67.671875 61.65625 67.839844 C 60.792969 68.011719 59.921875 68.097656 59.042969 68.097656 C 58.160156 68.097656 57.289062 68.011719 56.425781 67.839844 C 55.5625 67.671875 54.726562 67.417969 53.914062 67.082031 C 53.101562 66.746094 52.328125 66.332031 51.597656 65.84375 C 50.863281 65.355469 50.1875 64.804688 49.566406 64.183594 C 48.945312 63.5625 48.386719 62.886719 47.898438 62.15625 C 47.410156 61.425781 46.996094 60.65625 46.660156 59.84375 C 46.324219 59.03125 46.070312 58.195312 45.898438 57.335938 C 45.726562 56.472656 45.640625 55.605469 45.640625 54.726562 C 45.640625 53.847656 45.726562 52.980469 45.898438 52.117188 C 46.070312 51.257812 46.324219 50.421875 46.660156 49.609375 C 46.996094 48.796875 47.410156 48.027344 47.898438 47.296875 C 48.386719 46.566406 48.945312 45.890625 49.566406 45.269531 C 50.1875 44.652344 50.863281 44.097656 51.597656 43.609375 C 52.328125 43.121094 53.101562 42.707031 53.914062 42.371094 C 54.726562 42.035156 55.5625 41.78125 56.425781 41.613281 C 57.289062 41.441406 58.160156 41.355469 59.042969 41.355469 C 59.921875 41.355469 60.792969 41.441406 61.65625 41.613281 C 62.519531 41.78125 63.355469 42.035156 64.167969 42.371094 C 64.980469 42.707031 65.753906 43.121094 66.484375 43.609375 C 67.21875 44.097656 67.894531 44.652344 68.515625 45.269531 C 69.136719 45.890625 69.695312 46.566406 70.183594 47.296875 C 70.671875 48.027344 71.085938 48.796875 71.421875 49.609375 C 71.757812 50.421875 72.011719 51.257812 72.183594 52.117188 C 72.355469 52.980469 72.441406 53.847656 72.441406 54.726562 Z M 72.441406 54.726562 " fill-opacity="1" fill-rule="nonzero"/></svg>