<?xml version="1.0" encoding="UTF-8"?><svg xmlns="http://www.w3.org/2000/svg" xmlns:xlink="http://www.w3.org/1999/xlink" contentScriptType="text/ecmascript" width="187.5" zoomAndPan="magnify" contentStyleType="text/css" viewBox="0 0 187.5 187.499995" height="187.499995" preserveAspectRatio="xMidYMid meet" version="1.0"><path fill="rgb(0%, 8.628845%, 19.60907%)" d="M 49.136719 28.1875 L 132.710938 28.1875 C 133.617188 28.1875 134.523438 28.234375 135.425781 28.324219 C 136.328125 28.410156 137.222656 28.542969 138.113281 28.722656 C 139 28.898438 139.878906 29.117188 140.746094 29.382812 C 141.613281 29.644531 142.464844 29.949219 143.304688 30.296875 C 144.140625 30.644531 144.960938 31.03125 145.757812 31.460938 C 146.558594 31.886719 147.335938 32.355469 148.089844 32.859375 C 148.84375 33.363281 149.570312 33.902344 150.269531 34.476562 C 150.972656 35.054688 151.640625 35.660156 152.28125 36.304688 C 152.925781 36.945312 153.53125 37.617188 154.105469 38.316406 C 154.683594 39.019531 155.222656 39.746094 155.726562 40.5 C 156.230469 41.253906 156.695312 42.03125 157.121094 42.832031 C 157.546875 43.632812 157.9375 44.453125 158.28125 45.289062 C 158.628906 46.128906 158.933594 46.980469 159.199219 47.851562 C 159.460938 48.71875 159.679688 49.597656 159.859375 50.488281 C 160.035156 51.375 160.167969 52.273438 160.257812 53.175781 C 160.34375 54.078125 160.390625 54.984375 160.390625 55.890625 L 160.390625 148.234375 C 160.390625 149.140625 160.34375 150.042969 160.257812 150.949219 C 160.167969 151.851562 160.035156 152.746094 159.859375 153.636719 C 159.679688 154.527344 159.460938 155.40625 159.199219 156.273438 C 158.933594 157.140625 158.628906 157.996094 158.28125 158.832031 C 157.9375 159.671875 157.546875 160.492188 157.121094 161.292969 C 156.695312 162.089844 156.230469 162.867188 155.726562 163.621094 C 155.222656 164.378906 154.683594 165.105469 154.105469 165.804688 C 153.53125 166.507812 152.925781 167.179688 152.28125 167.820312 C 151.640625 168.460938 150.972656 169.070312 150.269531 169.644531 C 149.570312 170.222656 148.84375 170.761719 148.089844 171.265625 C 147.335938 171.769531 146.558594 172.234375 145.757812 172.664062 C 144.960938 173.089844 144.140625 173.480469 143.304688 173.824219 C 142.464844 174.171875 141.613281 174.476562 140.746094 174.742188 C 139.878906 175.003906 139 175.226562 138.113281 175.402344 C 137.222656 175.578125 136.328125 175.710938 135.425781 175.800781 C 134.523438 175.890625 133.617188 175.933594 132.710938 175.933594 L 49.136719 175.933594 C 48.230469 175.933594 47.324219 175.890625 46.421875 175.800781 C 45.519531 175.710938 44.625 175.578125 43.738281 175.402344 C 42.847656 175.226562 41.96875 175.003906 41.101562 174.742188 C 40.234375 174.476562 39.382812 174.171875 38.542969 173.824219 C 37.707031 173.480469 36.890625 173.089844 36.089844 172.664062 C 35.289062 172.234375 34.511719 171.769531 33.757812 171.265625 C 33.007812 170.761719 32.277344 170.222656 31.578125 169.644531 C 30.878906 169.070312 30.207031 168.460938 29.566406 167.820312 C 28.925781 167.179688 28.316406 166.507812 27.742188 165.804688 C 27.167969 165.105469 26.628906 164.378906 26.125 163.621094 C 25.621094 162.867188 25.15625 162.089844 24.726562 161.292969 C 24.300781 160.492188 23.914062 159.671875 23.566406 158.832031 C 23.21875 157.996094 22.914062 157.140625 22.652344 156.273438 C 22.386719 155.40625 22.167969 154.527344 21.992188 153.636719 C 21.8125 152.746094 21.679688 151.851562 21.59375 150.949219 C 21.503906 150.042969 21.460938 149.140625 21.460938 148.234375 L 21.460938 55.890625 C 21.460938 54.984375 21.503906 54.078125 21.59375 53.175781 C 21.679688 52.273438 21.8125 51.375 21.992188 50.488281 C 22.167969 49.597656 22.386719 48.71875 22.652344 47.851562 C 22.914062 46.980469 23.21875 46.128906 23.566406 45.289062 C 23.914062 44.453125 24.300781 43.632812 24.726562 42.832031 C 25.15625 42.03125 25.621094 41.253906 26.125 40.5 C 26.628906 39.746094 27.167969 39.019531 27.742188 38.316406 C 28.316406 37.617188 28.925781 36.945312 29.566406 36.304688 C 30.207031 35.660156 30.878906 35.054688 31.578125 34.476562 C 32.277344 33.902344 33.007812 33.363281 33.757812 32.859375 C 34.511719 32.355469 35.289062 31.886719 36.089844 31.460938 C 36.890625 31.03125 37.707031 30.644531 38.542969 30.296875 C 39.382812 29.949219 40.234375 29.644531 41.101562 29.382812 C 41.96875 29.117188 42.847656 28.898438 43.738281 28.722656 C 44.625 28.542969 45.519531 28.410156 46.421875 28.324219 C 47.324219 28.234375 48.230469 28.1875 49.136719 28.1875 Z M 49.136719 28.1875 " fill-opacity="1" fill-rule="nonzero"/><path stroke-linecap="round" transform="matrix(0.879847, 0, 0, 0.880631, -26.885924, -8.0469)" fill="none" stroke-linejoin="round" d="M 89.490014 110.232653 L 127.920008 110.232653 " stroke="rgb(70.199585%, 76.858521%, 85.099792%)" stroke-width="10.224" stroke-opacity="1" stroke-miterlimit="4"/><path stroke-linecap="round" transform="matrix(0.879847, 0, 0, 0.880631, -26.885924, -8.0469)" fill="none" stroke-linejoin="round" d="M 143.57881 110.232653 L 163.504158 110.232653 " stroke="rgb(70.199585%, 76.858521%, 85.099792%)" stroke-width="10.224" stroke-opacity="1" stroke-miterlimit="4"/><path stroke-linecap="round" transform="matrix(0.879847, 0, 0, 0.880631, -26.885924, -8.0469)" fill="none" stroke-linejoin="round" d="M 89.490014 139.84123 L 127.920008 139.84123 " stroke="rgb(70.199585%, 76.858521%, 85.099792%)" stroke-width="10.224" stroke-opacity="1" stroke-miterlimit="4"/><path stroke-linecap="round" transform="matrix(0.879847, 0, 0, 0.880631, -26.885924, -8.0469)" fill="none" stroke-linejoin="round" d="M 143.57881 139.836795 L 163.504158 139.836795 " stroke="rgb(70.199585%, 76.858521%, 85.099792%)" stroke-width="10.224" stroke-opacity="1" stroke-miterlimit="4"/><path stroke-linecap="round" transform="matrix(0.879847, 0, 0, 0.880631, -26.885924, -8.0469)" fill="none" stroke-linejoin="round" d="M 89.490014 169.445372 L 127.920008 169.445372 " stroke="rgb(70.199585%, 76.858521%, 85.099792%)" stroke-width="10.224" stroke-opacity="1" stroke-miterlimit="4"/><path stroke-linecap="round" transform="matrix(0.879847, 0, 0, 0.880631, -26.885924, -8.0469)" fill="none" stroke-linejoin="round" d="M 143.57881 169.440936 L 163.504158 169.440936 " stroke="rgb(70.199585%, 76.858521%, 85.099792%)" stroke-width="10.224" stroke-opacity="1" stroke-miterlimit="4"/><path stroke-linecap="round" transform="matrix(0.879847, 0, 0, 0.880631, -26.885924, -8.0469)" fill="none" stroke-linejoin="round" d="M 168.538771 58.494158 C 167.979369 50.953397 169.915076 43.434814 174.043992 37.096139 C 178.172907 30.757464 184.268608 25.953555 191.394317 23.411875 C 198.520026 20.874631 206.280612 20.745994 213.486236 23.043708 C 220.69186 25.345858 226.942949 29.945723 231.280531 36.142454 C 235.618112 42.339186 237.802441 49.786797 237.496103 57.345301 C 237.194203 64.903805 234.414955 72.151808 229.589007 77.980373 C 224.767499 83.804502 218.165674 87.885385 210.795781 89.597581 C 203.430328 91.309777 195.700821 90.555701 188.805975 87.450682 " stroke="rgb(70.199585%, 76.858521%, 85.099792%)" stroke-width="9.869" stroke-opacity="1" stroke-miterlimit="4"/><path stroke-linecap="round" transform="matrix(0.879847, 0, 0, 0.880631, -26.885924, -8.0469)" fill="none" stroke-linejoin="miter" d="M 155.876763 54.213667 L 168.090362 66.425265 L 178.559161 55.956914 " stroke="rgb(70.199585%, 76.858521%, 85.099792%)" stroke-width="7.402" stroke-opacity="1" stroke-miterlimit="4"/></svg>